<?xml version="1.0" standalone="no"?>
<!DOCTYPE svg PUBLIC "-//W3C//DTD SVG 20010904//EN"
 "http://www.w3.org/TR/2001/REC-SVG-20010904/DTD/svg10.dtd">
<svg version="1.0" xmlns="http://www.w3.org/2000/svg"
 width="738.000000pt" height="415.000000pt" viewBox="0 0 738.000000 415.000000"
 preserveAspectRatio="xMidYMid meet">

<g transform="translate(0.000000,415.000000) scale(0.100000,-0.100000)"
fill="#000000" stroke="none">
<path d="M0 3665 l0 -485 60 0 60 0 0 -45 c0 -25 -4 -45 -10 -45 -5 0 -10 4
-10 10 0 10 -71 50 -89 50 -7 0 -10 -78 -10 -225 1 -213 2 -225 20 -225 17 0
19 -8 19 -60 0 -53 -2 -60 -20 -60 -22 0 -27 -15 -7 -23 9 -4 9 -6 0 -6 -7 -1
-13 -8 -13 -16 0 -13 14 -15 88 -13 l87 3 3 63 c2 34 4 62 6 62 2 0 19 -7 39
-15 24 -10 82 -15 191 -17 l156 -3 0 -573 c0 -570 0 -573 -20 -562 -24 13 -26
30 -5 30 22 0 18 27 -5 33 -22 6 -28 42 -8 51 11 5 11 7 0 12 -6 3 -12 12 -12
19 0 7 6 16 12 18 7 3 3 6 -9 6 -18 1 -23 7 -23 26 0 14 -4 25 -8 25 -4 0 -8
9 -9 21 -1 12 -10 28 -20 36 -10 8 -12 12 -6 8 7 -3 23 1 35 9 22 16 22 16
-10 16 -26 0 -32 4 -33 23 -1 15 -3 17 -6 6 -4 -17 -43 -15 -43 2 0 5 -16 9
-35 9 -37 0 -43 8 -23 29 11 11 11 14 0 18 -18 7 -15 23 6 24 13 0 12 2 -5 9
-13 5 -23 15 -23 21 0 7 -12 10 -30 7 -24 -4 -27 -2 -19 9 12 14 7 16 -30 13
-14 -1 -21 2 -17 8 4 7 -5 10 -23 10 -16 -1 -44 5 -61 12 -24 10 -34 10 -39 1
-4 -6 -28 -12 -54 -13 -46 -2 -47 -3 -47 -35 0 -20 9 -42 25 -59 28 -30 33
-69 10 -78 -8 -3 -15 -1 -15 4 0 6 -4 10 -10 10 -7 0 -10 -183 -9 -532 1 -293
3 -526 6 -517 5 21 43 33 43 14 0 -7 -4 -15 -9 -17 -5 -1 -3 -9 5 -16 12 -11
14 -7 14 28 0 22 5 40 10 40 6 0 10 -11 10 -25 0 -18 4 -23 15 -19 8 4 15 2
15 -4 0 -6 14 -13 31 -17 17 -4 33 -14 36 -22 4 -11 8 -11 13 -3 6 9 13 9 30
0 26 -14 24 -17 -15 -23 -60 -8 -34 -46 31 -47 20 0 34 -17 34 -41 0 -5 -10
-9 -22 -10 -13 0 -18 -3 -12 -5 7 -3 10 -14 7 -24 -5 -17 0 -20 27 -20 29 0
32 -3 28 -25 -3 -16 -1 -25 7 -25 7 0 17 -10 23 -22 l12 -23 -3 25 c-2 23 1
25 38 23 22 -1 45 -3 50 -4 6 -1 22 2 38 6 25 7 27 5 28 -21 2 -25 2 -26 6 -6
4 20 9 22 36 17 29 -5 30 -5 14 9 -13 10 -15 15 -5 19 9 3 8 9 -6 20 -19 14
-19 15 6 15 21 0 28 -7 37 -37 26 -89 102 -166 187 -191 28 -8 562 -10 1977
-8 l1938 3 -90 63 c-50 34 -91 67 -91 71 0 5 -9 11 -20 14 -29 8 -25 27 20 95
30 45 50 64 75 72 19 6 35 15 35 18 0 13 129 44 155 38 14 -4 47 0 73 7 26 8
54 12 62 10 13 -4 13 -3 0 6 -20 14 -46 14 -70 -1 -26 -17 -37 -2 -16 21 17
18 16 19 -11 24 -15 3 -59 9 -98 12 -76 8 -98 16 -133 50 -21 21 -61 122 -62
155 0 8 -20 33 -45 56 -50 45 -59 85 -26 106 19 12 19 12 -2 23 -17 9 -22 20
-23 55 0 25 -6 58 -12 73 -7 16 -12 53 -12 82 0 35 -5 57 -13 62 -8 4 -24 52
-36 106 -13 54 -31 117 -41 140 -9 23 -20 57 -24 75 -5 32 -5 33 28 30 19 -1
41 4 49 11 22 17 29 76 19 149 -8 58 -7 62 11 62 15 0 18 5 14 21 -5 20 -3 20
116 14 142 -7 218 -20 268 -45 39 -20 69 -50 50 -50 -6 0 -11 -7 -11 -15 0 -8
-6 -15 -13 -15 -6 0 -19 -15 -27 -32 -14 -33 -21 -44 -50 -76 -20 -23 -19
-161 3 -227 9 -27 26 -111 37 -185 17 -110 36 -178 100 -366 44 -128 80 -234
80 -237 0 -3 -17 4 -37 14 -21 10 -42 19 -48 19 -6 0 -28 9 -50 20 -40 20
-103 25 -140 11 -19 -7 -18 -9 5 -21 25 -14 138 -31 197 -30 50 0 78 -45 103
-169 29 -139 25 -152 -62 -244 -23 -23 -31 -26 -47 -17 -25 13 -34 13 -26 0 3
-6 -3 -10 -14 -10 -11 0 -23 5 -26 10 -4 6 -28 20 -53 32 -69 31 -69 31 -45
10 13 -11 25 -37 29 -61 l7 -41 941 2 c1062 3 966 -4 1050 84 82 85 76 -43 76
1664 0 1663 3 1573 -59 1651 -17 21 -27 40 -21 44 5 3 14 -4 20 -15 6 -11 16
-20 23 -20 7 0 25 -11 41 -25 16 -14 32 -25 36 -25 4 0 13 -11 20 -25 7 -13
21 -27 31 -30 10 -4 18 -9 18 -13 -3 -17 2 -35 7 -29 3 3 14 -2 24 -11 35 -32
49 -42 57 -41 24 4 53 -2 53 -12 0 -6 -7 -9 -15 -6 -8 4 -17 2 -21 -4 -4 -6
-11 -6 -20 2 -9 8 -14 8 -14 1 0 -7 -28 -12 -67 -14 l-68 -3 -3 -269 c-1 -173
1 -273 8 -280 7 -7 10 -4 10 9 0 19 7 20 190 17 244 -4 246 -21 2 -23 -182 -2
-166 -16 21 -18 100 -1 105 -8 51 -58 l-36 -33 23 -9 c24 -10 24 -10 -4 -10
-19 -1 -40 -13 -63 -36 -33 -35 -44 -52 -24 -40 6 3 10 0 10 -8 0 -20 -12 -28
-25 -17 -14 11 -65 -33 -65 -56 0 -7 -5 -14 -12 -16 -6 -2 -12 -13 -13 -24 -1
-10 -5 -30 -9 -44 -5 -17 -4 -21 2 -11 7 9 15 10 27 4 15 -9 14 -12 -11 -33
-26 -20 -26 -22 -7 -18 12 3 24 1 25 -4 5 -15 48 0 48 17 0 14 27 28 40 20 4
-2 10 -14 13 -26 5 -18 2 -20 -17 -15 -13 3 -31 -1 -42 -9 -10 -7 -28 -12 -39
-9 -27 6 -56 -53 -34 -67 8 -5 19 -9 26 -9 7 0 10 -7 7 -15 -4 -8 -10 -12 -16
-9 -15 10 -55 -5 -62 -22 -10 -26 11 -44 39 -34 14 5 27 6 30 0 6 -9 -21 -20
-61 -25 -28 -3 -54 -22 -54 -41 0 -21 31 -45 51 -39 10 3 30 -2 44 -11 23 -15
24 -18 10 -34 -8 -9 -15 -24 -15 -33 0 -20 36 -40 60 -34 13 3 19 -2 23 -19 5
-27 0 -34 -24 -34 -9 0 -26 -16 -38 -35 -11 -19 -17 -35 -12 -35 14 0 20 -50
7 -58 -6 -4 -17 -19 -23 -34 l-12 -26 49 2 c42 2 51 0 56 -16 4 -14 -1 -25
-16 -35 -14 -10 -20 -22 -17 -34 4 -17 -1 -19 -39 -19 -56 0 -58 -20 -1 -21
32 -1 36 -3 17 -8 -14 -3 -26 -13 -27 -21 -6 -62 -16 -89 -31 -93 -9 -3 1 -6
23 -7 30 -1 35 -3 21 -9 -14 -5 -16 -10 -8 -15 7 -4 10 -11 7 -15 -2 -5 5 -17
17 -27 12 -11 18 -13 13 -5 -5 10 -4 12 3 7 7 -4 12 -18 12 -32 0 -18 -6 -24
-22 -25 -18 0 -19 -2 -7 -7 14 -6 14 -11 2 -40 -7 -17 -18 -32 -23 -32 -6 0
-10 -5 -10 -11 0 -5 4 -8 8 -5 4 2 14 1 21 -4 22 -13 2 -31 -27 -25 -26 5 -26
5 -4 -6 25 -14 31 -45 6 -35 -23 9 -44 -18 -44 -58 0 -20 -5 -36 -11 -36 -5 0
-8 4 -4 9 3 5 1 12 -5 16 -5 3 -10 0 -10 -9 0 -8 -6 -17 -12 -19 -7 -3 -1 -6
15 -6 27 -1 27 -2 25 -63 l-2 -63 -3 58 c-5 66 -23 78 -24 15 0 -24 -2 -51 -4
-60 -2 -10 0 -18 3 -18 4 0 6 -59 6 -130 -1 -114 1 -130 15 -130 13 0 15 -10
12 -62 l-4 -63 -13 50 -12 50 -2 -70 c-2 -125 -5 -150 -15 -157 -6 -5 -6 -8 2
-8 6 0 10 -8 8 -17 -2 -10 -4 -37 -4 -60 -1 -34 -5 -43 -23 -50 -27 -9 108
-20 275 -22 95 -1 107 -3 107 -18 0 -10 3 -28 6 -40 l6 -23 -198 -1 c-110 0
-208 -4 -219 -9 -17 -7 -17 -9 -2 -9 9 -1 20 -1 23 0 4 0 10 -3 13 -8 3 -4 27
-18 54 -31 26 -13 47 -28 47 -33 0 -5 12 -7 28 -3 21 4 24 3 12 -5 -12 -9 -4
-11 35 -10 50 0 146 -10 154 -17 2 -2 -53 -4 -123 -4 -116 0 -128 2 -122 17 6
16 5 16 -11 1 -10 -9 -29 -18 -43 -21 -14 -2 58 -5 160 -6 206 -1 230 -5 230
-32 0 -18 -11 -19 -157 -21 l-158 -2 170 -5 c162 -6 172 -7 219 -33 27 -16 50
-28 53 -28 12 0 -3 94 -16 98 -8 3 -11 0 -7 -6 4 -6 -2 -8 -14 -5 -11 3 -34 0
-51 -6 -26 -9 -29 -9 -20 3 9 11 9 15 -1 19 -14 6 13 10 72 11 l35 1 3 234 c2
193 0 232 -11 228 -8 -3 -20 -1 -28 4 -10 6 -6 9 14 9 l27 0 0 936 0 936 -30
-4 c-16 -3 -32 0 -34 6 -2 6 -5 3 -5 -7 -1 -12 -5 -16 -13 -11 -9 5 -9 2 1 -9
15 -19 5 -22 -34 -7 -31 12 -28 36 3 32 20 -3 27 7 23 32 -1 5 5 4 13 -4 9 -7
16 -10 16 -7 0 3 13 2 30 -3 l30 -9 0 289 c0 269 -1 288 -17 285 -10 -2 -21
-4 -25 -4 -5 -1 -8 -7 -8 -15 0 -8 -3 -17 -8 -19 -4 -3 -7 20 -6 51 1 99 5
138 12 122 4 -9 13 -15 20 -14 6 1 17 2 22 3 7 1 9 80 8 229 l-3 227 -52 0
c-37 -1 -53 3 -53 12 0 7 -4 13 -10 13 -5 0 -10 -4 -10 -10 0 -5 -4 -10 -10
-10 -5 0 -10 9 -10 20 0 12 -9 22 -23 26 -19 4 -23 11 -19 30 3 17 0 24 -12
24 -9 0 -16 5 -16 10 0 6 4 10 9 10 5 0 7 9 4 21 -4 12 3 32 16 49 11 16 21
32 21 35 0 4 7 13 15 21 8 9 15 12 15 8 0 -3 6 -2 13 3 21 17 62 23 95 13 l32
-9 0 75 0 74 -520 0 -521 0 5 -37 c3 -21 5 -41 5 -45 1 -4 10 -5 21 -3 11 2
18 0 15 -6 -10 -15 12 -10 30 7 9 9 19 14 22 11 3 -3 -3 -14 -13 -24 -16 -17
-51 -18 -490 -21 l-473 -4 -4 64 -3 63 -2 -66 -2 -65 -41 -23 c-57 -32 -98
-34 -105 -4 -7 25 -32 30 -53 11 -11 -11 -13 -10 -7 0 5 7 -1 15 -15 20 -19 7
-20 10 -6 15 24 9 10 36 -14 30 -14 -4 -17 -8 -9 -13 9 -6 9 -13 2 -26 -10
-17 -12 -15 -18 14 -4 20 -10 29 -14 22 -5 -8 -9 -4 -13 10 -3 12 -10 19 -16
16 -5 -4 -13 -1 -16 5 -4 5 -13 8 -21 5 -15 -6 -7 24 10 37 7 5 4 6 -7 3 -10
-3 -23 -6 -28 -6 -6 0 -8 -13 -5 -30 2 -16 1 -32 -4 -35 -5 -3 -11 13 -15 35
l-7 40 -473 0 c-510 0 -485 3 -485 -50 0 -21 -31 -34 -60 -25 -13 4 -20 15
-20 33 -1 26 -1 26 -18 -8 -11 -23 -25 -36 -41 -38 -28 -4 -40 11 -42 53 -1
29 -2 28 -13 -10 -11 -35 -17 -40 -42 -40 -24 0 -31 6 -41 35 -11 32 -12 33
-12 8 -1 -32 -28 -61 -48 -54 -8 3 -18 6 -23 6 -4 0 -11 19 -15 43 -5 26 -9
35 -12 22 -2 -11 -6 -30 -8 -41 -5 -22 -37 -37 -60 -28 -7 3 -16 22 -20 42 -8
38 -9 37 -19 -10 -5 -23 -12 -28 -37 -28 -16 0 -31 6 -33 13 -3 6 -8 26 -12
42 l-8 30 -4 -34 c-4 -42 -26 -61 -61 -51 -20 5 -27 15 -32 41 l-5 34 -10 -35
c-8 -29 -15 -36 -41 -38 -32 -3 -41 11 -44 68 -1 18 -5 12 -13 -20 -11 -40
-15 -45 -43 -48 -30 -3 -32 -1 -39 34 l-7 37 -11 -34 c-9 -28 -17 -35 -43 -37
-30 -3 -32 -1 -38 35 -10 57 -13 62 -14 22 -2 -68 -65 -82 -86 -19 l-13 35 -3
-35 c-4 -33 -6 -35 -39 -35 -30 0 -35 4 -38 25 -6 49 -16 56 -21 15 -6 -38 -8
-40 -41 -40 -31 0 -35 3 -38 28 -2 15 -7 27 -12 27 -5 0 -10 -12 -12 -27 -3
-25 -7 -28 -38 -28 -34 0 -35 1 -41 45 -4 38 -6 41 -12 20 -3 -14 -8 -34 -9
-45 -2 -14 -12 -21 -35 -23 -28 -3 -33 0 -39 25 -10 48 -11 49 -21 13 -17 -64
-82 -50 -84 19 l-1 36 -11 -40 c-16 -56 -23 -63 -51 -58 -18 4 -27 15 -34 42
-6 22 -10 28 -11 15 -1 -30 -32 -60 -58 -56 -17 3 -24 12 -28 40 -9 54 -13 61
-14 26 -2 -71 -64 -88 -87 -24 -9 26 -13 29 -13 13 -2 -41 -12 -53 -47 -53
-31 0 -34 3 -34 29 0 16 -3 38 -8 48 -5 13 -8 6 -12 -27 -5 -44 -6 -45 -40
-45 -32 0 -35 3 -38 33 -2 17 -7 32 -12 32 -5 0 -10 -15 -12 -32 -3 -28 -7
-34 -32 -36 -33 -4 -46 10 -46 51 0 16 -4 26 -10 22 -5 -3 -10 -22 -10 -41 0
-35 -1 -35 -37 -32 -32 2 -39 7 -41 28 -5 33 -22 51 -22 23 0 -36 -11 -53 -35
-53 -28 0 -42 16 -47 55 l-4 30 -8 -30 c-4 -16 -9 -36 -12 -42 -4 -16 -46 -17
-62 -1 -7 7 -12 23 -13 38 0 22 -2 21 -13 -10 -23 -63 -85 -50 -87 19 l-1 36
-10 -43 c-16 -71 -67 -76 -87 -8 -8 28 -9 29 -10 6 -2 -38 -15 -52 -47 -48
-24 3 -30 9 -40 48 l-12 45 -1 -35 c-2 -48 -13 -62 -46 -58 -22 2 -31 11 -41
38 -11 32 -13 33 -13 9 -1 -35 -24 -53 -56 -45 -20 5 -25 13 -25 36 0 17 -4
30 -10 30 -5 0 -10 -10 -10 -23 0 -31 -18 -47 -52 -47 -25 0 -28 3 -28 35 0
19 -4 35 -10 35 -5 0 -10 -13 -10 -30 0 -23 -5 -31 -25 -36 -35 -9 -55 11 -55
55 0 27 -3 32 -10 21 -5 -8 -10 -27 -10 -41 0 -47 -66 -56 -76 -11 -10 47 -11
48 -21 12 -17 -64 -82 -50 -84 19 l-1 36 -11 -45 c-10 -36 -17 -46 -36 -48
-29 -5 -41 7 -51 50 l-8 33 -1 -31 c-1 -37 -21 -57 -52 -52 -16 2 -26 14 -35
43 -12 40 -12 40 -13 9 -2 -64 -71 -73 -86 -12 l-9 33 -3 -32 c-3 -23 -11 -34
-31 -41 -40 -14 -52 -5 -52 39 0 21 -4 39 -10 39 -5 0 -10 -19 -10 -42 0 -24
-7 -56 -15 -72 -8 -15 -15 -36 -15 -46 0 -18 -19 -30 -46 -30 -11 0 -14 20
-14 100 l0 100 -120 0 -120 0 0 -485z m5155 375 c3 -5 1 -10 -4 -10 -6 0 -11
5 -11 10 0 6 2 10 4 10 3 0 8 -4 11 -10z m135 -39 c0 -5 -7 -11 -15 -15 -15
-5 -20 5 -8 17 9 10 23 9 23 -2z m-260 -151 c0 -5 -8 -10 -17 -10 -15 0 -16 2
-3 10 19 12 20 12 20 0z m396 -17 c-7 -7 -26 7 -26 19 0 6 6 6 15 -2 9 -7 13
-15 11 -17z m87 0 c-7 -2 -21 -2 -30 0 -10 3 -4 5 12 5 17 0 24 -2 18 -5z
m-4941 -212 c7 11 8 9 4 -4 -3 -10 -6 -133 -6 -273 l0 -254 -52 2 -53 1 45 7
c27 4 -35 8 -152 8 -210 2 -224 6 -178 47 15 14 20 15 21 4 0 -8 4 -6 9 6 5
11 9 15 9 9 1 -6 16 -11 34 -12 74 -4 94 -4 126 1 31 4 35 8 38 38 2 19 6 41
9 49 4 8 7 30 9 48 1 19 6 37 11 40 9 7 13 28 17 84 1 15 8 33 15 40 6 6 12
20 12 30 0 10 7 30 16 43 16 24 16 25 -8 25 -24 0 -25 1 -19 52 1 10 75 14 80
4 2 -4 8 -2 13 5z m-232 -10 c1 10 4 9 14 -3 7 -10 16 -15 19 -11 4 3 7 0 7
-8 1 -8 7 -3 14 10 13 24 14 24 25 3 6 -11 11 -24 11 -29 0 -14 -71 -8 -80 7
-8 13 -10 12 -10 -2 0 -17 -20 -27 -20 -10 0 4 -3 18 -7 32 -6 22 -5 24 10 11
14 -11 17 -11 17 0z m122 -16 c-2 -14 -8 -25 -12 -25 -4 0 -10 11 -12 25 -4
19 -1 25 12 25 13 0 16 -6 12 -25z m6788 -155 c0 -5 -4 -10 -10 -10 -5 0 -10
5 -10 10 0 6 5 10 10 10 6 0 10 -4 10 -10z m5 -40 c18 -20 17 -20 -163 -20
-100 0 -182 2 -182 4 0 2 -3 11 -6 20 -5 14 13 16 163 16 157 0 171 -1 188
-20z m-9 -71 c-3 -15 -1 -31 4 -34 6 -3 10 -14 10 -24 0 -16 -16 -17 -169 -20
-166 -2 -170 -1 -185 21 -9 12 -16 26 -16 30 0 5 77 8 170 8 l170 0 0 31 c0
19 4 28 11 23 6 -3 9 -19 5 -35z m119 12 c3 -5 1 -12 -5 -16 -5 -3 -10 -1 -10
5 0 6 -4 8 -10 5 -5 -3 -10 -1 -10 4 0 13 27 14 35 2z m-116 -133 c-1 -18 2
-43 6 -55 l7 -22 -178 3 c-172 3 -178 3 -187 24 -6 12 -7 25 -3 29 3 4 80 6
171 5 l165 -2 0 25 c0 14 4 25 10 25 5 0 9 -15 9 -32z m18 -20 c-3 -8 -6 -5
-6 6 -1 11 2 17 5 13 3 -3 4 -12 1 -19z m-3467 -50 c0 -7 12 -21 26 -33 30
-24 40 -79 29 -152 l-8 -48 -12 45 c-10 42 -12 43 -19 20 -4 -14 -7 -37 -6
-51 2 -38 -17 -49 -70 -39 -25 5 -72 9 -105 10 -33 0 -74 4 -91 9 -21 6 -48 4
-80 -4 -27 -7 -84 -14 -126 -16 -63 -4 -79 -1 -83 11 -7 16 31 53 45 45 5 -3
11 -1 15 4 6 10 48 17 147 25 52 4 62 8 95 44 23 24 54 44 76 50 24 7 51 26
74 51 26 30 43 41 64 41 16 0 29 -5 29 -12z m3424 -65 c-17 -12 -16 -13 4 -13
12 0 22 -4 22 -9 0 -5 3 -16 6 -25 5 -14 -15 -15 -174 -15 -176 1 -180 1 -186
22 -13 48 -15 47 164 47 169 0 170 0 171 23 1 19 2 20 6 3 3 -12 -2 -25 -13
-33z m-6917 20 c-20 -2 -52 -2 -70 0 -17 2 0 4 38 4 39 0 53 -2 32 -4z m101 0
c-10 -2 -26 -2 -35 0 -10 3 -2 5 17 5 19 0 27 -2 18 -5z m161 -188 c0 -85 -4
-156 -7 -158 -4 -2 -47 -1 -97 3 -85 6 -87 7 -30 10 l60 3 -75 8 c-85 10 -74
10 -197 3 l-93 -5 0 105 0 106 80 0 c73 0 80 -2 80 -20 0 -26 36 -46 56 -29 8
6 14 20 14 30 0 17 9 19 88 20 156 2 39 17 -145 18 -170 1 -172 1 -176 24 -2
12 -6 -39 -7 -113 -3 -119 -4 -127 -10 -70 -4 36 -8 100 -9 143 l-1 77 235 0
236 0 -2 -155z m-219 50 c0 -16 -35 -21 -44 -6 -8 12 4 21 26 21 10 0 18 -7
18 -15z m6870 -15 c0 -5 -4 -10 -10 -10 -5 0 -10 5 -10 10 0 6 5 10 10 10 6 0
10 -4 10 -10z m74 -25 c3 -9 13 -15 22 -13 18 3 27 -22 14 -42 -10 -16 -50 17
-50 41 0 10 -6 20 -12 22 -8 4 -7 6 3 6 9 1 20 -6 23 -14z m-3318 -20 c58 5
75 4 78 -7 3 -7 7 -165 9 -350 l4 -338 -43 0 c-44 0 -58 -12 -28 -24 9 -3 25
-6 36 -6 44 0 98 -23 98 -42 0 -24 -16 -23 -70 8 -40 23 -42 23 -25 4 11 -12
35 -28 55 -36 30 -13 33 -17 18 -25 -26 -14 -39 -76 -31 -148 7 -75 25 -98 83
-107 34 -6 42 -12 58 -48 40 -88 63 -155 73 -212 27 -156 26 -153 12 -158 -8
-4 -13 -23 -13 -55 0 -64 -39 -110 -54 -63 -10 29 -72 64 -123 68 -53 4 -49 1
15 -16 24 -6 46 -18 49 -28 3 -9 19 -29 36 -43 l31 -27 -13 -53 c-14 -60 -4
-144 24 -198 9 -18 15 -56 15 -94 0 -50 -4 -68 -21 -86 -23 -24 -15 -45 22
-56 22 -7 26 -57 6 -92 l-13 -23 -52 35 c-29 20 -52 40 -52 46 0 5 -19 18 -42
29 -46 20 -98 63 -98 79 0 5 -12 19 -27 31 l-28 22 35 -6 c19 -4 63 -16 97
-27 64 -20 102 -25 89 -12 -4 5 -24 13 -44 18 -32 9 -37 15 -40 43 -2 19 1 32
8 32 6 0 8 5 5 10 -10 16 -25 1 -25 -26 0 -21 -4 -24 -25 -19 -14 3 -37 8 -52
11 -37 7 -83 27 -83 36 0 3 -26 10 -57 14 -76 9 -104 27 -97 62 2 15 -1 34 -8
42 -26 31 -134 116 -163 129 -28 12 -31 11 -56 -18 -29 -36 -39 -39 -39 -12 0
23 -50 56 -100 66 -19 4 -48 15 -65 23 -50 27 -95 40 -116 35 -11 -3 -27 1
-37 9 -9 8 -37 25 -62 37 -25 11 -61 34 -80 50 l-34 29 39 11 c59 16 84 14
144 -14 30 -14 56 -24 58 -21 2 2 -21 16 -53 30 -58 27 -157 36 -169 16 -12
-20 -44 -9 -113 41 -60 44 -70 55 -62 70 20 36 11 59 -36 92 -49 34 -79 46
-106 39 -9 -2 -51 -54 -94 -115 -43 -62 -104 -145 -136 -186 -58 -74 -66 -102
-34 -123 17 -12 23 -10 58 20 64 53 69 57 62 38 -4 -10 1 -25 12 -37 17 -19
17 -20 -4 -35 -13 -9 -22 -26 -22 -40 0 -25 -3 -26 -77 -54 -32 -12 -46 -33
-20 -29 44 6 57 -1 57 -31 0 -23 -7 -35 -32 -50 -45 -27 -64 -25 -90 10 -12
16 -29 32 -38 35 -19 6 -146 -31 -174 -51 -11 -7 -31 -11 -48 -7 -19 4 -35 0
-47 -11 -26 -23 -63 -12 -79 24 -9 19 -23 31 -43 35 -16 4 -29 12 -29 18 0 6
17 31 38 56 103 125 245 325 285 403 25 48 40 85 34 81 -7 -4 -8 0 -2 13 22
53 18 68 -26 89 -36 17 -44 27 -59 74 -20 59 -32 71 -72 71 -18 0 -29 7 -33
22 -9 28 -8 95 2 110 4 7 7 22 8 33 0 12 12 25 29 34 61 29 237 -23 329 -97
31 -25 43 -29 65 -22 58 17 99 39 136 74 22 20 49 36 62 36 53 0 318 90 344
117 13 13 11 13 -17 -1 -46 -23 -76 -21 -68 4 6 19 2 20 -98 20 l-105 0 -7
105 c-7 105 -7 105 -33 105 -25 0 -26 1 -7 14 11 7 32 16 48 20 15 3 36 15 47
26 11 11 23 20 26 20 3 0 29 11 57 24 29 13 64 26 79 30 26 6 26 6 43 -92 10
-53 23 -126 29 -161 12 -66 30 -89 60 -78 14 5 16 28 18 159 2 84 2 185 0 223
-2 50 0 66 8 55 5 -8 10 -22 10 -31 0 -9 9 -27 19 -40 10 -14 30 -55 42 -92
13 -37 29 -67 35 -67 16 0 24 -24 24 -66 0 -19 6 -49 14 -67 19 -45 81 -104
116 -112 27 -6 47 -21 39 -30 -7 -6 -84 24 -87 35 -8 23 -30 8 -47 -32 -25
-58 -25 -58 17 -73 21 -7 35 -9 32 -4 -11 18 23 8 41 -11 13 -15 21 -17 31 -9
8 7 38 8 83 3 l71 -7 42 46 c24 25 56 49 72 53 27 7 57 34 95 87 22 31 29 81
19 142 -5 32 -5 61 -1 64 4 3 9 32 10 63 1 32 9 70 17 85 38 70 59 124 73 191
15 77 12 115 -9 94 -17 -17 -31 -15 -24 3 3 8 1 15 -4 15 -6 0 -10 8 -10 18 1
16 2 15 11 -2 10 -16 19 -17 85 -11z m3294 -16 c0 -5 -7 -9 -15 -9 -9 0 -12 6
-9 15 6 15 24 11 24 -6z m-2999 -10 c19 -7 41 -18 50 -25 8 -8 23 -14 32 -14
9 0 17 -4 17 -10 0 -5 18 -15 39 -21 l40 -12 -6 -98 -6 -99 60 0 c41 0 64 -5
73 -15 7 -8 16 -13 20 -10 10 6 60 -15 60 -26 0 -4 13 -10 28 -14 27 -6 48
-20 111 -72 14 -13 29 -23 32 -23 9 0 43 -209 35 -217 -4 -4 -69 -7 -144 -8
l-137 0 -7 90 c-5 50 -10 96 -13 103 -3 9 -21 12 -57 10 l-53 -3 -8 -80 c-15
-140 5 -125 -166 -125 l-148 0 14 88 c7 48 24 170 38 272 34 252 45 320 54
320 5 0 23 -5 42 -11z m3027 -27 c3 -17 -2 -22 -21 -22 -33 0 -38 8 -19 31 20
23 36 20 40 -9z m-3453 -42 c3 -6 -3 -22 -14 -36 -12 -15 -21 -33 -21 -40 0
-19 -38 -43 -60 -37 -17 5 -16 8 8 44 15 21 35 38 45 39 10 0 17 8 17 20 0 21
15 27 25 10z m3355 -30 c0 -12 -8 -12 -35 0 -18 8 -17 9 8 9 15 1 27 -3 27 -9z
m-3666 -53 c9 -30 25 -65 36 -79 l20 -26 -23 -6 c-33 -9 -95 -7 -101 3 -3 5 1
22 10 39 8 17 17 48 19 69 4 54 4 53 14 53 5 0 17 -24 25 -53z m1123 -10 c12
-12 10 -17 -15 -38 -15 -14 -27 -30 -24 -37 2 -7 -3 -12 -12 -12 -9 0 -16 -4
-16 -10 0 -5 -6 -10 -14 -10 -14 0 -20 21 -32 118 l-7 52 53 -24 c29 -14 59
-31 67 -39z m2473 29 c-8 -8 -13 -7 -20 4 -12 20 -1 33 16 19 11 -9 12 -15 4
-23z m119 -25 c-15 -5 -22 6 -14 19 6 9 10 9 16 -1 5 -8 4 -15 -2 -18z m-64
-1 c3 -5 -1 -10 -9 -10 -9 0 -16 5 -16 10 0 6 4 10 9 10 6 0 13 -4 16 -10z
m-7046 -93 c1 -30 -3 -46 -9 -42 -5 3 -10 36 -9 73 1 77 16 51 18 -31z m2880
-1 c1 -29 -2 -36 -11 -29 -7 6 -25 13 -39 17 -26 6 -42 35 -30 53 3 6 20 14
36 20 35 12 43 1 44 -61z m645 50 c28 -25 34 -56 12 -56 -12 0 -76 63 -76 75
0 14 42 2 64 -19z m3331 5 c-3 -6 -14 -11 -23 -11 -15 1 -15 2 2 15 21 16 32
13 21 -4z m109 4 c-10 -8 -23 -14 -29 -14 -5 0 -1 6 9 14 11 8 24 15 30 15 5
0 1 -7 -10 -15z m203 -19 c-2 -6 -12 -12 -23 -14 -15 -2 -16 -1 -5 6 7 6 11
15 7 21 -5 7 -1 9 9 5 9 -4 14 -12 12 -18z m-221 -70 c12 -13 6 -15 -48 -14
l-63 2 40 12 c53 16 54 16 71 0z m131 -16 c-1 -11 -5 -20 -9 -20 -3 0 -6 9 -5
20 1 11 5 20 9 20 3 0 6 -9 5 -20z m-7160 -16 c-3 -3 -12 -4 -19 -1 -8 3 -5 6
6 6 11 1 17 -2 13 -5z m3597 -15 c28 -13 43 -39 22 -39 -7 0 -19 7 -26 15 -7
8 -18 15 -26 15 -7 0 -16 5 -19 10 -8 13 18 13 49 -1z m3673 -11 c-3 -8 -6 -5
-6 6 -1 11 2 17 5 13 3 -3 4 -12 1 -19z m-82 -136 c-8 -9 -25 20 -18 31 3 5
10 2 15 -7 6 -10 7 -20 3 -24z m70 8 c-3 -5 -13 -10 -21 -10 -8 0 -12 5 -9 10
3 6 13 10 21 10 8 0 12 -4 9 -10z m-48 -32 c2 -17 0 -19 -7 -8 -5 8 -6 18 -4
22 8 12 10 10 11 -14z m-4622 -125 l-6 -43 -77 0 c-42 0 -108 3 -145 7 l-68 6
38 35 c65 62 103 82 176 98 39 8 73 17 76 20 9 9 13 -77 6 -123z m965 111 c0
-2 -11 -4 -25 -4 -14 0 -25 4 -25 9 0 4 11 6 25 3 14 -2 25 -6 25 -8z m3610 2
c0 -3 -4 -8 -10 -11 -5 -3 -10 -1 -10 4 0 6 5 11 10 11 6 0 10 -2 10 -4z m60
-77 c0 -5 -4 -9 -10 -9 -5 0 -10 7 -10 16 0 8 5 12 10 9 6 -3 10 -10 10 -16z
m-63 -121 c-3 -8 -6 -5 -6 6 -1 11 2 17 5 13 3 -3 4 -12 1 -19z m-187 -24 c0
-8 -4 -12 -10 -9 -5 3 -10 10 -10 16 0 5 5 9 10 9 6 0 10 -7 10 -16z m-2693
-80 c-3 -3 -12 -4 -19 -1 -8 3 -5 6 6 6 11 1 17 -2 13 -5z m-4200 -110 c-3 -3
-12 -4 -19 -1 -8 3 -5 6 6 6 11 1 17 -2 13 -5z m20 -50 c-3 -3 -12 -4 -19 -1
-8 3 -5 6 6 6 11 1 17 -2 13 -5z m158 -3 c-6 -5 -23 -12 -40 -16 -29 -6 -29
-6 -11 9 21 17 67 23 51 7z m-95 -42 c0 -5 -7 -9 -15 -9 -15 0 -20 12 -9 23 8
8 24 -1 24 -14z m-40 -9 c0 -5 -8 -10 -17 -10 -15 0 -16 2 -3 10 19 12 20 12
20 0z m6830 -305 c0 -8 -4 -15 -10 -15 -5 0 -7 7 -4 15 4 8 8 15 10 15 2 0 4
-7 4 -15z m-4165 -77 c35 -23 44 -38 24 -38 -18 0 -88 -54 -95 -72 -11 -34
-24 -18 -24 29 0 39 5 53 28 75 15 15 28 27 30 27 1 1 18 -9 37 -21z m-2275
-23 c0 -8 -4 -15 -9 -15 -13 0 -22 16 -14 24 11 11 23 6 23 -9z m2491 -131
c73 -52 142 -104 153 -114 15 -15 18 -35 20 -119 l1 -101 -48 0 c-34 0 -46 3
-41 12 5 8 2 9 -10 5 -24 -10 -40 1 -26 18 9 10 5 24 -15 55 -15 23 -28 40
-30 38 -2 -1 1 -27 7 -57 10 -56 6 -70 -14 -55 -7 6 -46 9 -85 9 -40 -1 -73 2
-73 7 0 14 -43 9 -62 -9 -23 -20 -33 -12 -19 15 6 12 11 28 11 38 0 16 -1 16
-18 1 -10 -10 -22 -17 -25 -17 -4 0 -6 46 -6 103 1 56 3 94 6 85 2 -10 7 -18
10 -18 17 0 93 140 93 170 0 19 9 30 25 30 6 0 72 -43 146 -96z m-2491 66 c0
-5 -4 -10 -10 -10 -5 0 -10 5 -10 10 0 6 5 10 10 10 6 0 10 -4 10 -10z m6437
-52 c-3 -8 -6 -5 -6 6 -1 11 2 17 5 13 3 -3 4 -12 1 -19z m-4181 -34 c-3 -9
-6 -23 -7 -32 0 -12 -3 -10 -10 6 -10 25 -5 42 13 42 5 0 7 -7 4 -16z m4272
-41 c-10 -2 -28 -2 -40 0 -13 2 -5 4 17 4 22 1 32 -1 23 -4z m44 -40 c-5 -76
-10 -83 -11 -15 0 34 2 62 7 62 4 0 6 -21 4 -47z m-265 -105 c-3 -8 -6 -5 -6
6 -1 11 2 17 5 13 3 -3 4 -12 1 -19z m0 -80 c-2 -13 -4 -3 -4 22 0 25 2 35 4
23 2 -13 2 -33 0 -45z m-4522 0 c36 -16 32 -44 -7 -52 -29 -6 -31 -8 -15 -17
11 -6 61 -15 112 -19 51 -4 101 -13 112 -18 11 -6 48 -11 83 -11 56 1 66 4 92
30 16 16 31 29 34 29 2 0 4 -15 4 -34 0 -33 2 -35 45 -42 25 -3 45 -9 45 -13
0 -4 -13 -17 -28 -28 -18 -13 -44 -56 -72 -117 -30 -65 -49 -96 -60 -96 -9 0
-31 16 -48 35 -36 39 -92 58 -152 51 -22 -3 -40 -1 -40 4 0 5 -6 7 -14 4 -8
-3 -17 0 -21 6 -8 14 -35 -6 -35 -26 0 -7 -4 -16 -10 -19 -6 -4 -7 11 -3 42 3
26 7 55 7 63 1 8 4 17 7 20 4 3 14 22 22 42 l16 37 -37 -24 c-20 -13 -59 -58
-87 -99 -27 -41 -51 -73 -53 -71 -2 2 1 12 7 23 18 34 13 39 -41 35 -57 -5
-109 3 -255 38 -75 18 -91 25 -82 36 6 7 19 13 28 13 9 1 27 7 41 15 25 14 24
14 -18 15 -23 0 -53 -6 -65 -14 -29 -19 -69 -24 -74 -10 -2 6 5 21 15 34 20
24 57 28 162 15 47 -5 60 -3 90 17 l35 22 -119 8 c-66 4 -122 10 -125 13 -3 3
2 18 11 33 22 36 72 41 124 11 72 -40 153 -33 341 30 1 1 14 -4 28 -11z m525
-40 c0 -18 -12 -33 -32 -41 -15 -5 -15 -4 0 24 18 30 32 38 32 17z m4002 -35
c-5 -76 -10 -83 -11 -15 0 34 2 62 7 62 4 0 6 -21 4 -47z m-3608 -18 c6 -11
15 -23 20 -26 5 -4 -1 -17 -12 -29 -12 -13 -24 -36 -28 -52 -5 -27 -9 -30 -36
-24 -17 3 -40 6 -52 6 -30 0 -65 73 -48 101 17 27 16 29 -20 31 -49 2 54 14
116 14 38 -1 51 -5 60 -21z m-3095 -119 c-10 -8 -89 -13 -83 -5 3 5 24 9 46 9
23 0 39 -2 37 -4z m7091 -25 c-58 -18 -80 -21 -80 -12 0 9 36 17 85 19 15 0
13 -2 -5 -7z m-4900 -16 c0 -8 -7 -15 -15 -15 -8 0 -15 7 -15 15 0 8 7 15 15
15 8 0 15 -7 15 -15z m70 -69 c0 -3 -4 -8 -10 -11 -5 -3 -10 -1 -10 4 0 6 5
11 10 11 6 0 10 -2 10 -4z m4858 -3 c-10 -2 -28 -2 -40 0 -13 2 -5 4 17 4 22
1 32 -1 23 -4z m-5 -30 c76 -16 78 -17 72 -42 -4 -14 -7 -26 -8 -26 -1 0 -11
-5 -22 -11 -18 -10 -20 -20 -18 -109 3 -97 7 -120 23 -110 4 3 10 -2 14 -10 8
-23 -22 -33 -68 -23 -22 5 -45 13 -49 17 -4 4 -19 75 -33 157 -14 82 -27 158
-31 168 -4 16 -2 18 18 12 13 -4 59 -14 102 -23z m-4926 -40 c-3 -10 -5 -2 -5
17 0 19 2 27 5 18 2 -10 2 -26 0 -35z m469 -154 c16 -17 16 -19 0 -25 -22 -8
-62 10 -75 33 -8 17 -6 18 24 15 19 -2 41 -12 51 -23z m4364 -209 c0 -5 -7 -7
-15 -4 -8 4 -15 8 -15 10 0 2 7 4 15 4 8 0 15 -4 15 -10z"/>
<path d="M498 3603 c7 -3 16 -2 19 1 4 3 -2 6 -13 5 -11 0 -14 -3 -6 -6z"/>
<path d="M495 3580 c3 -5 8 -10 11 -10 2 0 4 5 4 10 0 6 -5 10 -11 10 -5 0 -7
-4 -4 -10z"/>
<path d="M178 3043 c12 -2 30 -2 40 0 9 3 -1 5 -23 4 -22 0 -30 -2 -17 -4z"/>
<path d="M195 2883 c-3 -18 -3 -38 0 -43 4 -6 62 -10 136 -10 l129 0 -2 43 -1
42 -4 -37 -4 -38 -120 0 -119 0 0 30 0 30 62 0 c78 0 70 11 -10 14 l-61 2 -6
-33z"/>
<path d="M3741 2137 c-18 -12 -49 -35 -68 -52 l-34 -30 53 1 c87 1 118 11 118
40 0 28 -16 65 -28 63 -4 0 -22 -11 -41 -22z"/>
<path d="M3803 2005 c0 -22 2 -30 4 -17 2 12 2 30 0 40 -3 9 -5 -1 -4 -23z"/>
<path d="M3447 1953 c-11 -11 -8 -68 4 -80 7 -7 15 -29 19 -50 l8 -38 1 41 c1
54 -10 134 -19 134 -4 0 -10 -3 -13 -7z"/>
<path d="M2392 1803 c-12 -10 -29 -40 -37 -67 -13 -42 -13 -47 0 -36 21 17 67
99 63 111 -2 6 -13 3 -26 -8z"/>
<path d="M3296 1514 c-9 -23 -2 -28 13 -10 7 8 8 17 3 20 -6 3 -13 -1 -16 -10z"/>
<path d="M3835 1399 c-37 -6 -36 -6 17 -8 34 0 85 -11 124 -26 83 -31 92 -31
31 1 -58 30 -118 42 -172 33z"/>
<path d="M4150 801 c0 -5 7 -11 15 -15 8 -3 15 -1 15 3 0 5 -7 11 -15 15 -8 3
-15 1 -15 -3z"/>
<path d="M3061 1164 c0 -11 3 -14 6 -6 3 7 2 16 -1 19 -3 4 -6 -2 -5 -13z"/>
<path d="M5343 4115 c0 -22 2 -30 4 -17 2 12 2 30 0 40 -3 9 -5 -1 -4 -23z"/>
<path d="M6270 4141 c0 -5 7 -11 15 -15 8 -3 15 -16 15 -28 0 -19 2 -20 10 -8
5 8 10 25 10 38 0 17 -6 22 -25 22 -14 0 -25 -4 -25 -9z"/>
<path d="M6320 4089 c0 -5 5 -7 10 -4 6 3 10 8 10 11 0 2 -4 4 -10 4 -5 0 -10
-5 -10 -11z"/>
<path d="M428 1903 c6 -2 18 -2 25 0 6 3 1 5 -13 5 -14 0 -19 -2 -12 -5z"/>
<path d="M6980 1869 c0 -5 5 -7 10 -4 6 3 10 8 10 11 0 2 -4 4 -10 4 -5 0 -10
-5 -10 -11z"/>
<path d="M181 644 c0 -11 3 -14 6 -6 3 7 2 16 -1 19 -3 4 -6 -2 -5 -13z"/>
<path d="M150 479 c0 -5 9 -9 20 -9 11 0 20 4 20 8 0 4 -9 8 -20 9 -11 1 -20
-2 -20 -8z"/>
<path d="M205 480 c-3 -5 -1 -10 4 -10 6 0 11 5 11 10 0 6 -2 10 -4 10 -3 0
-8 -4 -11 -10z"/>
<path d="M389 409 c-9 -6 4 -9 35 -9 27 0 46 3 43 6 -10 11 -64 12 -78 3z"/>
<path d="M240 376 c0 -2 7 -7 16 -10 8 -3 12 -2 9 4 -6 10 -25 14 -25 6z"/>
<path d="M83 363 c9 -2 25 -2 35 0 9 3 1 5 -18 5 -19 0 -27 -2 -17 -5z"/>
<path d="M418 293 c7 -3 16 -2 19 1 4 3 -2 6 -13 5 -11 0 -14 -3 -6 -6z"/>
<path d="M148 243 c7 -3 16 -2 19 1 4 3 -2 6 -13 5 -11 0 -14 -3 -6 -6z"/>
<path d="M468 243 c7 -3 16 -2 19 1 4 3 -2 6 -13 5 -11 0 -14 -3 -6 -6z"/>
<path d="M6808 233 c7 -3 16 -2 19 1 4 3 -2 6 -13 5 -11 0 -14 -3 -6 -6z"/>
<path d="M170 180 c-168 -5 -164 -6 105 -9 154 -1 298 -4 320 -5 72 -4 85 11
15 18 -64 6 -98 6 -440 -4z"/>
<path d="M1025 170 c131 -4 147 -6 71 -8 -55 -1 -96 -5 -92 -9 4 -4 17 -8 29
-8 12 -1 45 -2 72 -4 46 -2 48 -3 25 -13 -45 -20 -54 -21 -145 -24 -49 -1 -98
-3 -107 -3 -10 -1 -31 -15 -48 -31 -28 -27 -37 -30 -97 -30 -62 0 -65 1 -47
15 17 14 15 14 -13 0 -50 -24 -40 -35 31 -35 36 0 68 -4 71 -10 4 -7 301 -10
857 -10 710 0 849 2 839 13 -6 8 -7 18 -3 22 4 5 1 5 -6 1 -7 -4 -9 -13 -6
-19 4 -7 -5 -1 -20 12 -19 18 -29 22 -37 14 -8 -8 -24 -8 -58 2 -25 7 -66 12
-91 11 -25 -1 -50 2 -57 7 -7 5 -17 6 -22 2 -15 -8 -3 22 22 60 l20 30 -34
-31 c-19 -18 -44 -37 -57 -43 -27 -14 -142 -22 -142 -9 0 5 -8 5 -17 0 -19 -9
-110 -9 -119 1 -3 3 -18 1 -34 -3 -21 -6 -30 -5 -34 7 -3 8 -11 11 -17 7 -6
-3 -14 -1 -18 5 -10 15 -159 25 -175 11 -19 -15 -17 21 3 44 13 16 13 18 1 11
-8 -4 -22 -14 -31 -22 -25 -21 -63 -26 -206 -27 -74 -1 -133 -5 -133 -10 0 -5
-3 -6 -7 -3 -3 4 2 15 11 26 11 12 14 21 7 26 -6 3 -11 10 -11 14 0 4 280 8
621 9 342 1 624 4 627 7 3 3 -354 4 -794 3 -439 -1 -722 -5 -629 -8z"/>
<path d="M2483 173 c15 -2 37 -2 50 0 12 2 0 4 -28 4 -27 0 -38 -2 -22 -4z"/>
<path d="M2583 173 c9 -2 23 -2 30 0 6 3 -1 5 -18 5 -16 0 -22 -2 -12 -5z"/>
<path d="M2920 170 c36 -4 190 -8 343 -9 287 -1 292 -2 267 -41 -8 -13 -44
-15 -222 -16 -132 0 -223 -5 -240 -12 l-27 -11 17 -40 17 -41 790 1 c481 0
781 4 768 9 -13 5 -23 14 -23 19 0 5 -11 8 -25 6 -14 -1 -28 2 -31 6 -3 5 -12
9 -20 9 -9 0 -33 18 -55 41 -42 44 -47 44 -25 0 9 -17 11 -32 5 -42 -5 -8 -9
-9 -9 -3 0 9 -31 11 -50 4 -3 -1 -9 -1 -15 0 -41 9 -54 9 -60 1 -3 -6 -16 -6
-33 -1 -15 5 -81 11 -147 14 -66 4 -147 10 -180 15 -82 13 -277 26 -347 24
-53 -2 -56 0 -63 24 -3 14 -5 27 -3 29 2 1 190 6 418 10 228 3 417 8 419 10 2
2 -342 3 -765 2 -423 0 -740 -4 -704 -8z"/>
<path d="M4415 170 c3 -5 12 -7 20 -3 21 7 19 13 -6 13 -11 0 -18 -4 -14 -10z"/>
<path d="M882 148 c-9 -4 9 -7 40 -7 31 -1 59 3 62 7 6 10 -78 10 -102 0z"/>
<path d="M6180 73 c84 -57 85 -57 55 -64 -26 -6 -23 -7 18 -8 26 0 47 3 47 9
0 9 -181 120 -196 120 -5 0 29 -26 76 -57z"/>
<path d="M6290 74 c30 -21 63 -45 73 -56 12 -12 30 -18 52 -16 19 1 33 3 32 4
-7 7 -198 104 -204 104 -4 0 17 -16 47 -36z"/>
<path d="M2676 50 c-15 -27 -23 -50 -18 -50 10 0 56 89 49 96 -2 2 -16 -18
-31 -46z"/>
<path d="M5885 40 c3 -5 11 -10 16 -10 6 0 7 5 4 10 -3 6 -11 10 -16 10 -6 0
-7 -4 -4 -10z"/>
<path d="M2525 10 c3 -5 8 -10 11 -10 2 0 4 5 4 10 0 6 -5 10 -11 10 -5 0 -7
-4 -4 -10z"/>
<path d="M5858 3 c45 -2 119 -2 165 0 45 1 8 3 -83 3 -91 0 -128 -2 -82 -3z"/>
</g>
</svg>
