<?xml version="1.0" standalone="no"?>
<!DOCTYPE svg PUBLIC "-//W3C//DTD SVG 20010904//EN"
 "http://www.w3.org/TR/2001/REC-SVG-20010904/DTD/svg10.dtd">
<svg version="1.0" xmlns="http://www.w3.org/2000/svg"
 width="2000.000000pt" height="2000.000000pt" viewBox="0 0 2000.000000 2000.000000"
 preserveAspectRatio="xMidYMid meet">

<g transform="translate(0.000000,2000.000000) scale(0.100000,-0.100000)"
fill="#000000" stroke="none">
<path d="M13139 13249 c-1115 -64 -1899 -454 -2373 -1180 -244 -376 -399 -855
-462 -1429 -14 -134 -31 -742 -22 -800 3 -21 28 11 141 182 266 401 537 731
665 805 84 50 211 18 275 -69 14 -18 22 -48 25 -88 9 -118 -10 -199 -227 -980
-183 -660 -271 -1057 -271 -1220 0 -84 6 -96 45 -86 46 12 224 304 457 749 99
188 137 272 160 350 43 149 81 230 208 442 173 288 292 399 465 435 l55 11 0
70 c0 195 37 442 92 609 127 391 354 616 714 707 104 27 120 28 344 28 225 -1
239 -2 335 -28 113 -32 244 -93 326 -154 75 -55 188 -180 230 -253 19 -33 37
-60 40 -60 4 0 19 29 33 65 43 107 254 561 287 617 104 176 169 207 255 121
35 -35 36 -36 29 -97 -4 -35 -52 -192 -111 -367 -57 -169 -104 -318 -104 -332
0 -51 11 -51 272 -3 347 64 556 101 768 136 245 39 451 78 458 85 17 17 -101
312 -192 480 -209 386 -576 723 -1021 939 -506 246 -1172 357 -1896 315z"/>
<path d="M6580 13205 c-443 -33 -844 -125 -1187 -271 -576 -246 -897 -565
-1053 -1044 -16 -52 -30 -99 -30 -105 0 -5 36 58 79 141 123 238 227 389 359
522 134 135 232 154 388 78 150 -74 255 -212 313 -411 28 -96 61 -367 61 -500
0 -295 -54 -857 -129 -1345 -16 -102 -28 -186 -27 -187 4 -4 367 28 403 35
l37 8 62 249 c67 266 86 320 117 337 29 15 83 1 122 -34 l35 -30 0 -132 c-1
-153 -9 -229 -80 -705 -44 -295 -51 -354 -39 -362 26 -16 119 -33 129 -23 5 5
36 68 68 139 168 368 427 745 563 818 61 32 145 36 224 9 41 -14 50 -21 50
-41 0 -26 -7 -31 -79 -57 -83 -29 -184 -139 -326 -354 -59 -89 -290 -541 -290
-567 0 -15 1 -15 200 -58 91 -19 184 -40 207 -45 70 -17 69 -17 83 68 32 198
85 328 240 587 202 336 343 445 575 445 189 0 337 -87 413 -244 22 -45 38 -66
50 -66 27 0 79 60 198 230 59 85 136 194 170 242 l63 87 -99 30 c-277 86 -682
185 -1110 271 -347 69 -704 169 -846 237 -148 70 -232 179 -242 312 -4 59 -1
77 21 124 86 189 367 297 771 297 216 0 381 -34 512 -107 105 -58 224 -204
259 -320 9 -26 28 -66 43 -88 33 -47 120 -111 171 -125 23 -6 327 -10 808 -10
l771 0 33 27 32 27 -6 146 c-22 545 -277 990 -742 1292 -578 376 -1403 542
-2345 473z"/>
<path d="M4991 12377 c-195 -104 -427 -456 -680 -1030 -69 -155 -70 -161 -46
-341 29 -218 72 -368 155 -531 69 -136 141 -235 264 -361 l95 -96 45 6 c25 3
66 9 91 12 29 4 46 12 49 23 28 93 94 471 130 741 69 512 80 648 81 975 0 289
-2 317 -23 415 -32 141 -68 210 -110 210 -4 0 -27 -10 -51 -23z"/>
<path d="M16175 11263 c-71 -12 -209 -34 -305 -48 -394 -57 -1143 -200 -1199
-229 -48 -25 -77 -69 -105 -161 l-27 -87 23 -25 c13 -14 41 -35 63 -46 39 -21
51 -22 488 -25 l448 -3 -23 32 c-20 26 -23 42 -21 107 2 131 40 194 116 194
84 0 207 -134 207 -227 0 -20 -7 -51 -14 -70 l-15 -35 163 0 c187 0 241 11
303 64 24 21 49 57 63 88 20 48 22 63 16 153 -6 96 -39 332 -47 339 -2 1 -62
-8 -134 -21z"/>
<path d="M8742 10500 c-6 -26 -94 -255 -196 -508 -102 -254 -200 -510 -219
-569 -95 -294 -169 -707 -147 -822 14 -75 52 -80 136 -18 74 55 177 160 255
263 81 105 320 457 451 664 l105 165 28 130 c15 72 48 199 71 283 l44 154 -23
19 c-80 70 -305 204 -438 263 l-56 24 -11 -48z"/>
<path d="M10945 10418 c-70 -82 -284 -415 -455 -707 l-171 -294 21 -131 c28
-170 97 -439 151 -591 l43 -120 22 155 c54 395 156 800 334 1330 87 262 120
368 120 389 0 24 -30 9 -65 -31z"/>
<path d="M7724 10191 c-107 -62 -226 -227 -348 -482 -35 -74 -78 -176 -96
-228 -38 -113 -82 -303 -72 -312 4 -3 34 -13 66 -22 l59 -16 46 33 c156 115
661 706 661 774 0 14 -13 30 -37 46 -51 32 -65 49 -102 128 -33 71 -70 108
-105 108 -11 0 -44 -13 -72 -29z"/>
<path d="M12212 9990 c-82 -123 -211 -385 -256 -522 -52 -157 -84 -319 -68
-352 8 -19 19 -26 40 -26 40 0 165 95 285 217 l98 100 -12 104 c-6 57 -14 210
-18 339 l-6 235 -63 -95z"/>
<path d="M5522 9995 c-100 -7 -185 -14 -187 -17 -5 -4 -65 -263 -65 -278 0
-14 357 -150 395 -150 8 0 26 72 54 213 23 116 44 220 47 230 6 20 19 20 -244
2z"/>
<path d="M9470 9814 c-43 -196 -45 -241 -14 -251 10 -3 165 223 181 263 6 15
-69 135 -105 167 -18 16 -20 9 -62 -179z"/>
<path d="M4902 9928 c6 -18 28 -21 28 -4 0 9 -7 16 -16 16 -9 0 -14 -5 -12
-12z"/>
<path d="M9682 9558 c-27 -51 -66 -126 -87 -167 -20 -41 -62 -115 -92 -164
-104 -168 -136 -189 -246 -161 -80 20 -132 61 -161 126 l-21 48 -100 -158
c-178 -280 -310 -458 -430 -578 -120 -120 -184 -160 -271 -170 -149 -18 -345
91 -416 230 l-25 48 -27 -55 c-47 -98 -127 -149 -292 -191 -161 -40 -271 -51
-524 -51 -253 0 -353 10 -509 51 -203 54 -320 137 -387 273 -21 44 -42 79 -45
78 -4 -1 -25 -26 -48 -54 -54 -69 -90 -87 -169 -86 -108 1 -213 69 -227 146
-4 18 -5 106 -3 195 l3 162 -273 -2 -273 -3 -40 -95 c-22 -52 -74 -163 -114
-247 -143 -296 -267 -486 -473 -723 l-40 -45 42 -67 c211 -345 528 -574 1036
-750 448 -154 1033 -238 1670 -238 797 0 1419 156 1907 479 110 73 276 211
333 277 189 220 308 442 385 719 48 172 67 324 72 575 5 220 3 258 -17 375
-19 112 -73 315 -85 315 -2 0 -26 -42 -53 -92z"/>
<path d="M14740 9521 c-43 -14 -104 -48 -127 -73 -30 -32 -60 -103 -68 -163
-20 -147 -92 -343 -166 -451 -92 -134 -244 -258 -394 -321 l-70 -30 -12 -69
c-31 -188 -65 -562 -61 -668 5 -116 15 -150 47 -161 27 -8 53 10 84 59 14 23
65 96 114 163 98 137 109 155 518 868 292 510 475 837 475 849 0 9 -310 6
-340 -3z"/>
<path d="M15461 9443 c-42 -173 -61 -281 -82 -466 -20 -172 -21 -189 -6 -204
27 -27 72 2 187 117 128 128 339 424 436 613 l15 27 -265 0 -264 0 -21 -87z"/>
<path d="M16050 9214 c-199 -325 -447 -617 -590 -694 -58 -31 -74 -35 -140
-35 -86 0 -144 23 -202 79 -54 52 -63 100 -63 328 l0 196 -29 -51 c-16 -29
-120 -209 -231 -402 -111 -192 -219 -382 -238 -422 -53 -104 -131 -231 -290
-468 -229 -343 -285 -394 -444 -403 -74 -4 -88 -2 -137 22 -64 31 -102 77
-132 162 -25 68 -54 253 -54 342 0 50 25 311 46 485 l7 57 -120 0 c-66 0 -156
5 -200 11 l-81 11 -46 -36 c-51 -38 -128 -66 -186 -66 -153 0 -325 112 -393
257 -28 61 -32 80 -37 193 -6 122 -7 127 -52 220 -25 52 -48 107 -52 123 -3
15 -10 27 -14 27 -5 0 -41 -37 -82 -81 -85 -94 -239 -225 -287 -245 -106 -45
-308 10 -408 111 l-44 43 -111 -211 c-228 -429 -382 -667 -454 -701 -21 -10
-60 -16 -100 -16 l-66 0 63 -82 c77 -103 285 -314 391 -397 530 -418 1235
-620 2163 -621 997 -1 1745 246 2252 743 214 210 383 461 486 721 25 65 26 71
12 96 -72 121 -96 461 -53 755 8 55 14 101 13 102 -2 1 -45 -68 -97 -153z"/>
<path d="M7819 9297 c-14 -12 -63 -65 -109 -117 -46 -52 -92 -105 -102 -116
-19 -22 -19 -22 29 -45 26 -13 75 -51 109 -84 l61 -60 22 125 c13 69 29 162
37 208 12 65 13 87 3 98 -15 18 -19 18 -50 -9z"/>
<path d="M4390 9058 c-38 -15 -73 -40 -116 -82 -49 -50 -64 -73 -82 -129 -12
-37 -22 -84 -22 -105 0 -76 70 -422 89 -444 4 -5 31 29 61 75 87 132 208 373
318 635 l31 72 -112 -1 c-89 0 -123 -4 -167 -21z"/>
</g>
</svg>
