<?xml version="1.0" encoding="UTF-8"?>
<svg version="1.1" xmlns="http://www.w3.org/2000/svg" width="570" height="321">
<path d="M0 0 C188.1 0 376.2 0 570 0 C570 105.93 570 211.86 570 321 C381.9 321 193.8 321 0 321 C0 215.07 0 109.14 0 0 Z " fill="#06070A" transform="translate(0,0)"/>
<path d="M0 0 C0.99 0 1.98 0 3 0 C2.45144652 4.571279 1.58255197 8.67435795 0 13 C0.71542969 12.79503906 1.43085938 12.59007812 2.16796875 12.37890625 C9.79060262 10.31793539 17.11966992 9.36859608 25 9 C25 9.99 25 10.98 25 12 C23.31583984 12.29003906 23.31583984 12.29003906 21.59765625 12.5859375 C18.5170248 13.11731805 15.44170516 13.67270874 12.3671875 14.23828125 C9.8993105 14.68712967 7.50778126 15.04819374 5.0078125 15.29296875 C2.39500672 15.4972081 2.39500672 15.4972081 -1 17 C-3.18149089 20.06366119 -4.00308674 23.40507037 -5 27 C-5.4324293 28.38789856 -5.86890047 29.77454182 -6.30859375 31.16015625 C-8.472796 38.12513297 -10.25606944 44.7241956 -11 52 C-7.9597671 51.98394808 -5.83292587 51.95227187 -3 51 C-0.78976298 48.74379361 0.45602985 46.14328521 1.8125 43.3125 C2.18052734 42.60416016 2.54855469 41.89582031 2.92773438 41.16601562 C3.98170389 39.12406752 4.99507827 37.06643722 6 35 C6.58136719 33.83855469 7.16273438 32.67710938 7.76171875 31.48046875 C8.37466797 30.25263672 8.37466797 30.25263672 9 29 C9.99 29 10.98 29 12 29 C11.37802877 35.33881314 10.71457113 41.67094142 10 48 C16.04922054 41.50815357 20.23096742 34.21644947 24.37890625 26.40234375 C26.74024528 21.96835603 28.85957398 18.02958001 33 15 C38.2 15.2 38.2 15.2 40 17 C40.41221374 25.38167939 40.41221374 25.38167939 38 29 C37.34 29 36.68 29 36 29 C36 25.7 36 22.4 36 19 C28.29049704 29.96462643 26.34420204 38.96914727 25 52 C30.03217706 49.53961823 32.78915718 45.90075943 36.125 41.5625 C36.64964844 40.89412109 37.17429687 40.22574219 37.71484375 39.53710938 C39.77518818 36.90560618 41.80108945 34.29281484 43.6796875 31.52734375 C44.11539063 31.02332031 44.55109375 30.51929687 45 30 C45.99 30 46.98 30 48 30 C45.82971403 34.63097596 42.78211367 38.45399011 39.6875 42.5 C39.11837891 43.25925781 38.54925781 44.01851562 37.96289062 44.80078125 C30.55518259 54.51329855 30.55518259 54.51329855 25.375 55.5 C23 55 23 55 21.25 53.5 C19.49844206 49.99688413 19.32484732 46.89816789 19 43 C15.535 47.455 15.535 47.455 12 52 C14.97 52.495 14.97 52.495 18 53 C18.33 66.53 18.66 80.06 19 94 C22.84930112 93.23013978 25.53849072 92.33314808 29.03222656 90.76000977 C31.24439942 89.90560603 33.41523724 89.39293058 35.734375 88.90234375 C36.53584961 88.73081787 37.33732422 88.55929199 38.16308594 88.38256836 C38.76926758 88.2563208 39.37544922 88.13007324 40 88 C40.02505615 88.65597168 40.0501123 89.31194336 40.07592773 89.98779297 C40.1917326 92.95040183 40.31452886 95.91268031 40.4375 98.875 C40.47681641 99.90753906 40.51613281 100.94007813 40.55664062 102.00390625 C40.61948242 103.48310547 40.61948242 103.48310547 40.68359375 104.9921875 C40.72025146 105.90339355 40.75690918 106.81459961 40.79467773 107.75341797 C40.86577065 110.03483481 40.86577065 110.03483481 42 112 C42.08559118 114.17824961 42.10713412 116.35915255 42.09765625 118.5390625 C42.09443359 119.84101563 42.09121094 121.14296875 42.08789062 122.484375 C42.07953466 123.86458399 42.07106971 125.24479232 42.0625 126.625 C42.05748501 128.01301926 42.0529221 129.40104022 42.04882812 130.7890625 C42.03700976 134.19275132 42.02053434 137.59635439 42 141 C41.34 141 40.68 141 40 141 C40 144.96 40 148.92 40 153 C40.99 153.33 41.98 153.66 43 154 C43.02705729 155.77074917 43.04642195 157.54161711 43.0625 159.3125 C43.07410156 160.29863281 43.08570313 161.28476563 43.09765625 162.30078125 C43 165 43 165 42 168 C41.34 168 40.68 168 40 168 C39.731875 168.86625 39.46375 169.7325 39.1875 170.625 C38.02888013 173.91791964 36.61790161 176.91127875 35 180 C34.34 180 33.68 180 33 180 C33.0309375 181.2065625 33.0309375 181.2065625 33.0625 182.4375 C33 185 33 185 32 186 C29.32941149 186.14115161 26.67567762 186.04247107 24 186 C21.81974722 179.14777699 20.70064759 172.66543679 20.6875 165.5 C20.67976563 164.47712891 20.67976563 164.47712891 20.671875 163.43359375 C20.74054581 158.49910561 20.74054581 158.49910561 22.00439453 156.06787109 C23.15510367 153.67784992 23.24439728 152.08517833 23.23046875 149.4453125 C23.22853516 148.58292969 23.22660156 147.72054687 23.22460938 146.83203125 C23.21236328 145.93871094 23.20011719 145.04539063 23.1875 144.125 C23.18685547 143.23941406 23.18621094 142.35382813 23.18554688 141.44140625 C23.1547844 136.8543798 22.9306137 132.51161521 22 128 C21.34 128.33 20.68 128.66 20 129 C19.98969254 129.66683807 19.97938507 130.33367615 19.96876526 131.02072144 C19.86010561 137.99697506 19.74556067 144.97311488 19.62768555 151.94921875 C19.5845262 154.54847825 19.54283879 157.14776264 19.50268555 159.74707031 C19.44451997 163.49551883 19.38096166 167.24384423 19.31640625 170.9921875 C19.29969376 172.14363251 19.28298126 173.29507751 19.26576233 174.48141479 C19.24581711 175.58180084 19.22587189 176.68218689 19.20532227 177.81591797 C19.18977798 178.77078094 19.1742337 179.72564392 19.15821838 180.70944214 C18.9446432 185.15128696 18.4424907 189.57509302 18 194 C5.79 194 -6.42 194 -19 194 C-19 176.18 -19 158.36 -19 140 C-32.86 140 -46.72 140 -61 140 C-61 157.82 -61 175.64 -61 194 C-73.21 194 -85.42 194 -98 194 C-98 149.12 -98 104.24 -98 58 C-96.68 58 -95.36 58 -94 58 C-94 57.34 -94 56.68 -94 56 C-94.969375 55.54625 -95.93875 55.0925 -96.9375 54.625 C-100 53 -100 53 -101 51 C-101.06950541 49.45976004 -101.08452357 47.91665012 -101.0625 46.375 C-101.04896484 45.14910156 -101.04896484 45.14910156 -101.03515625 43.8984375 C-101.02355469 43.27195313 -101.01195312 42.64546875 -101 42 C-101.845625 43.010625 -102.69125 44.02125 -103.5625 45.0625 C-105.203125 46.72265625 -105.203125 46.72265625 -107 48 C-110.8125 48 -110.8125 48 -114 47 C-115.52593712 43.94812577 -115.65251719 41.28653155 -115 38 C-112.87168922 33.61895413 -110.45505422 29.45505422 -107 26 C-104.31160615 25.73008094 -101.70858064 25.91262643 -99 26 C-98.34 27.32 -97.68 28.64 -97 30 C-96.34 30 -95.68 30 -95 30 C-94.731875 29.236875 -94.46375 28.47375 -94.1875 27.6875 C-93.04204753 25.09516021 -92.23584819 23.69924463 -90 22 C-89.01 22 -88.02 22 -87 22 C-87.69846898 26.5051249 -89.32049516 30.54183584 -91 34.75 C-93.26265657 40.56257231 -94.77532451 45.70908641 -95 52 C-85.66146253 43.51042048 -81.43070033 33.85725922 -78 22 C-77.01 22 -76.02 22 -75 22 C-74.90235126 26.78478822 -75.22887459 31.27685687 -76 36 C-74.02 33.36 -72.04 30.72 -70 28 C-68.68 28.33 -67.36 28.66 -66 29 C-65.505 30.98 -65.505 30.98 -65 33 C-64.37351563 32.15695313 -63.74703125 31.31390625 -63.1015625 30.4453125 C-62.27612676 29.33847821 -61.45060124 28.23171086 -60.625 27.125 C-60.2125 26.56941406 -59.8 26.01382813 -59.375 25.44140625 C-57.6745427 23.1649876 -56.0120881 21.0120881 -54 19 C-51.375 18.875 -51.375 18.875 -49 19 C-48.71187754 24.7245383 -49.71964385 29.35254598 -51.375 34.8125 C-53.22989256 41.17677885 -54.84059532 47.4651736 -56 54 C-55.34 54 -54.68 54 -54 54 C-53.62294922 53.02353516 -53.62294922 53.02353516 -53.23828125 52.02734375 C-51.65511069 48.15681635 -49.93908854 44.35925783 -48.1875 40.5625 C-47.85685547 39.82451172 -47.52621094 39.08652344 -47.18554688 38.32617188 C-44.98896265 33.58306774 -42.72924912 29.70020513 -39 26 C-36.76171875 25.4140625 -36.76171875 25.4140625 -34.6875 25.625 C-33.470625 25.74875 -32.25375 25.8725 -31 26 C-30.01 27.98 -30.01 27.98 -29 30 C-28.34 30 -27.68 30 -27 30 C-26.5978125 28.8553125 -26.5978125 28.8553125 -26.1875 27.6875 C-25.04204753 25.09516021 -24.23584819 23.69924463 -22 22 C-21.01 22 -20.02 22 -19 22 C-19.68265088 26.0959053 -20.96310765 29.7487044 -22.4375 33.625 C-24.65670526 39.70536587 -26.12416802 45.59466161 -27 52 C-16.79066493 42.7187863 -12.83713333 31.9028879 -9 19 C-9.87398437 19.24556641 -9.87398437 19.24556641 -10.765625 19.49609375 C-13.85736768 20.1933574 -16.84286393 20.06071416 -20 20 C-20 19.34 -20 18.68 -20 18 C-18.71416016 17.81050781 -18.71416016 17.81050781 -17.40234375 17.6171875 C-10.86507382 16.34992898 -10.86507382 16.34992898 -5.69726562 12.43652344 C-3.28351663 8.51260165 -1.58595581 4.31379981 0 0 Z " fill="#BA9BB6" transform="translate(270,51)"/>
<path d="M0 0 C3.5 1 3.5 1 5.19921875 2.9921875 C6.9812994 7.11291454 6.9067071 10.6846181 6.8125 15.125 C6.79993164 16.38727417 6.79993164 16.38727417 6.78710938 17.67504883 C6.66698058 23.92354799 6.02897444 29.92505689 4.5 36 C6.48 35.67 8.46 35.34 10.5 35 C11.16 32.36 11.82 29.72 12.5 27 C13.49 27 14.48 27 15.5 27 C15.62920865 33.71884955 15.12422779 40.31184516 14.5 47 C15.20576172 45.64455078 15.20576172 45.64455078 15.92578125 44.26171875 C16.55439878 43.07016014 17.18332109 41.87876228 17.8125 40.6875 C18.12123047 40.09259766 18.42996094 39.49769531 18.74804688 38.88476562 C21.9805445 32.79405957 21.9805445 32.79405957 24.5 31 C25.82 31 27.14 31 28.5 31 C28.5 31.66 28.5 32.32 28.5 33 C27.76007813 33.69996094 27.02015625 34.39992187 26.2578125 35.12109375 C23.01376814 38.50758199 21.32855694 41.85038414 19.375 46.0625 C15.3435964 54.60004779 15.3435964 54.60004779 12.5 58 C8.625 57.125 8.625 57.125 7.5 56 C6.99626597 49.19959057 8.50003972 43.47606186 10.5 37 C8.19 37 5.88 37 3.5 37 C3.39816406 38.155 3.29632813 39.31 3.19140625 40.5 C2.62797532 45.00744742 1.21744525 48.84541781 -0.5625 53 C-0.84416016 53.67933594 -1.12582031 54.35867187 -1.41601562 55.05859375 C-2.10191311 56.70939787 -2.79969829 58.35525469 -3.5 60 C-2.24316406 60.13535156 -2.24316406 60.13535156 -0.9609375 60.2734375 C3.03934244 61.11322539 6.32067939 62.68521041 9.875 64.625 C10.53185791 64.97820312 11.18871582 65.33140625 11.86547852 65.6953125 C16.98547783 68.53166676 21.39474099 71.80293008 25.5 76 C24.19340512 78.77022508 22.74077915 81.17095325 20.890625 83.609375 C20.38273437 84.28226562 19.87484375 84.95515625 19.3515625 85.6484375 C18.82304687 86.34195313 18.29453125 87.03546875 17.75 87.75 C17.23695313 88.42804688 16.72390625 89.10609375 16.1953125 89.8046875 C15.16065714 91.17209634 14.12485313 92.53863682 13.08789062 93.90429688 C10.54552204 97.25972307 8.02263394 100.62972499 5.5 104 C1.01148893 101.79212155 -3.23324408 99.21859519 -7.52734375 96.65625 C-16.33875929 91.74686736 -26.53158168 90.36092311 -36.40625 92.68359375 C-47.50059047 96.43884102 -56.30898832 102.6683278 -61.8125 113.125 C-65.82075916 121.27681821 -65.66602512 132.11472454 -63.921875 140.91796875 C-60.50090679 150.69882785 -52.83434278 157.75923583 -44.0546875 162.84375 C-34.48092683 167.17682822 -22.724502 167.76383087 -12.6875 164.5 C-7.46893157 162.32888605 -3.18558906 159.05214114 1.1875 155.51171875 C2.3321875 154.76341797 2.3321875 154.76341797 3.5 154 C7.0005701 155.1668567 7.56567936 156.0810646 9.6796875 159.0078125 C10.27910156 159.83023438 10.87851563 160.65265625 11.49609375 161.5 C12.11613281 162.36625 12.73617187 163.2325 13.375 164.125 C13.98730469 164.96804687 14.59960938 165.81109375 15.23046875 166.6796875 C16.99554979 169.11376072 18.75008312 171.55500839 20.5 174 C21.0146582 174.71897461 21.52931641 175.43794922 22.05957031 176.17871094 C23.20773158 177.7848421 24.35410017 179.39225462 25.5 181 C22.32787379 188.81093444 12.17666349 193.14574036 4.93359375 196.578125 C-15.2278054 204.9271003 -35.95848673 205.81684395 -56.5 198 C-76.39344461 189.61440189 -91.68648071 174.71872218 -99.8515625 154.68359375 C-106.00705949 136.99207542 -105.70265433 115.95198943 -97.83447266 98.91552734 C-88.42448968 79.55155378 -73.01104975 66.43241307 -53.015625 58.78515625 C-50.08257672 57.86971727 -47.13052801 57.26022633 -44.125 56.625 C-39.40789023 55.53215373 -39.40789023 55.53215373 -36 52.0625 C-35.505 51.051875 -35.01 50.04125 -34.5 49 C-33.83299072 48.39349609 -33.16598145 47.78699219 -32.47875977 47.16210938 C-30.0470277 44.5050558 -29.7953263 42.88632815 -29.33984375 39.34375 C-29.18580078 38.23773438 -29.03175781 37.13171875 -28.87304688 35.9921875 C-28.72931641 34.83976562 -28.58558594 33.68734375 -28.4375 32.5 C-27.2952896 23.82119606 -25.8112072 15.45044126 -23.5 7 C-22.51 7 -21.52 7 -20.5 7 C-20.08544689 14.96863196 -20.89024229 22.33488224 -22.43286133 30.12280273 C-23.15619804 33.80567394 -23.6764596 37.24288098 -23.5 41 C-22.84 41 -22.18 41 -21.5 41 C-21.35304688 40.30777344 -21.20609375 39.61554688 -21.0546875 38.90234375 C-12.13636364 0 -12.13636364 0 0 0 Z " fill="#9D9C9D" transform="translate(129.5,45)"/>
<path d="M0 0 C6.27 0 12.54 0 19 0 C27.21583792 17.34934499 35.37567953 34.71877283 43.28936768 52.20828247 C48.07943521 62.793797 52.91789768 73.35577598 57.79406738 83.9019165 C61.19910392 91.26653034 64.59933385 98.63336733 68 106 C68.38766541 106.83956238 68.77533081 107.67912476 69.17474365 108.54412842 C71.47111378 113.51851024 73.76335497 118.49475801 76.04983521 123.47369385 C76.76256091 125.0240862 77.47663685 126.5738586 78.19210815 128.12298584 C79.17588194 130.25356193 80.15494451 132.38623956 81.1328125 134.51953125 C81.42560593 135.15088486 81.71839935 135.78223846 82.02006531 136.432724 C84 140.77170077 84 140.77170077 84 143 C70.47 143 56.94 143 43 143 C40.69 137.72 38.38 132.44 36 127 C18.51 126.67 1.02 126.34 -17 126 C-17.99 128.97 -18.98 131.94 -20 135 C-21.32 137.64 -22.64 140.28 -24 143 C-37.53 143 -51.06 143 -65 143 C-58.07396629 126.76356031 -50.75306439 110.74411852 -43.30761719 94.7409668 C-38.29976785 83.97500501 -33.33383658 73.1921261 -28.4375 62.375 C-21.99779003 48.15031259 -15.46373756 33.97017665 -8.90014648 19.80224609 C-8.52935471 19.0009729 -8.15856293 18.19969971 -7.77653503 17.37414551 C-7.08567551 15.88131461 -6.39401771 14.38885275 -5.70137024 12.89685059 C-5.38902939 12.22174438 -5.07668854 11.54663818 -4.75488281 10.85107422 C-4.48701965 10.27332245 -4.21915649 9.69557068 -3.94317627 9.10031128 C-2.58887271 6.08448154 -1.30228118 3.0386561 0 0 Z " fill="#EF95E3" transform="translate(367,102)"/>
<path d="M0 0 C1.1456543 0.00616333 1.1456543 0.00616333 2.31445312 0.01245117 C3.16523438 0.01438477 4.01601563 0.01631836 4.89257812 0.01831055 C5.78460938 0.03055664 6.67664063 0.04280273 7.59570312 0.05541992 C8.45679688 0.05606445 9.31789063 0.05670898 10.20507812 0.05737305 C14.32651392 0.08513721 18.36595873 0.25738556 22.46459961 0.69506836 C29.4529153 1.41797391 36.46171057 1.7804667 43.47460938 2.17651367 C44.97279427 2.26270502 46.47096808 2.3490893 47.96913147 2.43565369 C51.8929239 2.66188192 55.81685313 2.88564033 59.74082184 3.10878754 C63.54522857 3.32548387 67.34951625 3.54424563 71.15380859 3.76293945 C72.65090896 3.84893594 74.14800979 3.93492431 75.64511108 4.02090454 C76.38428143 4.06335926 77.12345177 4.10581398 77.88502121 4.14955521 C81.61474689 4.36373861 85.34448181 4.5777608 89.07421875 4.79174805 C90.17792596 4.85510818 90.17792596 4.85510818 91.30393028 4.91974831 C95.08709183 5.13683538 98.87029242 5.35320596 102.65356445 5.56835938 C106.42760416 5.78303679 110.20153643 5.99952278 113.97540474 6.2171917 C115.38135639 6.29796521 116.78734464 6.37810486 118.19337273 6.4575367 C141.63562307 7.78283987 141.63562307 7.78283987 143.09570312 9.24291992 C143.18239745 10.73163852 143.20273806 12.22436492 143.19335938 13.71557617 C143.19013672 14.61469727 143.18691406 15.51381836 143.18359375 16.44018555 C143.17521484 17.38571289 143.16683594 18.33124023 143.15820312 19.30541992 C143.15369141 20.25481445 143.14917969 21.20420898 143.14453125 22.18237305 C143.13270423 24.53595057 143.11622338 26.88940469 143.09570312 29.24291992 C143.865354 29.18233398 144.63500488 29.12174805 145.42797852 29.05932617 C173.67710339 26.86275871 173.67710339 26.86275871 186.09570312 27.24291992 C187.41469541 31.23130135 187.24283181 35.28129116 187.22070312 39.43041992 C187.22457031 40.16711914 187.2284375 40.90381836 187.23242188 41.6628418 C187.22238803 47.11623501 187.22238803 47.11623501 186.09570312 48.24291992 C183.92725755 48.52242969 181.75042583 48.73704066 179.57226562 48.92651367 C178.55067101 49.01620674 178.55067101 49.01620674 177.50843811 49.10771179 C175.2462846 49.30398475 172.98357179 49.49258365 170.72070312 49.68041992 C169.5630394 49.77888214 169.5630394 49.77888214 168.38198853 49.8793335 C154.6999103 51.04011319 141.00865366 51.90265544 127.29541016 52.59619141 C126.58758896 52.63299515 125.87976776 52.66979889 125.15049744 52.7077179 C123.24526785 52.80611337 121.33980379 52.89993911 119.43432617 52.9934082 C116.15098801 53.18704019 116.15098801 53.18704019 113.15942383 53.73852539 C109.46856567 54.34616847 105.79448843 54.55819197 102.06445312 54.74291992 C100.93324036 54.80382812 100.93324036 54.80382812 99.7791748 54.8659668 C96.57715929 55.03826959 93.3747526 55.20273522 90.17236328 55.36791992 C87.82374038 55.49019925 85.47535482 55.61647428 83.12695312 55.74291992 C82.41116089 55.77836914 81.69536865 55.81381836 80.95788574 55.8503418 C76.9366697 56.06730618 73.05850163 56.54204323 69.09570312 57.24291992 C66.34339768 57.41985384 63.60039846 57.56518776 60.84570312 57.68041992 C52.81231625 58.0582733 44.80062922 58.61330024 36.78320312 59.24291992 C35.66445801 59.33033447 34.54571289 59.41774902 33.39306641 59.5078125 C29.5174475 59.81205864 25.64196169 60.11776668 21.76708984 60.43139648 C13.85615834 61.07039313 6.03337633 61.37376069 -1.90429688 61.24291992 C-2.82521968 56.58754637 -3.02635685 52.09606559 -2.96679688 47.36791992 C-2.96228516 46.67956055 -2.95777344 45.99120117 -2.953125 45.28198242 C-2.94146024 43.60225657 -2.92352958 41.92257617 -2.90429688 40.24291992 C12.05142137 38.57129386 27.02147687 37.55523418 42.03967285 36.62695312 C49.37415995 36.16985638 56.70359145 35.64713376 64.03320312 35.11791992 C65.24814453 35.03026367 66.46308594 34.94260742 67.71484375 34.85229492 C70.50852998 34.65006661 73.30215384 34.44702983 76.09570312 34.24291992 C64.00953157 33.01474232 51.93736878 32.05953779 39.80273438 31.46166992 C38.58617157 31.40148682 37.36960876 31.34130371 36.11618042 31.27929688 C31.09086504 31.03450399 26.06530961 30.79593054 21.03930664 30.56567383 C17.31418318 30.39313781 13.58974436 30.20941309 9.86523438 30.02416992 C8.72480179 29.97514526 7.5843692 29.92612061 6.40937805 29.87561035 C5.35945175 29.82215454 4.30952545 29.76869873 3.2277832 29.71362305 C1.84505974 29.64939148 1.84505974 29.64939148 0.43440247 29.5838623 C-1.90429688 29.24291992 -1.90429688 29.24291992 -4.90429688 27.24291992 C-5.18481445 24.75268555 -5.18481445 24.75268555 -5.04882812 21.64916992 C-5.00306641 20.53670898 -4.95730469 19.42424805 -4.91015625 18.27807617 C-4.81444336 16.52817383 -4.81444336 16.52817383 -4.71679688 14.74291992 C-4.67232422 13.57631836 -4.62785156 12.4097168 -4.58203125 11.20776367 C-4.08048638 0.52052358 -4.08048638 0.52052358 0 0 Z " fill="#336EA9" transform="translate(351.904296875,17.757080078125)"/>
<path d="M0 0 C34.65 0 69.3 0 105 0 C105 11.55 105 23.1 105 35 C94.11 35 83.22 35 72 35 C72 70.31 72 105.62 72 142 C59.46 142 46.92 142 34 142 C34 107.02 34 72.04 34 36 C22.78 36 11.56 36 0 36 C0 24.12 0 12.24 0 0 Z " fill="#F992EC" transform="translate(439,103)"/>
<path d="M0 0 C2.11925604 2.11925604 1.41831017 6.6196093 1.5625 9.5625 C1.60568359 10.36880859 1.64886719 11.17511719 1.69335938 12.00585938 C1.79975262 14.00368805 1.90040888 16.0018207 2 18 C2.61188675 17.99533218 3.2237735 17.99066437 3.85420227 17.9858551 C9.7433631 17.96047974 15.59944717 18.10431838 21.48046875 18.40234375 C22.76610466 18.46537437 22.76610466 18.46537437 24.07771301 18.52967834 C25.87177635 18.61839256 27.66577787 18.70836528 29.4597168 18.79956055 C32.19105123 18.93767958 34.92263788 19.06964665 37.65429688 19.20117188 C39.40887269 19.288692 41.16343068 19.37657024 42.91796875 19.46484375 C44.12914619 19.52272316 44.12914619 19.52272316 45.36479187 19.58177185 C58.25240959 20.25240959 58.25240959 20.25240959 60 22 C60.02876153 23.47916442 59.98696512 24.95985328 59.9140625 26.4375 C59.84832031 27.77941406 59.84832031 27.77941406 59.78125 29.1484375 C59.7296875 30.08945312 59.678125 31.03046875 59.625 32 C59.55925781 33.41152344 59.55925781 33.41152344 59.4921875 34.8515625 C59.12801577 41.87198423 59.12801577 41.87198423 58 43 C56.11497491 43.04198744 54.2282769 43.00955866 52.34375 42.94921875 C50.49632202 42.89217773 50.49632202 42.89217773 48.61157227 42.83398438 C47.2410334 42.78557281 45.87050962 42.73673242 44.5 42.6875 C43.09236701 42.63995998 41.68473354 42.59243423 40.27709961 42.54492188 C28.96206725 42.1510732 17.65071949 41.65982451 6.34130859 41.1300354 C4.48606516 41.04321858 2.63075801 40.9577529 0.77539062 40.87362671 C-1.83620776 40.75412902 -4.447406 40.62812205 -7.05859375 40.5 C-7.84878403 40.46457596 -8.6389743 40.42915192 -9.45310974 40.39265442 C-14.8852626 40.1147374 -14.8852626 40.1147374 -16 39 C-16.07313567 36.46950598 -16.09247527 33.96695163 -16.0625 31.4375 C-16.05798828 30.72658203 -16.05347656 30.01566406 -16.04882812 29.28320312 C-16.03700864 27.52209987 -16.01907263 25.76103964 -16 24 C-17.17949219 24.18175781 -18.35898437 24.36351562 -19.57421875 24.55078125 C-30.5033831 26.1936267 -41.44450736 27.54457171 -52.4375 28.6875 C-53.68684326 28.81874268 -54.93618652 28.94998535 -56.22338867 29.08520508 C-67.01271644 30.180669 -67.01271644 30.180669 -72 30 C-74.58835146 27.41164854 -73.99927141 21.03989052 -74.0625 17.578125 C-74.0625 14.38479511 -74.03594039 11.19307907 -74 8 C-60.5975196 5.7123104 -47.22513957 4.10535962 -33.6875 2.875 C-30.95219278 2.62204877 -28.21706537 2.36734362 -25.48213196 2.11038208 C-23.80284124 1.95302972 -22.12331711 1.7981406 -20.44352722 1.64620972 C-1.9581145 -0.06637676 -1.9581145 -0.06637676 0 0 Z " fill="#8E6EBF" transform="translate(447,261)"/>
<path d="M0 0 C1.2294968 3.68849039 0.59985863 4.64911744 -0.8125 8.1875 C-4.02348972 16.66495729 -5.69284142 23.83193559 -5 33 C-3.95105072 34.24566973 -3.95105072 34.24566973 -1.63671875 34.3671875 C1.1705883 34.28068249 1.1705883 34.28068249 2.73046875 31.8828125 C3.21128906 30.97273438 3.69210938 30.06265625 4.1875 29.125 C6.90092879 24.09907121 6.90092879 24.09907121 9 22 C10.051875 22.2475 11.10375 22.495 12.1875 22.75 C16.46992996 23.03081508 16.87800432 22.73023099 19.9375 20.0625 C20.97643691 19.06009714 22.00368079 18.04477242 23 17 C22.96519531 17.68707031 22.93039063 18.37414062 22.89453125 19.08203125 C22.85392578 20.43361328 22.85392578 20.43361328 22.8125 21.8125 C22.77769531 22.70582031 22.74289063 23.59914063 22.70703125 24.51953125 C22.79084339 27.04167726 22.79084339 27.04167726 24.3671875 28.78515625 C25.9928667 30.14982016 25.9928667 30.14982016 28.3125 30.625 C32.59681152 29.62864848 34.40325302 26.36587145 37 23 C37.66 22.34 38.32 21.68 39 21 C38.9278125 21.75023438 38.855625 22.50046875 38.78125 23.2734375 C38.32159148 28.3424495 37.9018973 33.41144043 37.75 38.5 C37.72421875 39.2734375 37.6984375 40.046875 37.671875 40.84375 C38.08558893 43.56244155 39.22494846 44.94467717 41 47 C39.35 47.33 37.7 47.66 36 48 C36 59.22 36 70.44 36 82 C22.14 82 8.28 82 -6 82 C-6 67.15 -6 52.3 -6 37 C-6.66 37 -7.32 37 -8 37 C-9 35 -9 35 -9 29 C-17.58 29 -26.16 29 -35 29 C-32.69 25.37 -30.38 21.74 -28 18 C-25.525 18.99 -25.525 18.99 -23 20 C-22.57847656 19.3503125 -22.15695313 18.700625 -21.72265625 18.03125 C-21.17480469 17.1959375 -20.62695312 16.360625 -20.0625 15.5 C-19.24458984 14.24703125 -19.24458984 14.24703125 -18.41015625 12.96875 C-17.94480469 12.3190625 -17.47945312 11.669375 -17 11 C-16.67 11 -16.34 11 -16 11 C-15.731875 12.134375 -15.46375 13.26875 -15.1875 14.4375 C-14.795625 15.613125 -14.40375 16.78875 -14 18 C-13.01 18.33 -12.02 18.66 -11 19 C-10.76539063 18.32582031 -10.53078125 17.65164062 -10.2890625 16.95703125 C-8.67837951 13.2622221 -6.58829804 10.04548812 -4.375 6.6875 C-3.95476562 6.04232422 -3.53453125 5.39714844 -3.1015625 4.73242188 C-2.07161759 3.15239276 -1.03634372 1.57583953 0 0 Z " fill="#05070C" transform="translate(215,75)"/>
<path d="M0 0 C0.02505615 0.65597168 0.0501123 1.31194336 0.07592773 1.98779297 C0.1917326 4.95040183 0.31452886 7.91268031 0.4375 10.875 C0.47681641 11.90753906 0.51613281 12.94007813 0.55664062 14.00390625 C0.59853516 14.99003906 0.64042969 15.97617188 0.68359375 16.9921875 C0.72025146 17.90339355 0.75690918 18.81459961 0.79467773 19.75341797 C0.86577065 22.03483481 0.86577065 22.03483481 2 24 C2.08559118 26.17824961 2.10713412 28.35915255 2.09765625 30.5390625 C2.09443359 31.84101563 2.09121094 33.14296875 2.08789062 34.484375 C2.07953466 35.86458399 2.07106971 37.24479232 2.0625 38.625 C2.05748501 40.01301926 2.0529221 41.40104022 2.04882812 42.7890625 C2.03700976 46.19275132 2.02053434 49.59635439 2 53 C1.34 53 0.68 53 0 53 C0 56.96 0 60.92 0 65 C1.485 65.495 1.485 65.495 3 66 C3.02705729 67.77074917 3.04642195 69.54161711 3.0625 71.3125 C3.07410156 72.29863281 3.08570313 73.28476563 3.09765625 74.30078125 C3 77 3 77 2 80 C1.34 80 0.68 80 0 80 C-0.268125 80.86625 -0.53625 81.7325 -0.8125 82.625 C-1.97111987 85.91791964 -3.38209839 88.91127875 -5 92 C-5.66 92 -6.32 92 -7 92 C-6.979375 92.804375 -6.95875 93.60875 -6.9375 94.4375 C-7 97 -7 97 -8 98 C-10.67058851 98.14115161 -13.32432238 98.04247107 -16 98 C-18.18025278 91.14777699 -19.29935241 84.66543679 -19.3125 77.5 C-19.31765625 76.81808594 -19.3228125 76.13617188 -19.328125 75.43359375 C-19.25945419 70.49910561 -19.25945419 70.49910561 -17.99560547 68.06787109 C-16.84489633 65.67784992 -16.75560272 64.08517833 -16.76953125 61.4453125 C-16.77243164 60.15173828 -16.77243164 60.15173828 -16.77539062 58.83203125 C-16.78763672 57.93871094 -16.79988281 57.04539063 -16.8125 56.125 C-16.81314453 55.23941406 -16.81378906 54.35382813 -16.81445312 53.44140625 C-16.8452156 48.8543798 -17.0693863 44.51161521 -18 40 C-18.99 40.495 -18.99 40.495 -20 41 C-20.33 59.15 -20.66 77.3 -21 96 C-21.33 96 -21.66 96 -22 96 C-22 66.3 -22 36.6 -22 6 C-20.35 6 -18.7 6 -17 6 C-16.34 5.34 -15.68 4.68 -15 4 C-12.85559462 3.22688543 -10.68417405 2.52735287 -8.5 1.875 C-6.75203125 1.34519531 -6.75203125 1.34519531 -4.96875 0.8046875 C-2 0 -2 0 0 0 Z " fill="#575D67" transform="translate(310,139)"/>
<path d="M0 0 C0.99 0 1.98 0 3 0 C2.45144652 4.571279 1.58255197 8.67435795 0 13 C1.07314453 12.69255859 1.07314453 12.69255859 2.16796875 12.37890625 C9.79060262 10.31793539 17.11966992 9.36859608 25 9 C25 9.99 25 10.98 25 12 C23.31583984 12.29003906 23.31583984 12.29003906 21.59765625 12.5859375 C18.5170248 13.11731805 15.44170516 13.67270874 12.3671875 14.23828125 C9.8993105 14.68712967 7.50778126 15.04819374 5.0078125 15.29296875 C2.39500672 15.4972081 2.39500672 15.4972081 -1 17 C-3.18149089 20.06366119 -4.00308674 23.40507037 -5 27 C-5.4324293 28.38789856 -5.86890047 29.77454182 -6.30859375 31.16015625 C-8.472796 38.12513297 -10.25606944 44.7241956 -11 52 C-7.9597671 51.98394808 -5.83292587 51.95227187 -3 51 C-0.78976298 48.74379361 0.45602985 46.14328521 1.8125 43.3125 C2.18052734 42.60416016 2.54855469 41.89582031 2.92773438 41.16601562 C3.98170389 39.12406752 4.99507827 37.06643722 6 35 C6.87205078 33.25783203 6.87205078 33.25783203 7.76171875 31.48046875 C8.17035156 30.66191406 8.57898438 29.84335938 9 29 C9.99 29 10.98 29 12 29 C11.37802877 35.33881314 10.71457113 41.67094142 10 48 C16.04922054 41.50815357 20.23096742 34.21644947 24.37890625 26.40234375 C26.74024528 21.96835603 28.85957398 18.02958001 33 15 C38.2 15.2 38.2 15.2 40 17 C40.41221374 25.38167939 40.41221374 25.38167939 38 29 C37.34 29 36.68 29 36 29 C36 25.7 36 22.4 36 19 C28.29049704 29.96462643 26.34420204 38.96914727 25 52 C30.03217706 49.53961823 32.78915718 45.90075943 36.125 41.5625 C36.64964844 40.89412109 37.17429687 40.22574219 37.71484375 39.53710938 C39.77518818 36.90560618 41.80108945 34.29281484 43.6796875 31.52734375 C44.11539063 31.02332031 44.55109375 30.51929687 45 30 C45.99 30 46.98 30 48 30 C45.82971403 34.63097596 42.78211367 38.45399011 39.6875 42.5 C39.11837891 43.25925781 38.54925781 44.01851562 37.96289062 44.80078125 C30.55518259 54.51329855 30.55518259 54.51329855 25.375 55.5 C23 55 23 55 21.25 53.5 C19.51480978 50.02961957 19.42304319 46.85439348 19 43 C18.39414062 43.92683594 17.78828125 44.85367188 17.1640625 45.80859375 C10.41948558 55.61962887 10.41948558 55.61962887 6.390625 56.69921875 C4.72239849 56.65000089 3.05438729 56.59279385 1.38671875 56.52734375 C-2.21437706 57.24049038 -3.23029688 59.25366409 -5.3125 62.1875 C-6.56086352 64.11268712 -7.79171673 66.04940817 -9 68 C-10.57290414 70.26910761 -12.03359064 72.03359064 -14 74 C-16.8125 74.375 -16.8125 74.375 -19 74 C-19 73.34 -19 72.68 -19 72 C-17.02 71.01 -17.02 71.01 -15 70 C-15.48984375 69.59910156 -15.9796875 69.19820313 -16.484375 68.78515625 C-18.42105455 66.50406719 -18.34487717 65.39292386 -18.25 62.4375 C-18.21132812 61.12458984 -18.21132812 61.12458984 -18.171875 59.78515625 C-17.90792683 55.50799613 -17.50696782 51.25490852 -17 47 C-17.42410156 47.58910156 -17.84820312 48.17820313 -18.28515625 48.78515625 C-20.07773709 51.08202357 -21.78534369 53.10294944 -24 55 C-27.8125 55.1875 -27.8125 55.1875 -31 54 C-33.13586678 50.79619983 -33.23132175 49.98060033 -33.125 46.3125 C-33.10695312 45.50425781 -33.08890625 44.69601563 -33.0703125 43.86328125 C-33.04710937 43.24839844 -33.02390625 42.63351563 -33 42 C-33.845625 43.010625 -34.69125 44.02125 -35.5625 45.0625 C-37.19921875 46.73046875 -37.19921875 46.73046875 -39 48 C-42.875 47.875 -42.875 47.875 -46 47 C-47.32 49.31 -48.64 51.62 -50 54 C-50.99 54 -51.98 54 -53 54 C-53 49.38092893 -50.77449611 45.8073809 -48.8125 41.6875 C-48.42513672 40.84509766 -48.03777344 40.00269531 -47.63867188 39.13476562 C-45.28001234 34.14844241 -42.96125241 29.87977095 -39 26 C-36.76171875 25.4140625 -36.76171875 25.4140625 -34.6875 25.625 C-33.470625 25.74875 -32.25375 25.8725 -31 26 C-30.34 27.32 -29.68 28.64 -29 30 C-28.34 30 -27.68 30 -27 30 C-26.731875 29.236875 -26.46375 28.47375 -26.1875 27.6875 C-25.04204753 25.09516021 -24.23584819 23.69924463 -22 22 C-21.01 22 -20.02 22 -19 22 C-19.68265088 26.0959053 -20.96310765 29.7487044 -22.4375 33.625 C-24.65670526 39.70536587 -26.12416802 45.59466161 -27 52 C-16.79066493 42.7187863 -12.83713333 31.9028879 -9 19 C-9.87398438 19.24556641 -9.87398438 19.24556641 -10.765625 19.49609375 C-13.85736768 20.1933574 -16.84286393 20.06071416 -20 20 C-20 19.34 -20 18.68 -20 18 C-19.14277344 17.87367187 -18.28554687 17.74734375 -17.40234375 17.6171875 C-10.86507382 16.34992898 -10.86507382 16.34992898 -5.69726562 12.43652344 C-3.28351663 8.51260165 -1.58595581 4.31379981 0 0 Z " fill="#9F959D" transform="translate(270,51)"/>
<path d="M0 0 C2.09939785 2.09939785 1.41925196 6.64318528 1.5625 9.5625 C1.7790625 13.7390625 1.7790625 13.7390625 2 18 C-3.94 18 -9.88 18 -16 18 C-16 19.98 -16 21.96 -16 24 C-28.11651152 25.86713456 -40.24291468 27.41964356 -52.4375 28.6875 C-53.68684326 28.81874268 -54.93618652 28.94998535 -56.22338867 29.08520508 C-67.01271644 30.180669 -67.01271644 30.180669 -72 30 C-74.58835146 27.41164854 -73.99927141 21.03989052 -74.0625 17.578125 C-74.0625 14.38479511 -74.03594039 11.19307907 -74 8 C-60.5975196 5.7123104 -47.22513957 4.10535962 -33.6875 2.875 C-30.95219278 2.62204877 -28.21706537 2.36734362 -25.48213196 2.11038208 C-23.80284124 1.95302972 -22.12331711 1.7981406 -20.44352722 1.64620972 C-1.9581145 -0.06637676 -1.9581145 -0.06637676 0 0 Z " fill="#BA6DBD" transform="translate(447,261)"/>
<path d="M0 0 C0.66 0.33 1.32 0.66 2 1 C1.67 1.66 1.34 2.32 1 3 C2.32 3 3.64 3 5 3 C5.72256901 25.39963922 3.65488903 49.20122742 -11.6171875 66.87109375 C-14.75950673 70.00617261 -17.21021544 71.40858719 -21.6875 71.6875 C-25.11793049 71.44830332 -25.80322698 71.18163664 -28.4375 68.75 C-28.953125 67.8425 -29.46875 66.935 -30 66 C-30.391875 65.360625 -30.78375 64.72125 -31.1875 64.0625 C-32.2297438 61.4168042 -32.61690031 58.80939772 -33 56 C-33.66 56.99 -34.32 57.98 -35 59 C-34.92182097 55.87283899 -34.64351205 53.68513729 -32.45629883 51.35644531 C-31.83779053 50.76959961 -31.21928223 50.18275391 -30.58203125 49.578125 C-25.89888938 44.37821853 -25.46743463 39.01883977 -24.75 32.25 C-24.47971358 30.02533487 -24.20369336 27.8013587 -23.921875 25.578125 C-23.78587891 24.49595703 -23.64988281 23.41378906 -23.50976562 22.29882812 C-22.70718489 17.10511599 -21.39442343 12.06251266 -20 7 C-19.01 7 -18.02 7 -17 7 C-16.58544689 14.96863196 -17.39024229 22.33488224 -18.93286133 30.12280273 C-19.65619804 33.80567394 -20.1764596 37.24288098 -20 41 C-19.34 41 -18.68 41 -18 41 C-17.85304688 40.30777344 -17.70609375 39.61554688 -17.5546875 38.90234375 C-14.66680461 26.30519942 -9.86333821 8.96138102 0 0 Z " fill="#F08DE3" transform="translate(126,45)"/>
<path d="M0 0 C0.78375 0.04125 1.5675 0.0825 2.375 0.125 C2.66312246 5.8495383 1.65535615 10.47754598 0 15.9375 C-1.85489256 22.30177885 -3.46559532 28.5901736 -4.625 35.125 C-2.975 34.465 -1.325 33.805 0.375 33.125 C-0.375 37.875 -0.375 37.875 -2.625 40.125 C-5.125 40.375 -5.125 40.375 -7.625 40.125 C-10.09951796 37.65048204 -9.94883217 36.86062804 -10 33.4375 C-9.89155074 25.98407787 -7.72711808 19.22492493 -5.625 12.125 C-5.295 10.805 -4.965 9.485 -4.625 8.125 C-7.925 13.405 -11.225 18.685 -14.625 24.125 C-15.945 23.795 -17.265 23.465 -18.625 23.125 C-19.875 20.0625 -19.875 20.0625 -20.625 17.125 C-22.605 20.095 -24.585 23.065 -26.625 26.125 C-27.945 25.465 -29.265 24.805 -30.625 24.125 C-31.17929688 24.82367188 -31.73359375 25.52234375 -32.3046875 26.2421875 C-33.02914062 27.15226562 -33.75359375 28.06234375 -34.5 29 C-35.21929687 29.90492187 -35.93859375 30.80984375 -36.6796875 31.7421875 C-38.625 34.125 -38.625 34.125 -40.625 36.125 C-44.125 35.9375 -44.125 35.9375 -47.625 35.125 C-49.76086678 31.92119983 -49.85632175 31.10560033 -49.75 27.4375 C-49.73195312 26.62925781 -49.71390625 25.82101563 -49.6953125 24.98828125 C-49.67210937 24.37339844 -49.64890625 23.75851563 -49.625 23.125 C-50.470625 24.135625 -51.31625 25.14625 -52.1875 26.1875 C-53.828125 27.84765625 -53.828125 27.84765625 -55.625 29.125 C-59.4375 29.125 -59.4375 29.125 -62.625 28.125 C-64.15093712 25.07312577 -64.27751719 22.41153155 -63.625 19.125 C-61.49668922 14.74395413 -59.08005422 10.58005422 -55.625 7.125 C-52.93660615 6.85508094 -50.33358064 7.03762643 -47.625 7.125 C-46.965 8.445 -46.305 9.765 -45.625 11.125 C-44.965 11.125 -44.305 11.125 -43.625 11.125 C-43.356875 10.361875 -43.08875 9.59875 -42.8125 8.8125 C-41.66704753 6.22016021 -40.86084819 4.82424463 -38.625 3.125 C-37.635 3.125 -36.645 3.125 -35.625 3.125 C-36.32346898 7.6301249 -37.94549516 11.66683584 -39.625 15.875 C-41.88765657 21.68757231 -43.40032451 26.83408641 -43.625 33.125 C-34.28646253 24.63542048 -30.05570033 14.98225922 -26.625 3.125 C-25.635 3.125 -24.645 3.125 -23.625 3.125 C-23.52735126 7.90978822 -23.85387459 12.40185687 -24.625 17.125 C-22.645 14.485 -20.665 11.845 -18.625 9.125 C-17.305 9.455 -15.985 9.785 -14.625 10.125 C-14.13 12.105 -14.13 12.105 -13.625 14.125 C-12.99851563 13.28195313 -12.37203125 12.43890625 -11.7265625 11.5703125 C-10.90112676 10.46347821 -10.07560124 9.35671086 -9.25 8.25 C-8.63125 7.41662109 -8.63125 7.41662109 -8 6.56640625 C-3.20912496 0.15281547 -3.20912496 0.15281547 0 0 Z " fill="#B891B3" transform="translate(218.625,69.875)"/>
<path d="M0 0 C0.33 0 0.66 0 1 0 C1.33 12.21 1.66 24.42 2 37 C5.3 35.68 8.6 34.36 12 33 C14.0284525 32.3722572 16.06817268 31.77739162 18.125 31.25 C19.05570312 31.00765625 19.98640625 30.7653125 20.9453125 30.515625 C21.62335938 30.34546875 22.30140625 30.1753125 23 30 C26.34011748 33.51025751 26.54259232 36.86816671 26.6875 41.5 C26.72020996 42.26103027 26.75291992 43.02206055 26.78662109 43.80615234 C27.06742338 51.40861427 27.09970331 59.01813744 27.125 66.625 C27.12975342 67.82189453 27.13450684 69.01878906 27.1394043 70.25195312 C27.1078356 86.8921644 27.1078356 86.8921644 25 89 C24.76180772 91.29615554 24.76180772 91.29615554 24.75 93.9375 C24.72421875 94.83339844 24.6984375 95.72929687 24.671875 96.65234375 C24.78015625 97.42707031 24.8884375 98.20179688 25 99 C26.485 99.99 26.485 99.99 28 101 C27.34 103.97 26.68 106.94 26 110 C26.66 110 27.32 110 28 110 C26.35493736 115.24893698 24.30153504 120.2676316 22.125 125.3125 C21.78597656 126.13556641 21.44695312 126.95863281 21.09765625 127.80664062 C20.75863281 128.58845703 20.41960937 129.37027344 20.0703125 130.17578125 C19.76883301 130.88645752 19.46735352 131.59713379 19.15673828 132.3293457 C18 134 18 134 15.99560547 134.67651367 C15.33705566 134.78326416 14.67850586 134.89001465 14 135 C13.34 135.33 12.68 135.66 12 136 C10.00039988 136.039992 7.99952758 136.04346799 6 136 C5.01 134.02 4.02 132.04 3 130 C1.85185003 132.29629994 1.69230191 134.07698086 1.4375 136.625 C1.35371094 137.44226563 1.26992188 138.25953125 1.18359375 139.1015625 C1.12300781 139.72804687 1.06242187 140.35453125 1 141 C0.67 141 0.34 141 0 141 C0.06113822 132.55935696 0.13819049 124.11907508 0.23571491 115.67878151 C0.28049348 111.75983347 0.3197326 107.84099119 0.34643555 103.921875 C0.37239455 100.1415598 0.41274306 96.36164996 0.46318626 92.58158493 C0.47990542 91.13750617 0.49138818 89.69335722 0.49761391 88.2491951 C0.50719941 86.2306338 0.53692328 84.21219819 0.56762695 82.19384766 C0.58428154 80.46843246 0.58428154 80.46843246 0.60127258 78.7081604 C0.73285263 77.81446747 0.86443268 76.92077454 1 76 C2.485 75.01 2.485 75.01 4 74 C6.00252888 79.82481615 6.30407905 85.05403394 6.25 91.1875 C6.25773437 92.07630859 6.26546875 92.96511719 6.2734375 93.88085938 C6.27085937 94.73873047 6.26828125 95.59660156 6.265625 96.48046875 C6.26336914 97.25285889 6.26111328 98.02524902 6.25878906 98.82104492 C5.96871582 101.26340685 5.11759466 102.8283848 4 105 C3.80649953 107.62932991 3.71604777 110.12476525 3.75 112.75 C3.75386719 113.46575195 3.75773437 114.18150391 3.76171875 114.91894531 C3.84436152 119.95785859 4.52696812 124.21264639 6 129 C6 130.32 6 131.64 6 133 C8.64 132.67 11.28 132.34 14 132 C14.33 130.35 14.66 128.7 15 127 C15.66 127 16.32 127 17 127 C17.12246094 126.42765625 17.24492187 125.8553125 17.37109375 125.265625 C18.02762868 122.90046809 18.93723512 120.92793203 20.0625 118.75 C20.42472656 118.04359375 20.78695313 117.3371875 21.16015625 116.609375 C21.57587891 115.81273437 21.57587891 115.81273437 22 115 C22.66 115 23.32 115 24 115 C24 110.38 24 105.76 24 101 C23.34 100.67 22.68 100.34 22 100 C22 96.04 22 92.08 22 88 C22.66 88 23.32 88 24 88 C23.8818344 83.90637894 23.75759216 79.81299233 23.62768555 75.71972656 C23.58434154 74.3268741 23.54266604 72.93396869 23.50268555 71.54101562 C23.44497068 69.54023349 23.38078131 67.53964141 23.31640625 65.5390625 C23.27974854 64.33459473 23.24309082 63.13012695 23.20532227 61.88916016 C23.18947013 59.06003633 23.18947013 59.06003633 22 57 C21.91573906 55.3325394 21.89274857 53.66174813 21.90234375 51.9921875 C21.90556641 51.00605469 21.90878906 50.01992187 21.91210938 49.00390625 C21.92048828 47.97136719 21.92886719 46.93882812 21.9375 45.875 C21.94201172 44.83472656 21.94652344 43.79445312 21.95117188 42.72265625 C21.96298048 40.14838038 21.97944925 37.57421854 22 35 C20.40128012 35.4624848 18.80387356 35.92951099 17.20703125 36.3984375 C16.31733643 36.65802246 15.4276416 36.91760742 14.51098633 37.18505859 C11.5039341 38.16099835 8.81025018 39.56219758 6 41 C3.1875 41.75 3.1875 41.75 1 42 C0 41 0 41 -0.11352539 37.12280273 C-0.11336621 35.39305833 -0.10766849 33.66330919 -0.09765625 31.93359375 C-0.0962413 31.02497086 -0.09482635 30.11634796 -0.09336853 29.18019104 C-0.08775193 26.26592779 -0.07519665 23.35174019 -0.0625 20.4375 C-0.05748714 18.46679798 -0.05292386 16.49609476 -0.04882812 14.52539062 C-0.03777711 9.68356441 -0.02050138 4.84179505 0 0 Z " fill="#252932" transform="translate(288,104)"/>
<path d="M0 0 C2.375 0.125 2.375 0.125 5 1 C8.65959464 5.41585292 8.42819243 9.67192283 8.3125 15.125 C8.29993164 16.38727417 8.29993164 16.38727417 8.28710938 17.67504883 C8.16698058 23.92354799 7.52897444 29.92505689 6 36 C8.97 35.505 8.97 35.505 12 35 C12.66 32.36 13.32 29.72 14 27 C14.99 27 15.98 27 17 27 C17.12920865 33.71884955 16.62422779 40.31184516 16 47 C16.47050781 46.09636719 16.94101563 45.19273438 17.42578125 44.26171875 C18.05439878 43.07016014 18.68332109 41.87876228 19.3125 40.6875 C19.62123047 40.09259766 19.92996094 39.49769531 20.24804688 38.88476562 C23.4805445 32.79405957 23.4805445 32.79405957 26 31 C27.32 31 28.64 31 30 31 C30 31.66 30 32.32 30 33 C29.26007813 33.69996094 28.52015625 34.39992187 27.7578125 35.12109375 C24.51376814 38.50758199 22.82855694 41.85038414 20.875 46.0625 C16.8435964 54.60004779 16.8435964 54.60004779 14 58 C10.125 57.125 10.125 57.125 9 56 C8.49626597 49.19959057 10.00003972 43.47606186 12 37 C9.69 37 7.38 37 5 37 C4.938125 38.0725 4.87625 39.145 4.8125 40.25 C3.55489373 50.11871589 -1.61208427 61.14472993 -9.0546875 67.8515625 C-15.49484561 72.8291206 -20.89483099 73.83190884 -29 73 C-32.78005576 71.03122096 -33.80667899 69.34797781 -35.875 65.625 C-37.05916688 61.80935116 -37.17251584 59.78812811 -36 56 C-35.01 55.505 -35.01 55.505 -34 55 C-33.90203125 55.58007812 -33.8040625 56.16015625 -33.703125 56.7578125 C-32.72124096 61.88731018 -31.80340652 66.19659348 -28 70 C-23.96847244 71.24047002 -20.61939164 70.83359828 -16.8828125 68.91015625 C-5.97278353 60.5684415 -1.33307463 44.10288207 0.6875 31.0625 C0.81487549 30.25707764 0.94225098 29.45165527 1.07348633 28.62182617 C2.31148529 20.07705934 2.27778837 11.61143939 2 3 C0.35 3.66 -1.3 4.32 -3 5 C-1.125 1.125 -1.125 1.125 0 0 Z " fill="#F08EE3" transform="translate(128,45)"/>
<path d="M0 0 C2.75 0.875 2.75 0.875 3.75 1.875 C4.16221374 10.25667939 4.16221374 10.25667939 1.75 13.875 C1.09 13.875 0.43 13.875 -0.25 13.875 C-0.25 10.575 -0.25 7.275 -0.25 3.875 C-7.95950296 14.83962643 -9.90579796 23.84414727 -11.25 36.875 C-6.21782294 34.41461823 -3.46084282 30.77575943 -0.125 26.4375 C0.39964844 25.76912109 0.92429687 25.10074219 1.46484375 24.41210938 C3.52518818 21.78060618 5.55108945 19.16781484 7.4296875 16.40234375 C7.86539063 15.89832031 8.30109375 15.39429687 8.75 14.875 C9.74 14.875 10.73 14.875 11.75 14.875 C9.57971403 19.50597596 6.53211367 23.32899011 3.4375 27.375 C2.86837891 28.13425781 2.29925781 28.89351562 1.71289062 29.67578125 C-5.69481741 39.38829855 -5.69481741 39.38829855 -10.875 40.375 C-13.25 39.875 -13.25 39.875 -15 38.375 C-16.73519022 34.90461957 -16.82695681 31.72939348 -17.25 27.875 C-18.21099609 29.28265625 -18.21099609 29.28265625 -19.19140625 30.71875 C-20.06389878 31.93836322 -20.93766421 33.15706652 -21.8125 34.375 C-22.43995117 35.30505859 -22.43995117 35.30505859 -23.08007812 36.25390625 C-24.3752304 38.02621988 -25.5478516 39.48612198 -27.25 40.875 C-30.9375 41.4375 -30.9375 41.4375 -34.25 40.875 C-36.6875 38.375 -36.6875 38.375 -38.25 35.875 C-36.48465356 31.03484684 -34.05463275 26.5914873 -31.625 22.0625 C-31.20476562 21.27423828 -30.78453125 20.48597656 -30.3515625 19.67382812 C-29.3199991 17.73964674 -28.28608828 15.80676017 -27.25 13.875 C-26.26 13.875 -25.27 13.875 -24.25 13.875 C-24.87197123 20.21381314 -25.53542887 26.54594142 -26.25 32.875 C-20.20077946 26.38315357 -16.01903258 19.09144947 -11.87109375 11.27734375 C-5.74756968 -0.22106037 -5.74756968 -0.22106037 0 0 Z " fill="#979797" transform="translate(306.25,66.125)"/>
<path d="M0 0 C-0.44742236 11.18555898 -5.52706282 21.31044856 -13.16796875 29.328125 C-17.10759672 32.92335052 -19.69887742 33.48648349 -24.83984375 33.39453125 C-27 33 -27 33 -29.5 30.625 C-32.34837395 25.64034558 -32.52930418 21.71469087 -32 16 C-30.5625 12.875 -30.5625 12.875 -29 11 C-28.67 11 -28.34 11 -28 11 C-27.67 14.96 -27.34 18.92 -27 23 C-25.68 23.33 -24.36 23.66 -23 24 C-22.72736328 22.96552734 -22.72736328 22.96552734 -22.44921875 21.91015625 C-21.92444331 19.94830344 -21.3858478 17.99011261 -20.8359375 16.03515625 C-20.31905361 14.15843298 -19.83753536 12.2710753 -19.4140625 10.37109375 C-17.96674841 4.66642067 -17.96674841 4.66642067 -15.27734375 2.8125 C-10.47282847 0.88699099 -5.16824833 0 0 0 Z " fill="#959395" transform="translate(127,83)"/>
<path d="M0 0 C-3.79039366 2.12999997 -6.65736138 2.16702456 -11 2 C-10.80470703 3.10794922 -10.80470703 3.10794922 -10.60546875 4.23828125 C-9.59550137 11.66673293 -10.44915949 15.91420812 -13.91796875 22.5078125 C-15.49243331 26.13419657 -15.07722636 28.27113953 -14 32 C-16.95664519 33.4783226 -19.74229737 33.06032783 -23 33 C-23 32.34 -23 31.68 -23 31 C-23.804375 30.731875 -24.60875 30.46375 -25.4375 30.1875 C-26.283125 29.795625 -27.12875 29.40375 -28 29 C-29.0592918 25.82212459 -29.11458939 23.57411057 -29.09765625 20.23828125 C-29.09443359 19.12001953 -29.09121094 18.00175781 -29.08789062 16.84960938 C-29.07951172 15.68236328 -29.07113281 14.51511719 -29.0625 13.3125 C-29.05573242 11.54422852 -29.05573242 11.54422852 -29.04882812 9.74023438 C-29.03703273 6.82677211 -29.0205727 3.91341137 -29 1 C-20.75335296 -3.49462861 -9.05604371 -1.03497642 0 0 Z " fill="#545962" transform="translate(280,246)"/>
<path d="M0 0 C-0.68265088 4.0959053 -1.96310765 7.7487044 -3.4375 11.625 C-5.67207709 17.74748291 -7.04290785 23.5613801 -8 30 C-5.36 28.35 -2.72 26.7 0 25 C-1.05360003 29.21440011 -1.52779432 30.53290649 -5 33 C-8.625 32.9375 -8.625 32.9375 -12 32 C-14.13586678 28.79619983 -14.23132175 27.98060033 -14.125 24.3125 C-14.10695312 23.50425781 -14.08890625 22.69601563 -14.0703125 21.86328125 C-14.04710937 21.24839844 -14.02390625 20.63351563 -14 20 C-14.845625 21.010625 -15.69125 22.02125 -16.5625 23.0625 C-18.19921875 24.73046875 -18.19921875 24.73046875 -20 26 C-23.875 25.875 -23.875 25.875 -27 25 C-28.32 27.31 -29.64 29.62 -31 32 C-31.99 32 -32.98 32 -34 32 C-34 27.38092893 -31.77449611 23.8073809 -29.8125 19.6875 C-29.42513672 18.84509766 -29.03777344 18.00269531 -28.63867188 17.13476562 C-26.28001234 12.14844241 -23.96125241 7.87977095 -20 4 C-17.76171875 3.4140625 -17.76171875 3.4140625 -15.6875 3.625 C-14.470625 3.74875 -13.25375 3.8725 -12 4 C-11.34 5.32 -10.68 6.64 -10 8 C-9.34 8 -8.68 8 -8 8 C-7.731875 7.236875 -7.46375 6.47375 -7.1875 5.6875 C-5.44418366 1.74209986 -4.44526451 0 0 0 Z " fill="#A992A6" transform="translate(251,73)"/>
<path d="M0 0 C3.12773585 2.61890649 4.338185 5.63483777 5.91796875 9.34765625 C6.18007645 9.96015732 6.44218414 10.57265839 6.7122345 11.20372009 C7.262687 12.49413323 7.80963201 13.78604753 8.35327148 15.0793457 C9.18746256 17.06241098 10.03321467 19.04023144 10.88085938 21.01757812 C15 30.70472765 15 30.70472765 15 33 C5.43 33 -4.14 33 -14 33 C-9.59962269 21.84731957 -5.20456956 10.80342469 0 0 Z " fill="#202639" transform="translate(376,168)"/>
<path d="M0 0 C-0.69846898 4.5051249 -2.32049516 8.54183584 -4 12.75 C-6.26265657 18.56257231 -7.77532451 23.70908641 -8 30 C-5.36 28.35 -2.72 26.7 0 25 C-1.05360003 29.21440011 -1.52779432 30.53290649 -5 33 C-8.625 32.9375 -8.625 32.9375 -12 32 C-14.13586678 28.79619983 -14.23132175 27.98060033 -14.125 24.3125 C-14.10695312 23.50425781 -14.08890625 22.69601563 -14.0703125 21.86328125 C-14.04710937 21.24839844 -14.02390625 20.63351563 -14 20 C-14.845625 21.010625 -15.69125 22.02125 -16.5625 23.0625 C-18.203125 24.72265625 -18.203125 24.72265625 -20 26 C-23.8125 26 -23.8125 26 -27 25 C-28.52593712 21.94812577 -28.65251719 19.28653155 -28 16 C-25.87168922 11.61895413 -23.45505422 7.45505422 -20 4 C-17.31160615 3.73008094 -14.70858064 3.91262643 -12 4 C-11.34 5.32 -10.68 6.64 -10 8 C-9.34 8 -8.68 8 -8 8 C-7.731875 7.236875 -7.46375 6.47375 -7.1875 5.6875 C-5.44418366 1.74209986 -4.44526451 0 0 0 Z " fill="#D88FCF" transform="translate(183,73)"/>
<path d="M0 0 C0.99 0.33 1.98 0.66 3 1 C3.54520734 27.98776343 3.54520734 27.98776343 -0.125 33.7734375 C-2.99557345 35.65127096 -5.8101937 35.784702 -9.1875 36.1875 C-10.45980469 36.34605469 -11.73210937 36.50460938 -13.04296875 36.66796875 C-14.01878906 36.77753906 -14.99460937 36.88710937 -16 37 C-14.87401432 24.98507046 -9.18493944 8.34501872 0 0 Z " fill="#06050B" transform="translate(128,47)"/>
<path d="M0 0 C17.49 0 34.98 0 53 0 C52.01 0.33 51.02 0.66 50 1 C50.495 5.95 50.495 5.95 51 11 C50.34 11.33 49.68 11.66 49 12 C48.505 8.04 48.505 8.04 48 4 C40.08 4.495 40.08 4.495 32 5 C29.38357251 12.84928247 32.34944267 22.24332654 34.37890625 29.9921875 C35.01621974 33.07854843 35.10786287 35.85790784 35 39 C35.99 39.33 36.98 39.66 38 40 C35.36 40 32.72 40 30 40 C29.94392578 38.72769531 29.94392578 38.72769531 29.88671875 37.4296875 C29.46040989 29.82299997 28.49041648 22.77484507 26.71875 15.3515625 C25.91629043 11.60965864 25.47467861 7.79742888 25 4 C19.39 4 13.78 4 8 4 C7.67 4.66 7.34 5.32 7 6 C7.66 6.33 8.32 6.66 9 7 C8.07767578 6.96519531 8.07767578 6.96519531 7.13671875 6.9296875 C6.32847656 6.91164062 5.52023437 6.89359375 4.6875 6.875 C3.48673828 6.84019531 3.48673828 6.84019531 2.26171875 6.8046875 C-0.28388576 6.84182678 -0.28388576 6.84182678 -3 9 C-2.01 6.03 -1.02 3.06 0 0 Z " fill="#282133" transform="translate(350,228)"/>
<path d="M0 0 C1.2294968 3.68849039 0.59985863 4.64911744 -0.8125 8.1875 C-3.88696527 16.31515214 -5.23065637 22.60249459 -4.97265625 31.36328125 C-5 34 -5 34 -6 37 C-6.66 37 -7.32 37 -8 37 C-9 35 -9 35 -9 29 C-17.58 29 -26.16 29 -35 29 C-32.69 25.37 -30.38 21.74 -28 18 C-25.525 18.99 -25.525 18.99 -23 20 C-22.57847656 19.3503125 -22.15695313 18.700625 -21.72265625 18.03125 C-21.17480469 17.1959375 -20.62695312 16.360625 -20.0625 15.5 C-19.24458984 14.24703125 -19.24458984 14.24703125 -18.41015625 12.96875 C-17.94480469 12.3190625 -17.47945312 11.669375 -17 11 C-16.67 11 -16.34 11 -16 11 C-15.731875 12.134375 -15.46375 13.26875 -15.1875 14.4375 C-14.795625 15.613125 -14.40375 16.78875 -14 18 C-13.01 18.33 -12.02 18.66 -11 19 C-10.76539063 18.32582031 -10.53078125 17.65164062 -10.2890625 16.95703125 C-8.67837951 13.2622221 -6.58829804 10.04548812 -4.375 6.6875 C-3.95476562 6.04232422 -3.53453125 5.39714844 -3.1015625 4.73242188 C-2.07161759 3.15239276 -1.03634372 1.57583953 0 0 Z " fill="#0C0D11" transform="translate(215,75)"/>
<path d="M0 0 C12.55555556 0 12.55555556 0 16 3 C18 6 18 6 17.75 8.9375 C17 12 17 12 15.8046875 13.92578125 C14.71655384 16.01881373 14.71655384 16.01881373 15.8984375 18.140625 C16.62933594 19.18476562 16.62933594 19.18476562 17.375 20.25 C18.09816406 21.30960938 18.09816406 21.30960938 18.8359375 22.390625 C19.22007813 22.92171875 19.60421875 23.4528125 20 24 C14.80310881 24.70466321 14.80310881 24.70466321 12 24 C9.78043995 21.59591596 8.37246019 18.95606811 7 16 C6.67 18.64 6.34 21.28 6 24 C4.02 24 2.04 24 0 24 C0 16.08 0 8.16 0 0 Z " fill="#E35556" transform="translate(25,5)"/>
<path d="M0 0 C4.95 0 9.9 0 15 0 C15 1.98 15 3.96 15 6 C12.03 6 9.06 6 6 6 C6 6.99 6 7.98 6 9 C8.64 9 11.28 9 14 9 C14 10.98 14 12.96 14 15 C11.36 15 8.72 15 6 15 C6 15.99 6 16.98 6 18 C8.97 18 11.94 18 15 18 C15 19.98 15 21.96 15 24 C10.05 24 5.1 24 0 24 C0 16.08 0 8.16 0 0 Z " fill="#E05454" transform="translate(66,5)"/>
<path d="M0 0 C4.95 0 9.9 0 15 0 C15 1.98 15 3.96 15 6 C12.03 6 9.06 6 6 6 C6 6.99 6 7.98 6 9 C8.64 9 11.28 9 14 9 C14 10.98 14 12.96 14 15 C11.36 15 8.72 15 6 15 C6 15.99 6 16.98 6 18 C8.97 18 11.94 18 15 18 C15 19.98 15 21.96 15 24 C10.05 24 5.1 24 0 24 C0 16.08 0 8.16 0 0 Z " fill="#E05454" transform="translate(47,5)"/>
<path d="M0 0 C-0.44769817 6.04392525 -1.50038886 14.50038886 -6 19 C-7.60773906 18.9355733 -9.21283223 18.79831686 -10.8125 18.625 C-11.68519531 18.53476563 -12.55789062 18.44453125 -13.45703125 18.3515625 C-15.70260073 18.04111511 -17.81681337 17.60050355 -20 17 C-19.53835542 11.64492282 -19.06257418 7.58755968 -16 3 C-12.71484375 1.7578125 -12.71484375 1.7578125 -8.9375 1.125 C-7.06384766 0.78855469 -7.06384766 0.78855469 -5.15234375 0.4453125 C-2 0 -2 0 0 0 Z " fill="#08060C" transform="translate(127,83)"/>
<path d="M0 0 C0.99 0 1.98 0 3 0 C3.09764874 4.78478822 2.77112541 9.27685687 2 14 C3.98 11.36 5.96 8.72 8 6 C9.32 6.33 10.64 6.66 12 7 C12.33 8.32 12.66 9.64 13 11 C14.65 10.01 16.3 9.02 18 8 C17.51675181 13.15464734 14.81389239 16.81550319 12 21 C10.078125 20.69140625 10.078125 20.69140625 8 20 C6.75 16.9375 6.75 16.9375 6 14 C4.02 16.97 2.04 19.94 0 23 C-1.32 22.34 -2.64 21.68 -4 21 C-5.1446875 22.2065625 -5.1446875 22.2065625 -6.3125 23.4375 C-9 26 -9 26 -12 27 C-10.58137285 24.02088298 -8.92350374 21.32548631 -7.125 18.5625 C-3.56308338 12.72200437 -1.75193609 6.57491307 0 0 Z " fill="#C690BF" transform="translate(192,73)"/>
<path d="M0 0 C-3.79039366 2.12999997 -6.65736138 2.16702456 -11 2 C-10.80470703 3.10794922 -10.80470703 3.10794922 -10.60546875 4.23828125 C-9.59550137 11.66673293 -10.44915949 15.91420812 -13.91796875 22.5078125 C-15.49243331 26.13419657 -15.07722636 28.27113953 -14 32 C-16.95664519 33.4783226 -19.74229737 33.06032783 -23 33 C-23 32.34 -23 31.68 -23 31 C-23.804375 30.731875 -24.60875 30.46375 -25.4375 30.1875 C-26.283125 29.795625 -27.12875 29.40375 -28 29 C-29.0592918 25.82212459 -29.11458939 23.57411057 -29.09765625 20.23828125 C-29.09443359 19.12001953 -29.09121094 18.00175781 -29.08789062 16.84960938 C-29.07951172 15.68236328 -29.07113281 14.51511719 -29.0625 13.3125 C-29.05573242 11.54422852 -29.05573242 11.54422852 -29.04882812 9.74023438 C-29.03703273 6.82677211 -29.0205727 3.91341137 -29 1 C-20.75335296 -3.49462861 -9.05604371 -1.03497642 0 0 Z M-26 2 C-26.28106485 6.30582826 -26.23180744 10.62358947 -26.25 14.9375 C-26.270625 16.15630859 -26.29125 17.37511719 -26.3125 18.63085938 C-26.31765625 19.79294922 -26.3228125 20.95503906 -26.328125 22.15234375 C-26.3374707 23.22476318 -26.34681641 24.29718262 -26.35644531 25.40209961 C-26.23881836 26.25940674 -26.12119141 27.11671387 -26 28 C-22.77208445 30.1519437 -21.71599191 30.20086443 -18 30 C-17.87882812 29.31292969 -17.75765625 28.62585938 -17.6328125 27.91796875 C-17.46523438 27.01691406 -17.29765625 26.11585938 -17.125 25.1875 C-16.88136719 23.84751953 -16.88136719 23.84751953 -16.6328125 22.48046875 C-16 20 -16 20 -14 17 C-13.83168907 14.41542872 -13.76643666 11.95454727 -13.8125 9.375 C-13.8134668 8.33472656 -13.8134668 8.33472656 -13.81445312 7.2734375 C-13.54991247 3.84828846 -13.54991247 3.84828846 -15 1 C-16.66429051 0.90176063 -18.33281931 0.87026369 -20 0.875 C-20.9075 0.87242187 -21.815 0.86984375 -22.75 0.8671875 C-24.96966611 0.74826221 -24.96966611 0.74826221 -26 2 Z " fill="#232730" transform="translate(280,246)"/>
<path d="M0 0 C0.99 0 1.98 0 3 0 C2.37802877 6.33881314 1.71457113 12.67094142 1 19 C1.37511719 18.50628906 1.75023437 18.01257813 2.13671875 17.50390625 C6.36878216 12.2058319 6.36878216 12.2058319 9.875 11.0625 C10.57625 11.041875 11.2775 11.02125 12 11 C12 11.66 12 12.32 12 13 C10.86513558 14.13486442 9.72298293 15.26311878 8.55078125 16.359375 C6.66002437 18.35967195 5.19749847 20.55491754 3.625 22.8125 C0.50871304 26.87928843 0.50871304 26.87928843 -3.6875 27.875 C-7.69553104 26.81627482 -8.83650665 25.46158935 -11 22 C-9.23465356 17.15984684 -6.80463275 12.7164873 -4.375 8.1875 C-3.95476562 7.39923828 -3.53453125 6.61097656 -3.1015625 5.79882812 C-2.0699991 3.86464674 -1.03608828 1.93176017 0 0 Z " fill="#949294" transform="translate(279,80)"/>
<path d="M0 0 C4.95 0 9.9 0 15 0 C15 1.98 15 3.96 15 6 C12.03 6 9.06 6 6 6 C6 7.32 6 8.64 6 10 C8.64 10 11.28 10 14 10 C14 11.65 14 13.3 14 15 C11.36 15 8.72 15 6 15 C6 17.97 6 20.94 6 24 C4.02 24 2.04 24 0 24 C0 16.08 0 8.16 0 0 Z " fill="#E55656" transform="translate(7,5)"/>
<path d="M0 0 C0.66 0.33 1.32 0.66 2 1 C3.33427637 6.28611404 3.18355721 11.70760577 3.1875 17.125 C3.19974609 18.01832031 3.21199219 18.91164062 3.22460938 19.83203125 C3.22654297 20.69441406 3.22847656 21.55679688 3.23046875 22.4453125 C3.23457764 23.22406738 3.23868652 24.00282227 3.24291992 24.80517578 C2.97049022 27.26662605 2.12782078 28.81579166 1 31 C0.80649953 33.62932991 0.71604777 36.12476525 0.75 38.75 C0.75386719 39.46575195 0.75773437 40.18150391 0.76171875 40.91894531 C0.84436152 45.95785859 1.52696812 50.21264639 3 55 C3 56.32 3 57.64 3 59 C5.31 59 7.62 59 10 59 C8.515 59.495 8.515 59.495 7 60 C7 60.66 7 61.32 7 62 C4.625 61.8125 4.625 61.8125 2 61 C0.6875 58.4375 0.6875 58.4375 0 56 C-1.14814997 58.29629994 -1.30769809 60.07698086 -1.5625 62.625 C-1.68818359 63.85089844 -1.68818359 63.85089844 -1.81640625 65.1015625 C-1.87699219 65.72804688 -1.93757813 66.35453125 -2 67 C-2.33 67 -2.66 67 -3 67 C-2.9157192 58.55942974 -2.82088439 50.11907303 -2.71247292 41.67878151 C-2.66246998 37.75984887 -2.61614057 33.84094371 -2.578125 29.921875 C-2.5413223 26.14163767 -2.49497657 22.36162809 -2.44193649 18.58158493 C-2.42336573 17.13749552 -2.40826772 15.69335724 -2.39665604 14.2491951 C-2.37984008 12.23064937 -2.34966895 10.21222812 -2.31884766 8.19384766 C-2.30552399 7.04357086 -2.29220032 5.89329407 -2.2784729 4.7081604 C-2 2 -2 2 0 0 Z " fill="#313A4D" transform="translate(291,178)"/>
<path d="M0 0 C0.99 0 1.98 0 3 0 C3.12920865 6.71884955 2.62422779 13.31184516 2 20 C2.70576172 18.64455078 2.70576172 18.64455078 3.42578125 17.26171875 C4.05439878 16.07016014 4.68332109 14.87876228 5.3125 13.6875 C5.62123047 13.09259766 5.92996094 12.49769531 6.24804688 11.88476562 C9.4805445 5.79405957 9.4805445 5.79405957 12 4 C13.32 4 14.64 4 16 4 C16 4.66 16 5.32 16 6 C15.26007813 6.69996094 14.52015625 7.39992188 13.7578125 8.12109375 C10.51376814 11.50758199 8.82855694 14.85038414 6.875 19.0625 C2.8435964 27.60004779 2.8435964 27.60004779 0 31 C-3.875 30.125 -3.875 30.125 -5 29 C-5.50373403 22.19959057 -3.99996028 16.47606186 -2 10 C-2.66 9.67 -3.32 9.34 -4 9 C-3.34 8.67 -2.68 8.34 -2 8 C-1.31527335 6.11235097 -1.31527335 6.11235097 -0.875 3.9375 C-0.62363281 2.83728516 -0.62363281 2.83728516 -0.3671875 1.71484375 C-0.24601563 1.14894531 -0.12484375 0.58304687 0 0 Z " fill="#E58CDA" transform="translate(142,72)"/>
<path d="M0 0 C0.33 0 0.66 0 1 0 C2.58113725 11.32892512 3.30121494 22.63802186 3.6875 34.0625 C3.71214325 34.74387024 3.7367865 35.42524048 3.76217651 36.1272583 C3.83094207 38.07550833 3.89028061 40.02408416 3.94921875 41.97265625 C3.98362061 43.10968994 4.01802246 44.24672363 4.0534668 45.41821289 C4 48 4 48 3 49 C2.76180772 51.29615554 2.76180772 51.29615554 2.75 53.9375 C2.72421875 54.83339844 2.6984375 55.72929687 2.671875 56.65234375 C2.78015625 57.42707031 2.8884375 58.20179688 3 59 C3.99 59.66 4.98 60.32 6 61 C5.34 63.97 4.68 66.94 4 70 C4.66 70 5.32 70 6 70 C4.35493736 75.24893698 2.30153504 80.2676316 0.125 85.3125 C-0.21402344 86.13556641 -0.55304688 86.95863281 -0.90234375 87.80664062 C-1.24136719 88.58845703 -1.58039063 89.37027344 -1.9296875 90.17578125 C-2.38190674 91.24179565 -2.38190674 91.24179565 -2.84326172 92.3293457 C-4 94 -4 94 -5.98876953 94.70385742 C-6.65247559 94.80158447 -7.31618164 94.89931152 -8 95 C-8.7425 95.185625 -9.485 95.37125 -10.25 95.5625 C-11.11625 95.7790625 -11.11625 95.7790625 -12 96 C-12 95.34 -12 94.68 -12 94 C-11.360625 93.773125 -10.72125 93.54625 -10.0625 93.3125 C-7.72806339 92.14749104 -7.72806339 92.14749104 -7.25 89.375 C-7.1675 88.59125 -7.085 87.8075 -7 87 C-6.34 87 -5.68 87 -5 87 C-4.87753906 86.42765625 -4.75507813 85.8553125 -4.62890625 85.265625 C-3.97237132 82.90046809 -3.06276488 80.92793203 -1.9375 78.75 C-1.57527344 78.04359375 -1.21304687 77.3371875 -0.83984375 76.609375 C-0.42412109 75.81273437 -0.42412109 75.81273437 0 75 C0.66 75 1.32 75 2 75 C2 70.38 2 65.76 2 61 C1.34 60.67 0.68 60.34 0 60 C0 56.04 0 52.08 0 48 C0.66 48 1.32 48 2 48 C1.8818344 43.90637894 1.75759216 39.81299233 1.62768555 35.71972656 C1.58434154 34.3268741 1.54266604 32.93396869 1.50268555 31.54101562 C1.44497068 29.54023349 1.38078131 27.53964141 1.31640625 25.5390625 C1.27974854 24.33459473 1.24309082 23.13012695 1.20532227 21.88916016 C1.18947013 19.06003633 1.18947013 19.06003633 0 17 C-0.07194869 14.11629667 -0.09291708 11.25760336 -0.0625 8.375 C-0.05573242 7.17230469 -0.05573242 7.17230469 -0.04882812 5.9453125 C-0.03703168 3.96350994 -0.01909605 1.98174567 0 0 Z " fill="#2E343F" transform="translate(310,144)"/>
<path d="M0 0 C2 2 2 2 2.22705078 4.88916016 C2.21657715 6.09362793 2.20610352 7.2980957 2.1953125 8.5390625 C2.18564453 10.49199219 2.18564453 10.49199219 2.17578125 12.484375 C2.15906929 13.86458595 2.14213939 15.24479429 2.125 16.625 C2.11497006 18.01301452 2.10584423 19.40103589 2.09765625 20.7890625 C2.07401863 24.19288026 2.04106867 27.59635506 2 31 C1.34 31 0.68 31 0 31 C0 34.96 0 38.92 0 43 C0.99 43.33 1.98 43.66 3 44 C3.02705729 45.77074917 3.04642195 47.54161711 3.0625 49.3125 C3.07410156 50.29863281 3.08570313 51.28476563 3.09765625 52.30078125 C3 55 3 55 2 58 C1.34 58 0.68 58 0 58 C-0.66 59.98 -1.32 61.96 -2 64 C-2.33 64 -2.66 64 -3 64 C-2.91621094 63.23816406 -2.83242188 62.47632813 -2.74609375 61.69140625 C-2.19185491 56.07184532 -1.96775682 50.92418053 -2.734375 45.3359375 C-3.47239545 38.84569882 -3.40576207 32.39553134 -2.0625 26 C-0.28726257 17.47634226 -0.32286172 8.67478475 0 0 Z " fill="#484F5B" transform="translate(310,161)"/>
<path d="M0 0 C0.66 0.33 1.32 0.66 2 1 C1.34 1.66 0.68 2.32 0 3 C-0.74591624 4.68399374 -1.48707752 6.37051291 -2.18798828 8.07373047 C-3.47656999 11.13052833 -4.98154579 14.08249572 -6.4375 17.0625 C-9.84928345 24.18803453 -12.09900284 31.33697418 -14 39 C-13.01257813 38.7834375 -12.02515625 38.566875 -11.0078125 38.34375 C-9.72648437 38.0653125 -8.44515625 37.786875 -7.125 37.5 C-5.84882812 37.2215625 -4.57265625 36.943125 -3.2578125 36.65625 C0 36 0 36 2 36 C1.67 37.32 1.34 38.64 1 40 C1 39.34 1 38.68 1 38 C-0.13179687 38.28875 -1.26359375 38.5775 -2.4296875 38.875 C-3.91142697 39.25012392 -5.39319953 39.62511714 -6.875 40 C-7.62136719 40.19078125 -8.36773437 40.3815625 -9.13671875 40.578125 C-14.7734375 42 -14.7734375 42 -17 42 C-18.32 44.97 -19.64 47.94 -21 51 C-21.33 51 -21.66 51 -22 51 C-22 47.7 -22 44.4 -22 41 C-20.68 41 -19.36 41 -18 41 C-17.85304688 40.30777344 -17.70609375 39.61554688 -17.5546875 38.90234375 C-14.66680461 26.30519942 -9.86333821 8.96138102 0 0 Z " fill="#E686D9" transform="translate(126,45)"/>
<path d="M0 0 C8.24433636 -0.12512484 16.3760392 0.16577746 24.59765625 0.78515625 C27.34300376 0.95851344 30.0041642 1.01307346 32.75 0.9375 C36 1 36 1 39 3 C38.01 3 37.02 3 36 3 C36 3.66 36 4.32 36 5 C36.66 5.33 37.32 5.66 38 6 C35.24993392 6.0270203 32.50013454 6.04684883 29.75 6.0625 C28.97269531 6.07087891 28.19539063 6.07925781 27.39453125 6.08789062 C26.26337891 6.09272461 26.26337891 6.09272461 25.109375 6.09765625 C24.07248535 6.10551147 24.07248535 6.10551147 23.01464844 6.11352539 C20.89539569 5.99410555 19.05502709 5.51375677 17 5 C15.63199181 4.92291277 14.26076408 4.89196391 12.890625 4.90234375 C11.75947266 4.90717773 11.75947266 4.90717773 10.60546875 4.91210938 C9.82816406 4.92048828 9.05085938 4.92886719 8.25 4.9375 C7.45722656 4.94201172 6.66445313 4.94652344 5.84765625 4.95117188 C3.89840492 4.96291435 1.94919262 4.98084854 0 5 C0 3.35 0 1.7 0 0 Z " fill="#CCDBEA" transform="translate(384,32)"/>
<path d="M0 0 C1.65 0.33 3.3 0.66 5 1 C4.67 1.99 4.34 2.98 4 4 C2.68 4 1.36 4 0 4 C0 48.88 0 93.76 0 140 C-0.33 140 -0.66 140 -1 140 C-1.02334414 122.18923296 -1.04098664 104.37846988 -1.05181217 86.56769085 C-1.0569719 78.2981331 -1.06400847 70.02858485 -1.07543945 61.7590332 C-1.08539613 54.55261552 -1.09185578 47.34620471 -1.09408849 40.13978034 C-1.09539392 36.32285544 -1.09846922 32.50595021 -1.10573006 28.6890316 C-1.11250577 25.09812065 -1.11461378 21.50723753 -1.11310768 17.9163208 C-1.11351496 15.96669663 -1.1189021 14.01707551 -1.12442017 12.06745911 C-1.1230455 10.91059601 -1.12167084 9.75373291 -1.12025452 8.56181335 C-1.12117631 7.55429362 -1.1220981 6.54677389 -1.12304783 5.50872326 C-1 3 -1 3 0 0 Z " fill="#4F494F" transform="translate(172,105)"/>
<path d="M0 0 C2.4375 0.25 2.4375 0.25 5 1 C6.90318884 3.85478326 7.4619099 5.41941308 8.125 8.6875 C8.29257812 9.49574219 8.46015625 10.30398437 8.6328125 11.13671875 C8.75398438 11.75160156 8.87515625 12.36648437 9 13 C10.65 12.67 12.3 12.34 14 12 C14 12.66 14 13.32 14 14 C4.43 14 -5.14 14 -15 14 C-15 13.67 -15 13.34 -15 13 C-10.71 13 -6.42 13 -2 13 C-1.855625 11.040625 -1.71125 9.08125 -1.5625 7.0625 C-1.125 1.125 -1.125 1.125 0 0 Z " fill="#4B4D5B" transform="translate(377,187)"/>
<path d="M0 0 C2.98491775 2.53988967 4.1877836 5.29460845 5.69921875 8.875 C6.18583984 10.02484375 6.67246094 11.1746875 7.17382812 12.359375 C7.67333984 13.56078125 8.17285156 14.7621875 8.6875 16 C9.19861328 17.20140625 9.70972656 18.4028125 10.23632812 19.640625 C14 28.60509846 14 28.60509846 14 32 C12.68 32 11.36 32 10 32 C7.78364613 28.67546919 7.0863195 25.83406881 6 22 C4.41778011 17.37935529 4.41778011 17.37935529 1.44921875 13.61328125 C-0.50863318 11.4337857 -0.52869626 9.8272162 -0.75 6.9375 C-0.82734375 6.05964844 -0.9046875 5.18179688 -0.984375 4.27734375 C-1 2 -1 2 0 0 Z " fill="#17151E" transform="translate(376,168)"/>
<path d="M0 0 C3.33333333 0 6.66666667 0 10 0 C10 0.66 10 1.32 10 2 C11.41702513 1.85769192 12.8336096 1.71099254 14.25 1.5625 C15.03890625 1.48128906 15.8278125 1.40007813 16.640625 1.31640625 C18.82364639 1.02365007 20.8773182 0.57935581 23 0 C23 0.66 23 1.32 23 2 C24.32 2.33 25.64 2.66 27 3 C27 4.32 27 5.64 27 7 C19.57313685 7.10331031 12.36487404 6.99862699 5 6 C5 5.34 5 4.68 5 4 C4.34 4 3.68 4 3 4 C3 4.66 3 5.32 3 6 C2.34 6 1.68 6 1 6 C0.67 4.02 0.34 2.04 0 0 Z " fill="#B3C9DF" transform="translate(425,33)"/>
<path d="M0 0 C0.9075 0.00257813 1.815 0.00515625 2.75 0.0078125 C4.11125 0.00394531 4.11125 0.00394531 5.5 0 C7.75 0.1328125 7.75 0.1328125 8.75 1.1328125 C8.90461551 3.54421971 8.98170241 5.90731821 9 8.3203125 C9.03867187 10.29064453 9.03867187 10.29064453 9.078125 12.30078125 C8.73213334 16.34146961 7.69474881 18.6262961 5.75 22.1328125 C5.0363276 25.87053084 5.0363276 25.87053084 4.75 29.1328125 C1.03400809 29.33367693 -0.02208445 29.2847562 -3.25 27.1328125 C-3.60644531 24.53491211 -3.60644531 24.53491211 -3.578125 21.28515625 C-3.57296875 20.12306641 -3.5678125 18.96097656 -3.5625 17.76367188 C-3.541875 16.54486328 -3.52125 15.32605469 -3.5 14.0703125 C-3.49484375 12.84763672 -3.4896875 11.62496094 -3.484375 10.36523438 C-3.39407059 0.20034444 -3.39407059 0.20034444 0 0 Z M-1.25 1.1328125 C-1.25 9.7128125 -1.25 18.2928125 -1.25 27.1328125 C0.07 26.8028125 1.39 26.4728125 2.75 26.1328125 C2.8325 24.9159375 2.915 23.6990625 3 22.4453125 C3.37757305 19.21058216 3.5644492 18.3408543 5.8125 15.8203125 C8.8522302 11.60391255 8.06748096 7.16841335 7.75 2.1328125 C5.07917961 0.61106331 5.07917961 0.61106331 -1.25 1.1328125 Z " fill="#424751" transform="translate(257.25,246.8671875)"/>
<path d="M0 0 C0 1.65 0 3.3 0 5 C-1.093125 4.814375 -2.18625 4.62875 -3.3125 4.4375 C-6.93624133 3.7421932 -6.93624133 3.7421932 -10 5 C-12.807347 5.06764692 -15.59897771 4.99787145 -18.40625 4.9375 C-21.1166664 4.87595392 -21.1166664 4.87595392 -24 6 C-25.32 6 -26.64 6 -28 6 C-27.67 4.35 -27.34 2.7 -27 1 C-25.2675 1.061875 -25.2675 1.061875 -23.5 1.125 C-19.81997294 1.14433464 -16.77488707 0.39058653 -13.23046875 -0.62109375 C-8.82709907 -1.36912678 -4.39320938 -0.59760569 0 0 Z " fill="#DFB9E1" transform="translate(408,275)"/>
<path d="M0 0 C6.43311296 -0.09507063 12.65758005 -0.15316726 19 1 C19 1.33 19 1.66 19 2 C14.05 2.33 9.1 2.66 4 3 C1.38357251 10.84928247 4.34944267 20.24332654 6.37890625 27.9921875 C7.01621974 31.07854843 7.10786287 33.85790784 7 37 C7.99 37.33 8.98 37.66 10 38 C8.35 38 6.7 38 5 38 C4.87882812 37.05898438 4.75765625 36.11796875 4.6328125 35.1484375 C4.46523438 33.90320313 4.29765625 32.65796875 4.125 31.375 C3.96257812 30.14523437 3.80015625 28.91546875 3.6328125 27.6484375 C3.04390814 24.25314942 2.14644856 21.24056629 1 18 C-0.1764891 11.99990559 -0.0990567 6.08648384 0 0 Z " fill="#3C3F49" transform="translate(378,230)"/>
<path d="M0 0 C0.33 0.99 0.66 1.98 1 3 C1.66 3 2.32 3 3 3 C1.20513796 9.04476527 -1.49322293 14.66175847 -4.125 20.375 C-4.59292969 21.39722656 -5.06085938 22.41945312 -5.54296875 23.47265625 C-6.69258292 25.98303821 -7.84500064 28.49209231 -9 31 C-9.99 31 -10.98 31 -12 31 C-11.518285 24.72925389 -9.3525124 19.96375724 -6.5625 14.375 C-5.75006165 12.716753 -4.93882675 11.05791573 -4.12890625 9.3984375 C-3.7539502 8.63370117 -3.37899414 7.86896484 -2.99267578 7.08105469 C-1.88531505 4.7595734 -0.89987408 2.40949891 0 0 Z " fill="#0F111B" transform="translate(352,126)"/>
<path d="M0 0 C1.65 0 3.3 0 5 0 C5.09796875 0.58007812 5.1959375 1.16015625 5.296875 1.7578125 C6.31724946 7.0883894 7.59835074 10.74793843 11 15 C13.56893838 16.28446919 15.76576337 16.32977144 18.625 16.5625 C19.62789062 16.64628906 20.63078125 16.73007813 21.6640625 16.81640625 C22.43492188 16.87699219 23.20578125 16.93757813 24 17 C23.67 17.66 23.34 18.32 23 19 C20.72975032 19.08097324 18.45867925 19.13917704 16.1875 19.1875 C14.29064453 19.23970703 14.29064453 19.23970703 12.35546875 19.29296875 C9 19 9 19 7.23828125 17.55078125 C6.82964844 17.03902344 6.42101562 16.52726562 6 16 C5.01 15.67 4.02 15.34 3 15 C1.61773984 12.23547967 1.90474613 9.9538637 1.9375 6.875 C1.94652344 5.77929688 1.95554687 4.68359375 1.96484375 3.5546875 C1.97644531 2.71164063 1.98804687 1.86859375 2 1 C1.34 0.67 0.68 0.34 0 0 Z " fill="#655F64" transform="translate(86,101)"/>
<path d="M0 0 C2.90290205 0.66206538 5.0380053 1.29780318 7.5625 2.8125 C5.16541441 3.52274758 3.51832656 3.8081904 1 3.5625 C-1.58408759 3.55756449 -1.58408759 3.55756449 -3.1875 5.6875 C-4.91186925 9.99842312 -5.17807088 14.20539658 -5.4375 18.8125 C-4.7775 18.4825 -4.1175 18.1525 -3.4375 17.8125 C-3.18030183 15.78706444 -2.92907878 13.75899776 -2.78125 11.72265625 C-2.4375 9.8125 -2.4375 9.8125 -0.4375 7.8125 C0.5525 8.1425 1.5425 8.4725 2.5625 8.8125 C1.9025 9.4725 1.2425 10.1325 0.5625 10.8125 C-0.01260868 13.13423505 -0.3884944 15.45688348 -0.77734375 17.81640625 C-0.99519531 18.47511719 -1.21304687 19.13382813 -1.4375 19.8125 C-2.4275 20.1425 -3.4175 20.4725 -4.4375 20.8125 C-6.4375 19.8125 -6.4375 19.8125 -7.6875 16.875 C-8.94200327 12.1039364 -8.08344579 7.40509021 -6.4375 2.8125 C-4.20302914 -0.14338574 -3.89830261 -0.21263469 0 0 Z " fill="#1A1A1D" transform="translate(319.4375,90.1875)"/>
<path d="M0 0 C0.66 0 1.32 0 2 0 C2.99 0.33 3.98 0.66 5 1 C4.67 1.66 4.34 2.32 4 3 C4.66 3.33 5.32 3.66 6 4 C0.67132017 5.10941367 -4.46281855 5.11548069 -9.875 5.0625 C-10.75414062 5.05798828 -11.63328125 5.05347656 -12.5390625 5.04882812 C-14.69273803 5.03712337 -16.84637817 5.01919069 -19 5 C-19.33 4.01 -19.66 3.02 -20 2 C-16.21284201 -1.78715799 -4.98540238 -0.0755364 0 0 Z " fill="#6F99C3" transform="translate(375,65)"/>
<path d="M0 0 C3.34252724 -0.07427838 5.8035914 -0.06546953 9 1 C14.14943278 1.4017339 14.14943278 1.4017339 19 0 C19 0.66 19 1.32 19 2 C21.64 2 24.28 2 27 2 C27 3.65 27 5.3 27 7 C26.01 7 25.02 7 24 7 C24 6.34 24 5.68 24 5 C23.10692139 5.01571045 23.10692139 5.01571045 22.19580078 5.03173828 C19.50557657 5.07323949 16.81541963 5.09930704 14.125 5.125 C12.71927734 5.15013672 12.71927734 5.15013672 11.28515625 5.17578125 C10.38925781 5.18222656 9.49335938 5.18867188 8.5703125 5.1953125 C7.74289551 5.20578613 6.91547852 5.21625977 6.06298828 5.22705078 C4 5 4 5 2 3 C1.01 3.33 0.02 3.66 -1 4 C-0.67 2.68 -0.34 1.36 0 0 Z " fill="#D9CFEA" transform="translate(438,287)"/>
<path d="M0 0 C0.99 0.33 1.98 0.66 3 1 C3.734375 3.203125 3.734375 3.203125 4 6 C2.453125 8.421875 2.453125 8.421875 0.25 10.75 C-0.46671875 11.52859375 -1.1834375 12.3071875 -1.921875 13.109375 C-4 15 -4 15 -7 16 C-7.76576436 10.02703797 -5.32127772 5.78062702 -2 1 C-1.34 0.67 -0.68 0.34 0 0 Z " fill="#0B0B10" transform="translate(236,79)"/>
<path d="M0 0 C0.99 0.33 1.98 0.66 3 1 C3.734375 3.203125 3.734375 3.203125 4 6 C2.453125 8.421875 2.453125 8.421875 0.25 10.75 C-0.46671875 11.52859375 -1.1834375 12.3071875 -1.921875 13.109375 C-4 15 -4 15 -7 16 C-7.76576436 10.02703797 -5.32127772 5.78062702 -2 1 C-1.34 0.67 -0.68 0.34 0 0 Z " fill="#0D0A11" transform="translate(168,79)"/>
<path d="M0 0 C1.32 0 2.64 0 4 0 C5.2913442 8.15720395 5.45627839 13.62981675 1.21484375 20.83203125 C-0.28006361 23.49979197 -0.76049193 25.96623117 -1 29 C-1.66 29 -2.32 29 -3 29 C-3.22935668 25.17738859 -3.37617885 22.68182416 -1.5 19.28125 C0.37162458 15.18707123 0.34353921 12.05011208 0.1875 7.625 C0.17396484 6.88894531 0.16042969 6.15289062 0.14648438 5.39453125 C0.11144869 3.59603257 0.05765288 1.79791578 0 0 Z " fill="#2F3644" transform="translate(265,247)"/>
<path d="M0 0 C1.67387866 5.02163598 -1.52861902 9.0487124 -3.75 13.625 C-4.20632813 14.6046875 -4.66265625 15.584375 -5.1328125 16.59375 C-5.57882812 17.52445313 -6.02484375 18.45515625 -6.484375 19.4140625 C-7.09877441 20.69724365 -7.09877441 20.69724365 -7.72558594 22.00634766 C-9 24 -9 24 -12 25 C-10.93488578 16.26606341 -6.58018535 6.04458887 0 0 Z " fill="#100E16" transform="translate(326,189)"/>
<path d="M0 0 C0.66 0 1.32 0 2 0 C2.16435547 1.66675781 2.16435547 1.66675781 2.33203125 3.3671875 C3.10636131 10.76661891 3.98134763 17.63869585 6.40234375 24.70703125 C7.4596877 28.76363841 7.23881875 32.84278471 7 37 C6.01 37 5.02 37 4 37 C3.96261719 36.15179688 3.92523438 35.30359375 3.88671875 34.4296875 C3.45611916 26.74643995 2.3752731 19.72538708 0.6328125 12.22265625 C-0.18974539 8.03370405 -0.21994292 4.25222969 0 0 Z " fill="#282D37" transform="translate(376,231)"/>
<path d="M0 0 C0.99 0 1.98 0 3 0 C0.82971403 4.63097596 -2.21788633 8.45399011 -5.3125 12.5 C-5.88162109 13.25925781 -6.45074219 14.01851562 -7.03710938 14.80078125 C-10.05108939 18.75252084 -12.89630924 22.10508869 -17 25 C-17.33 24.34 -17.66 23.68 -18 23 C-17.28714844 22.09378906 -16.57429688 21.18757813 -15.83984375 20.25390625 C-15.37900391 19.66754395 -14.91816406 19.08118164 -14.44335938 18.47705078 C-13.43669434 17.19717607 -12.42887476 15.91820864 -11.41992188 14.64013672 C-8.00863014 10.31236216 -4.67900684 5.9336344 -1.4375 1.4765625 C-0.963125 0.98929687 -0.48875 0.50203125 0 0 Z " fill="#8E8E8F" transform="translate(315,81)"/>
<path d="M0 0 C2 2 2 2 2.22705078 4.88916016 C2.21657715 6.09362793 2.20610352 7.2980957 2.1953125 8.5390625 C2.18886719 9.84101563 2.18242187 11.14296875 2.17578125 12.484375 C2.15906929 13.86458595 2.14213939 15.24479429 2.125 16.625 C2.11497006 18.01301452 2.10584423 19.40103589 2.09765625 20.7890625 C2.07401863 24.19288026 2.04106867 27.59635506 2 31 C1.34 31 0.68 31 0 31 C0 34.96 0 38.92 0 43 C0.99 43.33 1.98 43.66 3 44 C3.05410687 45.77049689 3.09284119 47.54146849 3.125 49.3125 C3.14820313 50.29863281 3.17140625 51.28476563 3.1953125 52.30078125 C3 55 3 55 1 58 C-0.59918074 48.60481313 -1.60088847 39.54434471 -1 30 C-0.67 29.67 -0.34 29.34 0 29 C0.08775605 26.85441173 0.10695219 24.70595579 0.09765625 22.55859375 C0.09443359 21.25341797 0.09121094 19.94824219 0.08789062 18.60351562 C0.07953401 17.2148431 0.07106905 15.82617123 0.0625 14.4375 C0.05748666 13.04492344 0.05292347 11.65234519 0.04882812 10.25976562 C0.03699434 6.8398013 0.0205088 3.41992156 0 0 Z " fill="#39404D" transform="translate(310,161)"/>
<path d="M0 0 C0.66 0 1.32 0 2 0 C2 0.66 2 1.32 2 2 C5.3 2 8.6 2 12 2 C12 3.32 12 4.64 12 6 C12.66 6 13.32 6 14 6 C14 5.01 14 4.02 14 3 C15.65 3 17.3 3 19 3 C19 4.65 19 6.3 19 8 C17.96359375 7.9278125 16.9271875 7.855625 15.859375 7.78125 C14.4895882 7.68742899 13.11979626 7.59368292 11.75 7.5 C10.72712891 7.42845703 10.72712891 7.42845703 9.68359375 7.35546875 C6.44268497 7.13521281 3.2506634 7 0 7 C0 4.69 0 2.38 0 0 Z " fill="#BED1E4" transform="translate(467,35)"/>
<path d="M0 0 C0 1.32 0 2.64 0 4 C-3.3 4 -6.6 4 -10 4 C-10.33 4.99 -10.66 5.98 -11 7 C-11.66 7 -12.32 7 -13 7 C-13 6.34 -13 5.68 -13 5 C-15.97 5 -18.94 5 -22 5 C-22 4.01 -22 3.02 -22 2 C-21.25234375 1.93941406 -20.5046875 1.87882812 -19.734375 1.81640625 C-18.74953125 1.73261719 -17.7646875 1.64882813 -16.75 1.5625 C-15.77546875 1.48128906 -14.8009375 1.40007812 -13.796875 1.31640625 C-11.09235974 1.07274045 -11.09235974 1.07274045 -8.875 0.46875 C-5.93273253 -0.26681687 -3.01533298 -0.05798717 0 0 Z " fill="#EAD2EB" transform="translate(434,272)"/>
<path d="M0 0 C2.0140956 3.0211434 2.26836596 3.80660017 2.4140625 7.23046875 C2.45273437 8.03291016 2.49140625 8.83535156 2.53125 9.66210938 C2.5621875 10.49548828 2.593125 11.32886719 2.625 12.1875 C2.66367187 13.03248047 2.70234375 13.87746094 2.7421875 14.74804688 C2.83636279 16.83167524 2.91926675 18.91580753 3 21 C0.00371461 18.00371461 0.2750714 14.41506529 -0.125 10.375 C-0.21136719 9.57320312 -0.29773438 8.77140625 -0.38671875 7.9453125 C-0.59896327 5.96436365 -0.80049931 3.98227282 -1 2 C-8.40315583 3.79354806 -15.72764611 5.73141173 -23 8 C-20.86308083 4.79462125 -20.40937514 4.50736828 -16.97265625 3.359375 C-15.78446289 2.96105469 -15.78446289 2.96105469 -14.57226562 2.5546875 C-13.32993164 2.15636719 -13.32993164 2.15636719 -12.0625 1.75 C-11.23814453 1.46898437 -10.41378906 1.18796875 -9.56445312 0.8984375 C-3.38689623 -1.12896541 -3.38689623 -1.12896541 0 0 Z " fill="#181B21" transform="translate(312,135)"/>
<path d="M0 0 C1.41152344 0.10828125 1.41152344 0.10828125 2.8515625 0.21875 C4.71941406 0.35796875 4.71941406 0.35796875 6.625 0.5 C8.46964844 0.63921875 8.46964844 0.63921875 10.3515625 0.78125 C13.58037857 0.97484069 16.76678675 1.03979339 20 1 C20.33 2.32 20.66 3.64 21 5 C19.54176788 5.0270043 18.08339325 5.04639787 16.625 5.0625 C15.81289063 5.07410156 15.00078125 5.08570313 14.1640625 5.09765625 C12 5 12 5 10 4 C10 4.66 10 5.32 10 6 C9.34 6 8.68 6 8 6 C7.67 5.34 7.34 4.68 7 4 C4.36 4 1.72 4 -1 4 C-0.67 2.68 -0.34 1.36 0 0 Z " fill="#E0D8EE" transform="translate(471,289)"/>
<path d="M0 0 C0.33 0.66 0.66 1.32 1 2 C1.66 2 2.32 2 3 2 C3 2.66 3 3.32 3 4 C3.98742187 3.7834375 4.97484375 3.566875 5.9921875 3.34375 C7.27351563 3.0653125 8.55484375 2.786875 9.875 2.5 C11.78925781 2.08234375 11.78925781 2.08234375 13.7421875 1.65625 C17 1 17 1 19 1 C18.67 2.32 18.34 3.64 18 5 C18 4.34 18 3.68 18 3 C16.30230469 3.433125 16.30230469 3.433125 14.5703125 3.875 C13.08857303 4.25012392 11.60680047 4.62511714 10.125 5 C9.37863281 5.19078125 8.63226563 5.3815625 7.86328125 5.578125 C2.2265625 7 2.2265625 7 0 7 C-1.98 11.455 -1.98 11.455 -4 16 C-4.33 16 -4.66 16 -5 16 C-5 12.7 -5 9.4 -5 6 C-3.68 6 -2.36 6 -1 6 C-0.67 4.02 -0.34 2.04 0 0 Z " fill="#AE65A5" transform="translate(109,80)"/>
<path d="M0 0 C0.99 0.33 1.98 0.66 3 1 C-4.17368421 19.27763158 -4.17368421 19.27763158 -9 26 C-9.66 25.67 -10.32 25.34 -11 25 C-10.61328125 24.27296875 -10.2265625 23.5459375 -9.828125 22.796875 C-6.52721064 16.42382252 -3.87102395 10.16269816 -1.76171875 3.30078125 C-1 1 -1 1 0 0 Z " fill="#1D1E23" transform="translate(193,283)"/>
<path d="M0 0 C2.12493141 -0.02693575 4.24995912 -0.04636628 6.375 -0.0625 C7.55835938 -0.07410156 8.74171875 -0.08570312 9.9609375 -0.09765625 C13 0 13 0 15 1 C15 2.32 15 3.64 15 5 C10.05 5 5.1 5 0 5 C0 3.35 0 1.7 0 0 Z " fill="#A9C3DB" transform="translate(384,32)"/>
<path d="M0 0 C2.13204027 2.61686039 3.43480955 4.70617513 4.1875 8 C4.34605469 8.66 4.50460937 9.32 4.66796875 10 C5 12 5 12 5 16 C7.31 16 9.62 16 12 16 C11.01 16.33 10.02 16.66 9 17 C9 17.66 9 18.32 9 19 C6.625 18.8125 6.625 18.8125 4 18 C2.6875 15.4375 2.6875 15.4375 2 13 C0.85185003 15.29629994 0.69230191 17.07698086 0.4375 19.625 C0.35371094 20.44226563 0.26992188 21.25953125 0.18359375 22.1015625 C0.12300781 22.72804687 0.06242187 23.35453125 0 24 C-0.33 24 -0.66 24 -1 24 C-1.16677223 15.95787245 -0.6466598 8.01396246 0 0 Z " fill="#323443" transform="translate(289,221)"/>
<path d="M0 0 C0 1.65 0 3.3 0 5 C-3.63 5 -7.26 5 -11 5 C-11 4.34 -11 3.68 -11 3 C-11.66 3 -12.32 3 -13 3 C-13.33 3.99 -13.66 4.98 -14 6 C-16.64 6 -19.28 6 -22 6 C-21.67 5.01 -21.34 4.02 -21 3 C-19.33710938 2.80083984 -19.33710938 2.80083984 -17.640625 2.59765625 C-16.1770673 2.41940243 -14.71352651 2.24100972 -13.25 2.0625 C-12.15558594 1.93198242 -12.15558594 1.93198242 -11.0390625 1.79882812 C-7.45181081 1.35857451 -3.57182431 0 0 0 Z " fill="#AEC6DE" transform="translate(464,58)"/>
<path d="M0 0 C0.33 0 0.66 0 1 0 C1 12.87 1 25.74 1 39 C4.63 38.34 8.26 37.68 12 37 C10.58219707 39.83560586 8.95214542 39.99358679 6 41 C3.25 41.6875 3.25 41.6875 1 42 C0 41 0 41 -0.11352539 37.12280273 C-0.11336621 35.39305833 -0.10766849 33.66330919 -0.09765625 31.93359375 C-0.0962413 31.02497086 -0.09482635 30.11634796 -0.09336853 29.18019104 C-0.08775193 26.26592779 -0.07519665 23.35174019 -0.0625 20.4375 C-0.05748714 18.46679798 -0.05292386 16.49609476 -0.04882812 14.52539062 C-0.03777711 9.68356441 -0.02050138 4.84179505 0 0 Z " fill="#34323A" transform="translate(288,104)"/>
<path d="M0 0 C2.99212458 4.48818687 3.12000748 7.55822786 3.09765625 12.85546875 C3.09553383 13.84792351 3.09553383 13.84792351 3.09336853 14.86042786 C3.08777996 16.96949828 3.07522965 19.07846177 3.0625 21.1875 C3.05748352 22.61913909 3.05292087 24.05077985 3.04882812 25.48242188 C3.0378143 28.98831588 3.02055755 32.4941475 3 36 C2.01 36.495 2.01 36.495 1 37 C1.01740234 35.19015625 1.01740234 35.19015625 1.03515625 33.34375 C1.04454335 31.72916823 1.05364256 30.11458476 1.0625 28.5 C1.07087891 27.70851562 1.07925781 26.91703125 1.08789062 26.1015625 C1.10355034 22.2805918 1.00848944 18.57123342 0.5 14.78125 C0.06038673 11.45667466 -0.10432585 8.34606805 -0.0625 5 C-0.05347656 4.05125 -0.04445313 3.1025 -0.03515625 2.125 C-0.02355469 1.42375 -0.01195312 0.7225 0 0 Z " fill="#14171F" transform="translate(327,116)"/>
<path d="M0 0 C0 0.66 0 1.32 0 2 C1.32 2.33 2.64 2.66 4 3 C4 4.32 4 5.64 4 7 C-0.29 7 -4.58 7 -9 7 C-8.67 5.68 -8.34 4.36 -8 3 C-7.34 3.33 -6.68 3.66 -6 4 C-5.38125 3.34 -4.7625 2.68 -4.125 2 C-2 0 -2 0 0 0 Z " fill="#7CA3C9" transform="translate(448,33)"/>
<path d="M0 0 C1.16144531 0.00902344 2.32289063 0.01804688 3.51953125 0.02734375 C4.39996094 0.03894531 5.28039062 0.05054688 6.1875 0.0625 C6.5175 1.3825 6.8475 2.7025 7.1875 4.0625 C0.4375 4.1875 0.4375 4.1875 -1.8125 3.0625 C-2.1425 3.7225 -2.4725 4.3825 -2.8125 5.0625 C-3.1425 4.7325 -3.4725 4.4025 -3.8125 4.0625 C-6.48308851 3.92134839 -9.13682238 4.02002893 -11.8125 4.0625 C-11.8125 3.0725 -11.8125 2.0825 -11.8125 1.0625 C-7.81454108 0.10630267 -4.10446078 -0.0414592 0 0 Z " fill="#92B2D2" transform="translate(477.8125,57.9375)"/>
<path d="M0 0 C0.99386719 0.10183594 1.98773438 0.20367187 3.01171875 0.30859375 C3.77097656 0.39238281 4.53023438 0.47617187 5.3125 0.5625 C5.3125 2.2125 5.3125 3.8625 5.3125 5.5625 C3.33293559 5.42216889 1.35384859 5.2750877 -0.625 5.125 C-1.72714844 5.04378906 -2.82929688 4.96257812 -3.96484375 4.87890625 C-6.6875 4.5625 -6.6875 4.5625 -7.6875 3.5625 C-8.6775 4.0575 -8.6775 4.0575 -9.6875 4.5625 C-9.375 2.625 -9.375 2.625 -8.6875 0.5625 C-5.3763987 -0.54120043 -3.44001051 -0.36423641 0 0 Z " fill="#ECD6ED" transform="translate(402.6875,274.4375)"/>
<path d="M0 0 C0.33 0 0.66 0 1 0 C1.16820551 1.93736701 1.33451095 3.87489906 1.5 5.8125 C1.5928125 6.89144531 1.685625 7.97039062 1.78125 9.08203125 C2 12 2 12 2 15 C0.35 14.67 -1.3 14.34 -3 14 C-3.56359649 4.41885965 -3.56359649 4.41885965 0 0 Z " fill="#433842" transform="translate(98,94)"/>
<path d="M0 0 C1.93742341 -0.02703381 3.87495479 -0.04641125 5.8125 -0.0625 C6.89144531 -0.07410156 7.97039062 -0.08570312 9.08203125 -0.09765625 C12 0 12 0 15 1 C15 2.32 15 3.64 15 5 C13.56260487 5.02712066 12.12506137 5.04645067 10.6875 5.0625 C9.48673828 5.07990234 9.48673828 5.07990234 8.26171875 5.09765625 C6 5 6 5 3 4 C3 3.01 3 2.02 3 1 C2.34 1 1.68 1 1 1 C0.67 1.99 0.34 2.98 0 4 C0 2.68 0 1.36 0 0 Z " fill="#CEDCEA" transform="translate(368,31)"/>
<path d="M0 0 C0.33 0 0.66 0 1 0 C1 3.63 1 7.26 1 11 C-1.97 11 -4.94 11 -8 11 C-7.59007812 10.45730469 -7.18015625 9.91460937 -6.7578125 9.35546875 C-6.21898437 8.64003906 -5.68015625 7.92460938 -5.125 7.1875 C-4.59132813 6.47980469 -4.05765625 5.77210937 -3.5078125 5.04296875 C-2.29185219 3.39543703 -1.13583859 1.70375789 0 0 Z " fill="#111014" transform="translate(289,93)"/>
<path d="M0 0 C7.26 0 14.52 0 22 0 C22.33 3.3 22.66 6.6 23 10 C22.01 10.495 22.01 10.495 21 11 C20.34 8.36 19.68 5.72 19 3 C12.73 2.34 6.46 1.68 0 1 C0 0.67 0 0.34 0 0 Z " fill="#1A1F28" transform="translate(378,229)"/>
<path d="M0 0 C0.33 1.32 0.66 2.64 1 4 C3.64 4 6.28 4 9 4 C8.043419 5.77178053 7.08467012 7.54239076 6.125 9.3125 C5.59132813 10.29863281 5.05765625 11.28476563 4.5078125 12.30078125 C3 15 3 15 1 18 C0.34 18 -0.32 18 -1 18 C-1 16.68 -1 15.36 -1 14 C-0.34 14 0.32 14 1 14 C1.28875 13.071875 1.5775 12.14375 1.875 11.1875 C3 8 3 8 5 5 C3.35 5 1.7 5 0 5 C0 3.35 0 1.7 0 0 Z " fill="#574F57" transform="translate(258,99)"/>
<path d="M0 0 C0.33 0.66 0.66 1.32 1 2 C3.64 2 6.28 2 9 2 C9 3.65 9 5.3 9 7 C8.01 7 7.02 7 6 7 C6 6.34 6 5.68 6 5 C2.37 5 -1.26 5 -5 5 C-4.67 3.68 -4.34 2.36 -4 1 C-2.68 0.67 -1.36 0.34 0 0 Z " fill="#E5DEF1" transform="translate(456,287)"/>
<path d="M0 0 C0.556875 0.185625 1.11375 0.37125 1.6875 0.5625 C4.4291481 1.08119018 6.28803472 0.59530945 9 0 C10.6662553 -0.0370279 12.33401319 -0.04759962 14 0 C14 1.32 14 2.64 14 4 C9.38 4 4.76 4 0 4 C0 2.68 0 1.36 0 0 Z " fill="#A0BCD7" transform="translate(425,61)"/>
<path d="M0 0 C2.64 0.33 5.28 0.66 8 1 C8.33 2.65 8.66 4.3 9 6 C5.37 6 1.74 6 -2 6 C-1.34 4.02 -0.68 2.04 0 0 Z " fill="#CADAE9" transform="translate(358,29)"/>
<path d="M0 0 C2.97 0 5.94 0 9 0 C9.33 1.65 9.66 3.3 10 5 C8.68 5 7.36 5 6 5 C5.67 5.66 5.34 6.32 5 7 C5 6.34 5 5.68 5 5 C3.35 4.67 1.7 4.34 0 4 C0 2.68 0 1.36 0 0 Z " fill="#A3BED9" transform="translate(454,36)"/>
<path d="M0 0 C1.65 0 3.3 0 5 0 C5.33 4.29 5.66 8.58 6 13 C5.34 13 4.68 13 4 13 C4 12.34 4 11.68 4 11 C3.34 11 2.68 11 2 11 C2 7.7 2 4.4 2 1 C1.34 0.67 0.68 0.34 0 0 Z " fill="#464646" transform="translate(86,101)"/>
<path d="M0 0 C1.65 0.33 3.3 0.66 5 1 C4.67 1.99 4.34 2.98 4 4 C2.68 4 1.36 4 0 4 C0 11.92 0 19.84 0 28 C-0.33 28 -0.66 28 -1 28 C-1.02898097 23.89584811 -1.0467922 19.79172247 -1.0625 15.6875 C-1.07087891 14.52025391 -1.07925781 13.35300781 -1.08789062 12.15039062 C-1.09111328 11.03212891 -1.09433594 9.91386719 -1.09765625 8.76171875 C-1.10289307 7.73006592 -1.10812988 6.69841309 -1.11352539 5.63549805 C-1 3 -1 3 0 0 Z " fill="#545354" transform="translate(172,105)"/>
<path d="M0 0 C3.63 0 7.26 0 11 0 C11 1.32 11 2.64 11 4 C7.7 4 4.4 4 1 4 C0.67 2.68 0.34 1.36 0 0 Z " fill="#8FB0D1" transform="translate(412,62)"/>
<path d="M0 0 C0.99 -0.33 1.98 -0.66 3 -1 C3 0.32 3 1.64 3 3 C1.7315625 2.9690625 1.7315625 2.9690625 0.4375 2.9375 C-3.11892777 3.00216232 -6.49093503 3.4385496 -10 4 C-9.67 2.68 -9.34 1.36 -9 0 C-5.63181477 -1.12272841 -3.42845528 -0.70327288 0 0 Z " fill="#66486F" transform="translate(398,64)"/>
<path d="M0 0 C4.33333333 0 8.66666667 0 13 0 C13 0.99 13 1.98 13 3 C11.56274129 3.16873478 10.12518162 3.33490737 8.6875 3.5 C7.88699219 3.5928125 7.08648438 3.685625 6.26171875 3.78125 C4 4 4 4 1 4 C0.67 2.68 0.34 1.36 0 0 Z " fill="#A1BDD9" transform="translate(519,54)"/>
<path d="M0 0 C0.33 0.99 0.66 1.98 1 3 C1.66 3.33 2.32 3.66 3 4 C1.35 6.97 -0.3 9.94 -2 13 C-2.66 13 -3.32 13 -4 13 C-3.40895235 8.15340923 -2.02055843 4.39251833 0 0 Z " fill="#14151E" transform="translate(318,201)"/>
<path d="M0 0 C0.66 0 1.32 0 2 0 C1.96519531 1.03640625 1.93039063 2.0728125 1.89453125 3.140625 C1.86638518 4.51040042 1.83908589 5.88019341 1.8125 7.25 C1.78736328 7.93191406 1.76222656 8.61382812 1.73632812 9.31640625 C1.68862541 12.59199289 1.78914924 14.65348556 3.51171875 17.484375 C4.00285156 17.98453125 4.49398437 18.4846875 5 19 C3.35 19.33 1.7 19.66 0 20 C0 13.4 0 6.8 0 0 Z " fill="#393438" transform="translate(251,103)"/>
<path d="M0 0 C1.18504789 3.55514368 0.77142408 4.29496512 -0.6875 7.625 C-1.02136719 8.42164063 -1.35523438 9.21828125 -1.69921875 10.0390625 C-3 12 -3 12 -5.00390625 12.73828125 C-5.66261719 12.82464844 -6.32132812 12.91101563 -7 13 C-8.11375 13.2784375 -8.11375 13.2784375 -9.25 13.5625 C-9.8275 13.706875 -10.405 13.85125 -11 14 C-11 13.34 -11 12.68 -11 12 C-9.8553125 11.38125 -9.8553125 11.38125 -8.6875 10.75 C-5.40698115 8.61384819 -4.50066356 6.55420317 -3 3 C-2.34 3 -1.68 3 -1 3 C-0.67 2.01 -0.34 1.02 0 0 Z " fill="#292831" transform="translate(309,226)"/>
<path d="M0 0 C1.37478516 0.01740234 1.37478516 0.01740234 2.77734375 0.03515625 C3.69644531 0.04417969 4.61554688 0.05320312 5.5625 0.0625 C6.27277344 0.07410156 6.98304688 0.08570312 7.71484375 0.09765625 C8.04484375 1.08765625 8.37484375 2.07765625 8.71484375 3.09765625 C4.98046527 3.97633354 1.54709802 4.18677844 -2.28515625 4.09765625 C-2.61515625 3.10765625 -2.94515625 2.11765625 -3.28515625 1.09765625 C-2.28515625 0.09765625 -2.28515625 0.09765625 0 0 Z " fill="#BFD2E4" transform="translate(358.28515625,65.90234375)"/>
<path d="M0 0 C3.3 0 6.6 0 10 0 C10.33 1.32 10.66 2.64 11 4 C9.54176788 4.0270043 8.08339325 4.04639787 6.625 4.0625 C5.81289063 4.07410156 5.00078125 4.08570313 4.1640625 4.09765625 C2 4 2 4 0 3 C0 2.01 0 1.02 0 0 Z " fill="#D8CCE9" transform="translate(481,290)"/>
<path d="M0 0 C3.12586967 2.77007962 4.5226864 4.62855629 5.25 8.75 C5.39953125 9.54921875 5.5490625 10.3484375 5.703125 11.171875 C5.80109375 11.77515625 5.8990625 12.3784375 6 13 C7.65 12.67 9.3 12.34 11 12 C11 12.66 11 13.32 11 14 C5.25 14.125 5.25 14.125 3 13 C2.37330801 10.83532539 1.84572626 8.64135476 1.375 6.4375 C1.11460937 5.23996094 0.85421875 4.04242188 0.5859375 2.80859375 C0.39257812 1.88175781 0.19921875 0.95492187 0 0 Z " fill="#333340" transform="translate(380,187)"/>
<path d="M0 0 C1.23621824 2.47243647 0.98408601 3.77317939 0.6875 6.5 C0.60886719 7.2940625 0.53023438 8.088125 0.44921875 8.90625 C0 11 0 11 -2 13 C-2.66 13 -3.32 13 -4 13 C-3.50269348 8.02693484 -2.44697666 4.36200187 0 0 Z " fill="#1D1F27" transform="translate(344,144)"/>
<path d="M0 0 C0.33 0 0.66 0 1 0 C1.268125 0.94875 1.53625 1.8975 1.8125 2.875 C2.74986588 6.25267273 2.74986588 6.25267273 6 8 C5 9 5 9 2.625 9.1875 C0 9 0 9 -3 7 C-1.125 2.25 -1.125 2.25 0 0 Z " fill="#2E292F" transform="translate(273,97)"/>
<path d="M0 0 C0.66 0 1.32 0 2 0 C2 0.66 2 1.32 2 2 C2.66 2 3.32 2 4 2 C4 2.99 4 3.98 4 5 C5.32 4.34 6.64 3.68 8 3 C8 3.99 8 4.98 8 6 C5.10765685 6.82638376 3.11257569 7 0 7 C0 4.69 0 2.38 0 0 Z " fill="#8EAFD0" transform="translate(467,35)"/>
<path d="M0 0 C0.84139118 3.07011437 1.30105635 4.99756227 0 8 C-0.66 8.309375 -1.32 8.61875 -2 8.9375 C-2.66 9.288125 -3.32 9.63875 -4 10 C-4.65555119 12.52733235 -4.65555119 12.52733235 -5 15 C-5.99 15.495 -5.99 15.495 -7 16 C-7 14.68 -7 13.36 -7 12 C-6.34 12 -5.68 12 -5 12 C-4.87753906 11.42765625 -4.75507813 10.8553125 -4.62890625 10.265625 C-3.97237132 7.90046809 -3.06276488 5.92793203 -1.9375 3.75 C-1.57527344 3.04359375 -1.21304687 2.3371875 -0.83984375 1.609375 C-0.56269531 1.07828125 -0.28554688 0.5471875 0 0 Z " fill="#383C45" transform="translate(310,219)"/>
<path d="M0 0 C0.33 0 0.66 0 1 0 C2.19876651 5.44893869 1.91360308 8.22169095 -1 13 C-1.66 13 -2.32 13 -3 13 C-2.88490339 11.58249437 -2.75746342 10.16598831 -2.625 8.75 C-2.55539062 7.96109375 -2.48578125 7.1721875 -2.4140625 6.359375 C-1.98492887 3.914123 -1.21399362 2.15163097 0 0 Z " fill="#171820" transform="translate(347,137)"/>
<path d="M0 0 C-0.33 1.32 -0.66 2.64 -1 4 C-3.31 4 -5.62 4 -8 4 C-7.67 2.68 -7.34 1.36 -7 0 C-3.98968256 -0.93423645 -3.13349732 -1.04449911 0 0 Z " fill="#624B74" transform="translate(410,63)"/>
<path d="M0 0 C1.32 0.33 2.64 0.66 4 1 C4 1.66 4 2.32 4 3 C3.01 3.33 2.02 3.66 1 4 C0.34 7.96 -0.32 11.92 -1 16 C-1.33 16 -1.66 16 -2 16 C-2.20413361 10.26157749 -2.27141454 5.39460953 0 0 Z " fill="#333A47" transform="translate(376,184)"/>
<path d="M0 0 C2.31 0.33 4.62 0.66 7 1 C7 2.32 7 3.64 7 5 C4.69 5 2.38 5 0 5 C0 3.35 0 1.7 0 0 Z " fill="#92B2D2" transform="translate(498,55)"/>
<path d="M0 0 C0.78375 0.185625 1.5675 0.37125 2.375 0.5625 C4.97089775 1.25962266 4.97089775 1.25962266 7 0 C7 1.65 7 3.3 7 5 C4.69 5 2.38 5 0 5 C0 3.35 0 1.7 0 0 Z " fill="#BFADDB" transform="translate(493,290)"/>
<path d="M0 0 C0.33 1.32 0.66 2.64 1 4 C1.66 4 2.32 4 3 4 C1.77472971 8.05281712 0.30119506 11.44360764 -2 15 C-3.53760842 11.92478317 -2.36599236 9.65324882 -1.5625 6.375 C-1.27503906 5.18648437 -0.98757813 3.99796875 -0.69140625 2.7734375 C-0.46324219 1.85820312 -0.23507812 0.94296875 0 0 Z " fill="#23232C" transform="translate(313,210)"/>
<path d="M0 0 C0 1.65 0 3.3 0 5 C-2.64 5 -5.28 5 -8 5 C-7.67 3.68 -7.34 2.36 -7 1 C-1.125 0 -1.125 0 0 0 Z " fill="#9EBBD7" transform="translate(464,58)"/>
<path d="M0 0 C2.97 0.33 5.94 0.66 9 1 C8.01 1.495 8.01 1.495 7 2 C7 2.66 7 3.32 7 4 C4.69 4.33 2.38 4.66 0 5 C0 3.35 0 1.7 0 0 Z " fill="#99B7D5" transform="translate(487,56)"/>
<path d="M0 0 C1.49341969 2.98683937 0.40648676 4.95160978 -0.4375 8.125 C-0.72496094 9.22070312 -1.01242187 10.31640625 -1.30859375 11.4453125 C-1.53675781 12.28835938 -1.76492188 13.13140625 -2 14 C-2.66 14 -3.32 14 -4 14 C-4.31549088 8.7418187 -3.70016294 5.53627373 -1 1 C-0.67 0.67 -0.34 0.34 0 0 Z " fill="#303745" transform="translate(266,262)"/>
<path d="M0 0 C1.32 0.33 2.64 0.66 4 1 C3.06862408 2.29608947 2.1296434 3.58671632 1.1875 4.875 C0.66542969 5.59429687 0.14335938 6.31359375 -0.39453125 7.0546875 C-2 9 -2 9 -5 11 C-4.731875 10.484375 -4.46375 9.96875 -4.1875 9.4375 C-2.67650593 6.33598585 -1.34427274 3.17737194 0 0 Z " fill="#564F55" transform="translate(117,102)"/>
<path d="M0 0 C1.3921875 0.2784375 1.3921875 0.2784375 2.8125 0.5625 C6.01343771 1.24123881 6.01343771 1.24123881 9 0 C9.33 1.32 9.66 2.64 10 4 C6.7 4 3.4 4 0 4 C0 2.68 0 1.36 0 0 Z " fill="#AEC6DE" transform="translate(508,55)"/>
<path d="M0 0 C1.134375 0.020625 2.26875 0.04125 3.4375 0.0625 C3.4375 0.3925 3.4375 0.7225 3.4375 1.0625 C1.4575 1.7225 -0.5225 2.3825 -2.5625 3.0625 C-2.2325 7.3525 -1.9025 11.6425 -1.5625 16.0625 C-2.2225 15.7325 -2.8825 15.4025 -3.5625 15.0625 C-4.01171875 11.9375 -4.01171875 11.9375 -4.25 8.0625 C-4.33636719 6.78375 -4.42273438 5.505 -4.51171875 4.1875 C-4.52847656 3.15625 -4.54523438 2.125 -4.5625 1.0625 C-3.5625 0.0625 -3.5625 0.0625 0 0 Z " fill="#464B54" transform="translate(383.5625,230.9375)"/>
<path d="M0 0 C-0.99 0.33 -1.98 0.66 -3 1 C-3 1.66 -3 2.32 -3 3 C-2.34 3.33 -1.68 3.66 -1 4 C-3.31 4 -5.62 4 -8 4 C-8.66 2.68 -9.32 1.36 -10 0 C-6.30458414 -0.95024979 -3.69541586 -0.95024979 0 0 Z " fill="#DCE6F0" transform="translate(423,34)"/>
<path d="M0 0 C0.99 0 1.98 0 3 0 C3.33 2.64 3.66 5.28 4 8 C4.66 8 5.32 8 6 8 C6 8.66 6 9.32 6 10 C3.54896452 9.01958581 2.23241214 8.3486182 0.75 6.125 C0 4 0 4 0 0 Z " fill="#827F82" transform="translate(203,104)"/>
<path d="M0 0 C0.99 0.33 1.98 0.66 3 1 C0.36 3.64 -2.28 6.28 -5 9 C-5 5.84012675 -4.61785127 4.63965207 -3 2 C-2.01 1.34 -1.02 0.68 0 0 Z " fill="#12151A" transform="translate(204,245)"/>
<path d="M0 0 C1.125 5.625 1.125 5.625 0 9 C-0.66 9 -1.32 9 -2 9 C-3.35439668 6.29120665 -3.06501451 3.99066732 -3 1 C-1 0 -1 0 0 0 Z " fill="#3A383A" transform="translate(209,103)"/>
<path d="M0 0 C0.99 0 1.98 0 3 0 C3 1.65 3 3.3 3 5 C0.69 5 -1.62 5 -4 5 C-3.67 3.68 -3.34 2.36 -3 1 C-2.34 1.33 -1.68 1.66 -1 2 C-0.67 1.34 -0.34 0.68 0 0 Z " fill="#95B4D3" transform="translate(443,35)"/>
<path d="M0 0 C2.97 0 5.94 0 9 0 C9 0.66 9 1.32 9 2 C8.34 2 7.68 2 7 2 C7 2.66 7 3.32 7 4 C5.68 4 4.36 4 3 4 C3 3.01 3 2.02 3 1 C2.34 1 1.68 1 1 1 C0.67 1.99 0.34 2.98 0 4 C0 2.68 0 1.36 0 0 Z " fill="#DDE7F1" transform="translate(384,32)"/>
<path d="M0 0 C0.66 0 1.32 0 2 0 C1.25 4.75 1.25 4.75 -1 7 C-1.99 6.67 -2.98 6.34 -4 6 C-1.125 1.125 -1.125 1.125 0 0 Z " fill="#16151C" transform="translate(303,237)"/>
<path d="M0 0 C0 1.98 0 3.96 0 6 C-0.66 5.01 -1.32 4.02 -2 3 C-2.45375 3.495 -2.9075 3.99 -3.375 4.5 C-5 6 -5 6 -7 6 C-4.84615385 0 -4.84615385 0 0 0 Z " fill="#818182" transform="translate(275,96)"/>
<path d="M0 0 C2.97 0 5.94 0 9 0 C8.34 1.32 7.68 2.64 7 4 C5.68 4 4.36 4 3 4 C3 3.01 3 2.02 3 1 C2.34 1 1.68 1 1 1 C0.67 1.99 0.34 2.98 0 4 C0 2.68 0 1.36 0 0 Z " fill="#D6E2EE" transform="translate(368,31)"/>
<path d="M0 0 C2.475 0.495 2.475 0.495 5 1 C4.67 2.32 4.34 3.64 4 5 C2.68 5 1.36 5 0 5 C0 3.35 0 1.7 0 0 Z " fill="#190A0C" transform="translate(31,11)"/>
<path d="M0 0 C2.64 0 5.28 0 8 0 C8 0.99 8 1.98 8 3 C5.36 3 2.72 3 0 3 C0 2.01 0 1.02 0 0 Z " fill="#EFDCF0" transform="translate(412,274)"/>
<path d="M0 0 C0.5625 1.9375 0.5625 1.9375 1 4 C0 5 0 5 -2.5625 5.0625 C-3.7690625 5.0315625 -3.7690625 5.0315625 -5 5 C-5 3.68 -5 2.36 -5 1 C-3.35 0.67 -1.7 0.34 0 0 Z " fill="#E3C0E4" transform="translate(441,270)"/>
<path d="M0 0 C1.75547734 2.6848477 2.00627277 3.92002215 1.75 7.1875 C1.5025 8.115625 1.255 9.04375 1 10 C0.01 10.495 0.01 10.495 -1 11 C-1.14285714 3.57142857 -1.14285714 3.57142857 0 0 Z " fill="#2A303D" transform="translate(394,244)"/>
<path d="M0 0 C2.97 0 5.94 0 9 0 C8.67 1.32 8.34 2.64 8 4 C7.34 3.34 6.68 2.68 6 2 C5.67 2.66 5.34 3.32 5 4 C4.01 4 3.02 4 2 4 C2 3.01 2 2.02 2 1 C1.34 0.67 0.68 0.34 0 0 Z " fill="#BDD1E4" transform="translate(434,35)"/>
<path d="M0 0 C1.32 0.66 2.64 1.32 4 2 C4 2.99 4 3.98 4 5 C2.35 4.67 0.7 4.34 -1 4 C-0.67 2.68 -0.34 1.36 0 0 Z " fill="#949194" transform="translate(282,68)"/>
<path d="M0 0 C3 0 3 0 6 1 C5.67 1.66 5.34 2.32 5 3 C5.66 3.33 6.32 3.66 7 4 C4.69 4 2.38 4 0 4 C0 2.68 0 1.36 0 0 Z " fill="#D3E0ED" transform="translate(374,65)"/>
<path d="M0 0 C0.99 0 1.98 0 3 0 C2.34 2.31 1.68 4.62 1 7 C0.01 7 -0.98 7 -2 7 C-1.34 4.69 -0.68 2.38 0 0 Z " fill="#D97FCE" transform="translate(114,66)"/>
<path d="M0 0 C2.31 0 4.62 0 7 0 C7 0.99 7 1.98 7 3 C5.824375 2.9690625 5.824375 2.9690625 4.625 2.9375 C2.01885039 2.81315937 2.01885039 2.81315937 0 4 C0 2.68 0 1.36 0 0 Z " fill="#F3E5F4" transform="translate(385,277)"/>
<path d="M0 0 C1.65 0 3.3 0 5 0 C5.33 1.65 5.66 3.3 6 5 C5.01 5.495 5.01 5.495 4 6 C0 1.125 0 1.125 0 0 Z " fill="#DBB1DD" transform="translate(417,273)"/>
<path d="M0 0 C2.64 0 5.28 0 8 0 C7.01 0.33 6.02 0.66 5 1 C5 1.66 5 2.32 5 3 C3.35 2.67 1.7 2.34 0 2 C0 1.34 0 0.68 0 0 Z " fill="#313640" transform="translate(293,237)"/>
<path d="M0 0 C1.32 1.32 2.64 2.64 4 4 C2.35 4.33 0.7 4.66 -1 5 C-0.67 3.35 -0.34 1.7 0 0 Z " fill="#524951" transform="translate(252,118)"/>
<path d="M0 0 C1.32 0 2.64 0 4 0 C4 0.66 4 1.32 4 2 C0.535 3.485 0.535 3.485 -3 5 C-1.125 1.125 -1.125 1.125 0 0 Z " fill="#D382C9" transform="translate(154,76)"/>
<path d="M0 0 C1.98 0 3.96 0 6 0 C5.67 1.32 5.34 2.64 5 4 C3.68 4 2.36 4 1 4 C0.67 2.68 0.34 1.36 0 0 Z " fill="#66486F" transform="translate(382,64)"/>
<path d="M0 0 C1.98 0 3.96 0 6 0 C6 1.32 6 2.64 6 4 C4.35 4 2.7 4 1 4 C0.67 2.68 0.34 1.36 0 0 Z " fill="#CDDCEA" transform="translate(367,65)"/>
<path d="M0 0 C1.98 0 3.96 0 6 0 C6 0.66 6 1.32 6 2 C3.69 2.33 1.38 2.66 -1 3 C-0.67 2.01 -0.34 1.02 0 0 Z " fill="#9EBBD7" transform="translate(443,61)"/>
<path d="M0 0 C2.31 0 4.62 0 7 0 C7 0.99 7 1.98 7 3 C4.69 3 2.38 3 0 3 C0 2.01 0 1.02 0 0 Z " fill="#B3C9DF" transform="translate(466,59)"/>
<path d="M0 0 C1.32 0.33 2.64 0.66 4 1 C4 2.32 4 3.64 4 5 C2.68 4.67 1.36 4.34 0 4 C0 2.68 0 1.36 0 0 Z " fill="#9DBAD6" transform="translate(482,38)"/>
<path d="M0 0 C0.99 0 1.98 0 3 0 C3 1.98 3 3.96 3 6 C2.34 6 1.68 6 1 6 C1 5.01 1 4.02 1 3 C0.01 2.67 -0.98 2.34 -2 2 C-1.34 1.34 -0.68 0.68 0 0 Z " fill="#9AB8D5" transform="translate(432,33)"/>
</svg>
