<?xml version="1.0" standalone="no"?>
<!DOCTYPE svg PUBLIC "-//W3C//DTD SVG 20010904//EN"
 "http://www.w3.org/TR/2001/REC-SVG-20010904/DTD/svg10.dtd">
<svg version="1.0" xmlns="http://www.w3.org/2000/svg"
 width="3840.000000pt" height="2160.000000pt" viewBox="0 0 3840.000000 2160.000000"
 preserveAspectRatio="xMidYMid meet">

<g transform="translate(0.000000,2160.000000) scale(0.100000,-0.100000)"
fill="#000000" stroke="none">
<path d="M2 20503 l3 -1097 45 -11 c53 -14 106 -44 126 -73 7 -11 14 -43 15
-72 3 -74 -19 -92 -179 -136 -9 -3 -12 -1923 -12 -9559 l0 -9555 19200 0
19200 0 0 10800 0 10800 -19200 0 -19200 0 2 -1097z m19491 1070 c-7 -2 -19
-2 -25 0 -7 3 -2 5 12 5 14 0 19 -2 13 -5z m-15 -24 c-2 -6 -8 -10 -13 -10 -5
0 -11 4 -13 10 -2 6 4 11 13 11 9 0 15 -5 13 -11z m42 -13 c0 -3 -4 -8 -10
-11 -5 -3 -10 -1 -10 4 0 6 5 11 10 11 6 0 10 -2 10 -4z m-7995 -922 c11 -4
30 -18 42 -31 18 -19 21 -32 18 -75 -3 -45 -8 -57 -39 -85 -27 -25 -45 -33
-74 -33 -84 0 -150 43 -157 101 -6 43 12 109 29 109 8 0 19 6 26 14 20 25 94
25 155 0z m1577 -24 c12 -11 28 -20 35 -20 8 0 13 -12 13 -33 0 -18 4 -37 10
-43 6 -6 6 -22 -2 -46 -15 -51 -66 -77 -131 -67 -95 15 -136 69 -111 143 25
73 137 112 186 66z m-11076 -1078 c31 -26 42 -52 42 -105 1 -59 -11 -92 -38
-107 -72 -38 -167 -4 -188 68 -27 90 -4 135 79 151 66 13 82 12 105 -7z m8576
-1712 c-1 -7 2 -18 9 -26 8 -10 5 -19 -17 -39 -37 -34 -68 -32 -91 5 -9 17
-21 30 -25 30 -4 0 -8 4 -8 10 0 8 44 32 80 43 21 6 56 -9 52 -23z m-802 -422
c28 -46 26 -51 -22 -45 -83 10 -102 33 -50 61 40 22 50 20 72 -16z m-6665
-248 c11 -12 14 -20 7 -20 -6 0 -12 -8 -12 -18 0 -26 -35 -56 -56 -48 -13 5
-15 9 -6 18 18 18 15 25 -9 24 -34 -1 -47 29 -24 54 23 26 68 21 100 -10z
m16615 -390 c0 -5 -7 -10 -16 -10 -8 0 -12 5 -9 10 3 6 10 10 16 10 5 0 9 -4
9 -10z m360 0 c0 -5 -4 -10 -10 -10 -5 0 -10 5 -10 10 0 6 5 10 10 10 6 0 10
-4 10 -10z m-355 -110 c3 -5 1 -10 -4 -10 -6 0 -11 5 -11 10 0 6 2 10 4 10 3
0 8 -4 11 -10z m-75 -16 c0 -2 -9 -4 -20 -4 -11 0 -20 4 -20 9 0 5 9 7 20 4
11 -3 20 -7 20 -9z m0 -65 c0 -5 -7 -9 -15 -9 -9 0 -12 6 -9 15 6 15 24 11 24
-6z m58 -34 c-3 -3 -13 -2 -22 1 -14 5 -15 9 -4 15 13 8 36 -6 26 -16z m-138
-25 c0 -5 -5 -10 -11 -10 -5 0 -7 5 -4 10 3 6 8 10 11 10 2 0 4 -4 4 -10z m75
-10 c-3 -5 -10 -10 -16 -10 -5 0 -9 5 -9 10 0 6 7 10 16 10 8 0 12 -4 9 -10z
m1005 6 c0 -3 -4 -8 -10 -11 -5 -3 -10 -1 -10 4 0 6 5 11 10 11 6 0 10 -2 10
-4z m-980 -36 c0 -5 -4 -10 -10 -10 -5 0 -10 5 -10 10 0 6 5 10 10 10 6 0 10
-4 10 -10z m-6 -60 c-6 -5 -24 21 -24 34 0 6 6 1 14 -10 8 -10 12 -21 10 -24z
m-89 20 c3 -5 1 -10 -4 -10 -6 0 -11 5 -11 10 0 6 2 10 4 10 3 0 8 -4 11 -10z
m875 -50 c0 -5 -5 -10 -11 -10 -5 0 -7 5 -4 10 3 6 8 10 11 10 2 0 4 -4 4 -10z
m-820 -16 c0 -8 -5 -12 -10 -9 -6 4 -8 11 -5 16 9 14 15 11 15 -7z m-270 -4
c0 -5 -5 -10 -11 -10 -5 0 -7 5 -4 10 3 6 8 10 11 10 2 0 4 -4 4 -10z m454 -5
c-4 -8 -8 -15 -10 -15 -2 0 -4 7 -4 15 0 8 4 15 10 15 5 0 7 -7 4 -15z m-444
-35 c0 -5 -4 -10 -10 -10 -5 0 -10 5 -10 10 0 6 5 10 10 10 6 0 10 -4 10 -10z
m280 -20 c0 -5 -2 -10 -4 -10 -3 0 -8 5 -11 10 -3 6 -1 10 4 10 6 0 11 -4 11
-10z m-160 -24 c0 -3 -4 -8 -10 -11 -5 -3 -10 -1 -10 4 0 6 5 11 10 11 6 0 10
-2 10 -4z m155 -7 c11 -17 0 -20 -21 -4 -17 13 -17 14 -2 15 9 0 20 -5 23 -11z
m-288 -31 c-3 -7 -5 -2 -5 12 0 14 2 19 5 13 2 -7 2 -19 0 -25z m89 -5 c-10
-10 -19 5 -10 18 6 11 8 11 12 0 2 -7 1 -15 -2 -18z m749 -3 c-3 -5 -10 -10
-16 -10 -5 0 -9 5 -9 10 0 6 7 10 16 10 8 0 12 -4 9 -10z m88 -40 c-40 -54
-59 -61 -22 -8 32 45 43 57 52 58 4 0 -9 -22 -30 -50z m-919 -1 c-3 -5 -10 -7
-15 -3 -5 3 -7 10 -3 15 3 5 10 7 15 3 5 -3 7 -10 3 -15z m106 -19 c0 -5 -2
-10 -4 -10 -3 0 -8 5 -11 10 -3 6 -1 10 4 10 6 0 11 -4 11 -10z m190 -29 c0
-5 10 -12 23 -16 12 -3 17 -9 10 -11 -14 -6 -53 13 -53 26 0 6 5 10 10 10 6 0
10 -4 10 -9z m320 -1 c0 -5 -5 -10 -11 -10 -5 0 -7 5 -4 10 3 6 8 10 11 10 2
0 4 -4 4 -10z m-380 -30 c0 -11 5 -20 12 -20 6 0 9 -2 6 -5 -3 -3 -13 -3 -22
1 -17 7 -23 44 -6 44 6 0 10 -9 10 -20z m1250 -4 c0 -3 -4 -8 -10 -11 -5 -3
-10 -1 -10 4 0 6 5 11 10 11 6 0 10 -2 10 -4z m-1480 -10 c0 -3 -4 -8 -10 -11
-5 -3 -10 -1 -10 4 0 6 5 11 10 11 6 0 10 -2 10 -4z m160 -17 c0 -5 -4 -9 -10
-9 -5 0 -10 7 -10 16 0 8 5 12 10 9 6 -3 10 -10 10 -16z m-57 -14 c-3 -9 -8
-14 -10 -11 -3 3 -2 9 2 15 9 16 15 13 8 -4z m1377 -21 c-9 -9 -6 -13 12 -16
44 -6 151 -252 164 -376 l6 -58 -63 -67 c-36 -37 -69 -67 -76 -67 -6 0 -14 -8
-17 -17 -5 -12 -10 -13 -17 -6 -13 13 -3 36 11 28 5 -3 8 4 7 15 -1 11 -7 20
-15 20 -7 0 -10 -5 -7 -11 4 -6 -2 -5 -14 3 -22 14 -28 30 -10 26 6 -2 14 3
16 10 3 6 -3 12 -12 12 -13 0 -14 4 -4 22 11 21 12 21 25 3 14 -18 14 -18 14
2 0 27 -23 45 -45 36 -15 -5 -17 -2 -12 16 7 27 -13 23 -28 -6 -6 -11 -16 -18
-24 -15 -11 4 -11 6 0 13 11 8 11 11 -3 20 -10 5 -18 19 -18 30 0 11 -5 17
-10 14 -6 -4 -8 -11 -5 -16 4 -5 1 -9 -4 -9 -6 0 -11 11 -11 25 0 19 -4 23
-17 18 -11 -4 -14 -3 -9 5 4 8 0 12 -12 12 -10 0 -19 7 -19 15 0 8 7 15 14 15
8 0 12 -4 9 -9 -7 -10 24 -25 33 -16 3 3 -1 10 -8 14 -7 5 -10 14 -6 20 5 9
10 9 21 0 19 -15 25 -9 17 19 -7 27 -30 29 -38 2 -5 -16 -14 -20 -48 -19 l-42
2 35 6 35 7 -27 7 c-16 4 -28 12 -28 17 0 13 13 13 26 0 6 -6 18 -8 28 -4 15
6 15 7 0 19 -11 8 -15 21 -12 38 3 15 2 27 -2 27 -4 0 -10 8 -13 19 -3 15 0
17 16 13 14 -4 18 -1 13 7 -4 6 -2 19 6 28 12 15 10 16 -14 9 -20 -4 -28 -3
-28 7 0 16 50 14 93 -2 37 -14 37 -15 37 14 0 14 5 26 10 26 6 1 14 2 19 3 21
3 23 16 3 16 -12 0 -22 5 -22 11 0 5 5 7 10 4 6 -3 10 -1 10 6 0 7 7 21 17 31
12 14 19 15 30 7 9 -9 10 -15 3 -25z m-1456 10 c9 -24 7 -28 -9 -14 -17 14
-20 30 -6 30 5 0 12 -7 15 -16z m971 6 c-3 -5 -12 -10 -18 -10 -7 0 -6 4 3 10
19 12 23 12 15 0z m-473 -22 c-7 -7 -12 -8 -12 -2 0 14 12 26 19 19 2 -3 -1
-11 -7 -17z m-291 -11 c-13 -13 -26 -3 -16 12 3 6 11 8 17 5 6 -4 6 -10 -1
-17z m1129 -12 c-7 -8 -17 -15 -22 -15 -6 0 -5 7 2 15 7 8 17 15 22 15 6 0 5
-7 -2 -15z m-1120 -52 c-12 -8 -24 -13 -27 -10 -9 9 21 35 35 30 9 -4 7 -10
-8 -20z m417 5 c-3 -8 -6 -5 -6 6 -1 11 2 17 5 13 3 -3 4 -12 1 -19z m-167
-68 c0 -5 -5 -10 -11 -10 -5 0 -7 5 -4 10 3 6 8 10 11 10 2 0 4 -4 4 -10z
m422 -22 c-7 -7 -12 -8 -12 -2 0 14 12 26 19 19 2 -3 -1 -11 -7 -17z m-882 2
c0 -5 -2 -10 -4 -10 -3 0 -8 5 -11 10 -3 6 -1 10 4 10 6 0 11 -4 11 -10z m290
6 c0 -3 -4 -8 -10 -11 -5 -3 -10 -1 -10 4 0 6 5 11 10 11 6 0 10 -2 10 -4z
m570 -36 c0 -5 -5 -10 -11 -10 -5 0 -7 5 -4 10 3 6 8 10 11 10 2 0 4 -4 4 -10z
m-772 -39 c3 -8 -1 -12 -9 -9 -7 2 -15 10 -17 17 -3 8 1 12 9 9 7 -2 15 -10
17 -17z m752 4 c0 -8 -4 -15 -10 -15 -5 0 -10 7 -10 15 0 8 5 15 10 15 6 0 10
-7 10 -15z m-465 -5 c-3 -5 -12 -10 -18 -10 -7 0 -6 4 3 10 19 12 23 12 15 0z
m35 -50 c-6 -11 -13 -20 -16 -20 -2 0 0 9 6 20 6 11 13 20 16 20 2 0 0 -9 -6
-20z m-284 -27 c-11 -11 -19 6 -11 24 8 17 8 17 12 0 3 -10 2 -21 -1 -24z
m-199 5 c-3 -8 -6 -5 -6 6 -1 11 2 17 5 13 3 -3 4 -12 1 -19z m151 -31 c3 -13
-3 -17 -25 -16 -16 1 -21 3 -11 6 11 3 15 10 11 20 -4 11 -2 14 8 11 8 -3 15
-12 17 -21z m709 -2 c0 -8 -4 -12 -9 -9 -4 3 -8 9 -8 15 0 5 4 9 8 9 5 0 9 -7
9 -15z m471 -10 c2 -2 -7 -2 -21 -1 -13 0 -24 6 -24 13 0 9 6 9 21 1 12 -6 22
-12 24 -13z m-1168 -45 c0 -5 -5 -10 -11 -10 -5 0 -7 5 -4 10 3 6 8 10 11 10
2 0 4 -4 4 -10z m-70 -4 c0 -3 -4 -8 -10 -11 -5 -3 -10 -1 -10 4 0 6 5 11 10
11 6 0 10 -2 10 -4z m1245 -16 c3 -5 1 -10 -4 -10 -6 0 -11 5 -11 10 0 6 2 10
4 10 3 0 8 -4 11 -10z m-1200 -19 c-3 -6 -11 -11 -16 -11 -5 0 -4 6 3 14 14
16 24 13 13 -3z m1240 -10 c-6 -5 -25 10 -25 20 0 5 6 4 14 -3 8 -7 12 -15 11
-17z m-45 5 c0 -11 -19 -15 -25 -6 -3 5 1 10 9 10 9 0 16 -2 16 -4z m150 -25
c0 -6 -4 -13 -10 -16 -5 -3 -10 1 -10 9 0 9 5 16 10 16 6 0 10 -4 10 -9z
m-1390 -56 c-7 -9 -15 -13 -18 -10 -3 2 1 11 8 20 7 9 15 13 18 10 3 -2 -1
-11 -8 -20z m171 -81 c-5 -21 -9 -30 -10 -19 -1 24 10 67 15 62 3 -2 0 -22 -5
-43z m-198 -19 c-3 -9 -8 -14 -10 -11 -3 3 -2 9 2 15 9 16 15 13 8 -4z m1561
-145 c-6 -6 -21 -12 -34 -15 l-23 -4 23 24 c16 17 27 22 34 15 7 -7 7 -13 0
-20z m-4 -70 c0 -12 -40 -29 -55 -24 -20 8 -19 22 3 27 23 5 52 4 52 -3z
m-206 -30 c-12 -4 -24 -16 -27 -24 -5 -12 -14 -15 -31 -10 -13 3 -27 1 -31 -5
-6 -11 -53 -5 -68 9 -9 8 14 14 87 25 22 3 42 8 45 10 2 3 14 5 25 4 l21 0
-21 -9z m8806 -111 c12 -22 20 -45 18 -50 -2 -6 -13 12 -25 40 -26 61 -21 67
7 10z m-9684 4 c15 -16 15 -17 -2 -23 -25 -9 -54 -1 -54 14 0 30 30 34 56 9z
m994 -26 c0 -18 -2 -19 -10 -7 -13 20 -13 43 0 35 6 -3 10 -16 10 -28z m13030
-27 c0 -13 -1 -13 -10 0 -5 8 -10 22 -10 30 0 13 1 13 10 0 5 -8 10 -22 10
-30z m-12807 -2 c8 -17 13 -37 10 -45 -3 -7 0 -13 7 -13 15 0 39 -30 40 -49 0
-7 -6 -11 -14 -8 -8 3 -16 2 -18 -2 -2 -5 -14 -12 -27 -16 -23 -7 -24 -6 -18
29 4 27 2 36 -9 36 -8 0 -14 8 -14 18 0 10 -5 23 -11 29 -16 16 -1 53 20 53
11 0 25 -13 34 -32z m9385 25 c-10 -2 -26 -2 -35 0 -10 3 -2 5 17 5 19 0 27
-2 18 -5z m-9634 -38 c8 -19 19 -35 24 -35 13 0 34 -78 27 -100 -4 -11 -12
-20 -20 -20 -7 0 -18 -14 -24 -31 -9 -27 -13 -30 -26 -19 -12 10 -15 10 -16
-1 0 -10 -2 -11 -6 -2 -3 10 -10 10 -24 2 -17 -8 -25 -6 -46 16 -15 14 -32 24
-40 21 -17 -7 -44 4 -38 15 3 4 13 5 22 2 15 -6 16 -5 3 9 -8 9 -18 14 -22 11
-13 -7 -9 6 8 32 16 25 11 50 -8 39 -6 -4 -9 -1 -6 6 6 20 28 24 28 6 0 -9 5
-16 10 -16 6 0 10 7 10 15 0 8 5 15 10 15 25 0 60 28 60 48 0 7 5 10 10 7 6
-3 10 -1 10 4 0 6 9 11 20 11 13 0 25 -12 34 -35z m7693 3 c-3 -8 -6 -5 -6 6
-1 11 2 17 5 13 3 -3 4 -12 1 -19z m6341 -25 c-10 -2 -26 -2 -35 0 -10 3 -2 5
17 5 19 0 27 -2 18 -5z m-6334 -149 c3 -27 10 -63 17 -80 7 -16 12 -32 11 -36
-1 -5 3 -8 8 -8 6 0 9 -3 8 -7 -3 -13 13 -53 21 -53 4 0 8 7 8 15 0 8 -4 12
-9 9 -4 -3 -8 -1 -8 4 0 18 34 24 46 7 9 -11 26 -15 69 -13 31 1 59 6 62 11 3
4 16 12 29 17 17 7 24 18 25 37 0 22 2 24 8 10 6 -17 22 -25 20 -11 0 4 5 11
13 16 10 7 10 11 1 14 -7 3 -9 12 -6 21 4 11 2 14 -5 9 -8 -5 -10 -1 -5 10 5
13 12 5 28 -32 32 -70 99 -138 170 -171 53 -25 71 -28 160 -28 91 0 106 3 165
31 73 35 122 80 151 136 11 21 22 38 24 38 3 0 -1 -13 -9 -28 -9 -18 -11 -33
-5 -43 11 -18 12 -32 0 -25 -5 3 -14 -1 -21 -9 -10 -12 -7 -13 20 -5 26 7 30
7 21 -4 -9 -11 -8 -18 5 -30 12 -13 13 -20 5 -30 -9 -10 -8 -15 3 -19 10 -4
13 -1 10 8 -4 10 0 12 15 8 13 -3 21 -1 21 7 0 32 64 52 88 28 9 -9 12 -6 12
14 0 31 15 45 24 23 7 -20 36 -19 36 0 0 18 12 19 27 4 8 -8 13 -8 17 0 4 6 2
11 -3 11 -6 0 -11 7 -11 15 0 8 6 15 14 15 8 0 17 6 19 13 3 7 6 5 6 -5 1 -10
-7 -19 -16 -19 -17 -1 -17 -2 0 -6 10 -3 14 -10 11 -16 -5 -8 -4 -9 3 -2 6 6
16 31 23 58 7 26 17 50 21 53 15 9 10 -13 -17 -94 -34 -99 -98 -196 -180 -271
-36 -32 -61 -62 -55 -65 5 -3 58 -11 118 -17 151 -14 158 -15 156 -25 -1 -5
-24 -69 -52 -143 -28 -74 -51 -137 -51 -139 0 -9 -116 9 -176 28 -91 28 -194
83 -262 139 -59 49 -59 49 -118 44 -129 -12 -323 42 -444 122 -131 87 -231
229 -264 375 -17 74 -32 229 -16 170 5 -19 11 -58 14 -86z m309 56 c4 -36 3
-46 -3 -30 -8 25 -13 97 -6 89 2 -2 6 -29 9 -59z m4314 38 c-3 -8 -6 -5 -6 6
-1 11 2 17 5 13 3 -3 4 -12 1 -19z m-12534 -43 c-3 -9 -8 -14 -10 -11 -3 3 -2
9 2 15 9 16 15 13 8 -4z m-923 -23 c0 -9 -9 -23 -20 -30 -12 -7 -20 -23 -20
-40 0 -42 -11 -72 -26 -72 -8 0 -14 4 -14 10 0 13 29 101 42 128 13 26 38 29
38 4z m11953 -41 c4 -29 2 -40 -4 -30 -8 13 -14 88 -5 78 2 -2 6 -24 9 -48z
m1213 -54 c8 -31 29 -83 45 -115 17 -31 27 -48 24 -37 -9 26 -13 65 -8 65 10
0 93 -89 93 -100 0 -6 4 -9 9 -6 15 10 43 -6 37 -20 -3 -8 1 -14 9 -14 8 0 15
5 15 10 0 6 9 10 20 10 11 0 20 -5 20 -11 0 -5 -4 -8 -9 -4 -5 3 -12 1 -16 -5
-7 -11 2 -13 85 -16 90 -3 94 -5 100 -44 4 -31 9 -35 38 -38 35 -4 37 0 22 28
-6 11 -17 17 -25 14 -9 -4 -15 0 -15 10 0 11 9 16 31 16 17 0 28 4 24 10 -3 6
-24 10 -46 10 -32 0 -39 3 -37 18 2 14 -3 17 -34 14 -20 -1 -39 2 -43 8 -3 5
2 10 13 10 15 0 18 5 14 25 -5 28 -12 31 -30 13 -8 -8 -12 -8 -12 -1 0 6 6 15
13 21 20 17 20 62 -1 62 -14 0 -15 -2 -2 -10 8 -5 12 -11 10 -14 -3 -2 -14 2
-24 10 -18 13 -18 14 5 23 13 5 18 10 11 10 -7 1 -10 6 -7 11 3 6 2 10 -2 10
-5 0 -9 8 -9 18 0 9 -4 28 -8 42 -4 14 5 2 18 -26 35 -70 101 -137 166 -170
45 -23 72 -28 145 -32 106 -5 175 15 255 72 l49 35 -2 -28 c-1 -22 -5 -27 -14
-19 -9 7 -22 1 -45 -21 -18 -17 -40 -31 -49 -31 -9 0 -28 -9 -43 -21 -14 -11
-26 -16 -26 -11 0 13 -27 9 -41 -5 -12 -12 -4 -33 12 -33 5 0 9 5 9 11 0 5 -4
7 -10 4 -5 -3 -10 -2 -10 4 0 5 5 13 10 16 6 3 10 2 10 -2 0 -5 6 -17 13 -28
11 -14 16 -15 22 -5 5 8 4 11 -2 7 -6 -4 -14 0 -17 8 -5 13 -2 14 15 4 12 -6
30 -9 40 -6 10 3 19 1 19 -4 0 -5 -11 -9 -24 -9 -13 0 -26 -4 -28 -10 -1 -5
-26 -11 -55 -12 -38 -2 -49 -6 -41 -15 6 -7 21 -10 38 -7 15 4 31 1 34 -5 10
-15 26 -14 26 2 0 8 11 19 25 25 28 13 33 5 8 -13 -21 -16 -8 -35 24 -35 20 0
24 -4 19 -17 -6 -17 -5 -17 7 -1 8 10 35 20 66 24 30 4 55 13 58 20 8 22 32
17 26 -6 -3 -11 0 -20 6 -20 5 0 8 7 5 15 -4 11 0 15 16 15 l22 0 -23 19 -23
18 21 11 c16 9 24 8 32 -2 9 -11 9 -15 -1 -19 -7 -3 -2 -5 12 -4 14 1 27 4 30
7 3 3 20 16 38 29 21 14 31 29 28 38 -3 8 -2 11 3 8 5 -3 12 4 16 15 3 11 11
20 16 20 15 0 10 -22 -8 -37 -17 -13 -17 -14 1 -11 10 2 24 12 30 23 6 11 22
38 36 60 14 22 30 49 34 60 5 12 10 15 13 8 2 -7 -3 -23 -11 -35 -9 -12 -16
-29 -16 -36 0 -27 -70 -129 -126 -186 -72 -72 -138 -114 -239 -153 -271 -104
-564 -49 -764 142 -55 53 -88 95 -118 152 -41 77 -75 194 -72 251 2 27 2 27 6
2 2 -14 10 -51 19 -83z m301 81 c-3 -8 -6 -5 -6 6 -1 11 2 17 5 13 3 -3 4 -12
1 -19z m-12241 -33 c-9 -9 -16 -13 -16 -8 0 5 5 14 12 21 6 6 14 10 16 7 2 -2
-3 -11 -12 -20z m8641 3 c-3 -8 -6 -5 -6 6 -1 11 2 17 5 13 3 -3 4 -12 1 -19z
m1125 -4 c21 -15 38 -33 38 -41 0 -7 6 -16 14 -19 10 -4 13 -14 9 -32 -4 -15
-6 -40 -5 -57 1 -20 -1 -25 -7 -16 -11 17 -25 -3 -15 -21 4 -7 4 -10 0 -6 -10
8 -36 -14 -29 -25 2 -4 -1 -6 -8 -5 -18 4 -22 -19 -4 -26 9 -3 18 1 21 9 7 17
34 21 34 5 0 -5 7 -10 15 -10 9 0 12 -6 9 -15 -5 -11 -2 -13 10 -9 10 4 15 12
12 20 -3 9 3 11 20 8 16 -3 23 -1 19 6 -3 5 -1 10 4 10 6 0 11 -4 11 -9 0 -4
11 -6 25 -3 14 2 25 11 25 18 0 9 11 14 30 14 17 0 30 -5 30 -11 0 -5 5 -7 10
-4 6 3 10 15 10 26 0 26 19 24 30 -3 5 -13 10 -18 11 -13 1 6 3 15 4 20 2 6 3
44 4 85 2 62 4 71 13 50 17 -44 4 -189 -22 -245 -29 -60 -120 -154 -175 -179
-88 -42 -128 -46 -449 -46 l-309 0 6 98 c4 53 8 149 8 212 1 63 4 103 6 88 2
-14 11 -32 19 -38 8 -7 14 -30 14 -53 0 -40 8 -46 15 -10 2 10 4 20 5 23 0 3
7 -3 15 -14 10 -13 11 -24 5 -36 -10 -18 -3 -60 10 -60 5 0 15 -7 23 -15 14
-13 19 -13 51 0 41 17 39 15 26 49 -9 25 2 37 15 16 3 -5 13 -10 21 -10 8 0
12 5 9 10 -4 6 -11 8 -16 5 -5 -4 -9 -1 -9 4 0 6 14 11 30 11 17 0 30 -5 30
-12 0 -9 3 -8 9 2 6 8 8 17 5 21 -2 4 2 22 8 40 l13 34 5 -34 5 -34 114 2 c63
1 123 7 133 12 10 5 18 7 18 3 0 -4 14 10 30 31 51 64 34 146 -38 184 -20 11
-30 20 -23 21 8 0 32 -12 53 -26z m1298 -29 c0 -5 -5 -3 -10 5 -5 8 -10 20
-10 25 0 6 5 3 10 -5 5 -8 10 -19 10 -25z m2835 -50 c28 -41 53 -74 58 -75 4
0 7 -7 7 -15 0 -8 5 -15 10 -15 6 0 10 -6 10 -12 0 -7 11 -26 25 -43 22 -27
26 -28 35 -13 6 10 17 15 26 11 12 -4 12 -8 2 -21 -7 -9 -8 -13 -2 -9 6 3 17
-4 25 -15 32 -49 55 -66 82 -61 16 3 27 1 27 -6 0 -6 9 -11 21 -11 12 0 17 4
13 11 -3 6 6 22 20 34 19 16 23 25 15 31 -9 5 -7 11 6 21 17 12 17 14 3 26
-22 18 -29 44 -12 51 23 9 16 25 -18 41 -18 8 -25 13 -15 10 9 -2 17 -2 17 0
0 7 -22 45 -36 65 -6 8 -14 24 -18 34 -6 16 -4 17 10 5 34 -28 94 -128 88
-146 -4 -12 -3 -14 3 -5 7 9 43 -38 126 -161 64 -95 117 -176 117 -181 0 -4
-86 -6 -191 -3 l-191 4 -73 114 c-127 199 -254 409 -247 409 4 0 30 -34 57
-75z m1520 65 c3 -5 1 -10 -4 -10 -6 0 -11 5 -11 10 0 6 2 10 4 10 3 0 8 -4
11 -10z m-2144 -46 c-5 -16 -10 -21 -10 -12 -1 18 10 51 15 45 2 -1 -1 -16 -5
-33z m-3804 -66 c-2 -18 -4 -6 -4 27 0 33 2 48 4 33 2 -15 2 -42 0 -60z m1299
-5 c16 -34 29 -50 38 -47 7 3 20 -2 29 -10 8 -8 17 -13 19 -10 3 2 16 -7 29
-21 16 -16 35 -25 57 -25 20 0 39 -8 49 -20 10 -11 26 -20 36 -20 15 0 17 3 8
14 -9 11 -8 15 5 20 9 3 20 4 24 1 5 -3 11 -1 15 5 3 5 -3 10 -14 10 -28 0
-28 36 -1 45 11 3 21 15 21 26 2 27 3 33 12 46 5 8 1 11 -14 8 -16 -3 -18 -1
-10 9 15 18 1 29 -17 13 -13 -10 -14 -9 -3 8 12 19 17 16 90 -55 66 -66 85
-78 137 -93 128 -36 236 -16 352 67 30 20 55 36 55 34 8 -15 33 -50 100 -136
42 -56 77 -105 77 -111 0 -14 -67 -64 -132 -99 -131 -69 -290 -101 -415 -82
-153 23 -282 77 -382 160 -99 83 -203 250 -200 322 0 15 2 18 6 8 3 -8 16 -38
29 -67z m-3086 25 c0 -6 -6 -5 -15 2 -8 7 -15 14 -15 16 0 2 7 1 15 -2 8 -4
15 -11 15 -16z m5217 -20 c-3 -8 -6 -5 -6 6 -1 11 2 17 5 13 3 -3 4 -12 1 -19z
m1810 -20 c-3 -7 -5 -2 -5 12 0 14 2 19 5 13 2 -7 2 -19 0 -25z m-3632 13 c3
-5 2 -12 -3 -15 -5 -3 -9 1 -9 9 0 17 3 19 12 6z m2434 -144 c6 -16 15 -26 20
-23 5 3 12 -1 15 -10 4 -12 2 -15 -9 -10 -8 3 -15 2 -15 -3 0 -14 27 -32 49
-34 12 -1 21 -5 21 -9 0 -4 7 -5 15 -2 8 4 15 1 15 -5 0 -16 16 -14 34 5 9 8
20 13 26 9 5 -3 7 0 4 8 -3 9 8 28 25 46 17 18 31 36 31 41 0 5 9 12 21 15 16
5 19 12 15 31 -4 14 -2 24 4 24 5 0 11 15 12 33 1 17 4 -56 8 -163 3 -107 2
-199 -1 -203 -3 -5 -78 -5 -166 -1 l-159 7 1 46 c1 25 3 114 5 196 2 121 4
139 10 90 4 -33 13 -73 19 -88z m-14561 76 c-12 -15 -38 -6 -38 13 0 7 8 17
18 23 13 7 19 6 23 -7 4 -9 2 -22 -3 -29z m14232 27 c0 -5 -5 -10 -11 -10 -5
0 -7 5 -4 10 3 6 8 10 11 10 2 0 4 -4 4 -10z m830 -32 c0 -10 -5 -16 -10 -13
-6 4 -8 11 -4 16 3 5 0 18 -8 27 -12 15 -11 16 5 3 9 -7 17 -22 17 -33z m705
12 c3 -11 13 -20 21 -20 8 0 13 -4 10 -9 -3 -5 1 -14 9 -21 8 -7 12 -16 9 -21
-3 -5 2 -6 10 -3 9 3 16 1 16 -5 0 -6 -7 -11 -15 -11 -8 0 -15 -4 -15 -9 0
-14 18 -23 22 -11 1 5 13 7 25 4 13 -4 20 -10 17 -15 -3 -5 4 -9 15 -9 10 0
21 5 23 10 2 7 14 7 36 1 21 -7 41 -6 55 0 l22 10 -22 -5 c-32 -6 -29 2 21 48
l43 41 247 -3 247 -2 -3 -153 -3 -152 -52 0 c-29 1 -213 2 -409 3 l-355 2 2
175 c2 163 8 204 24 155z m-3695 -20 c0 -5 -5 -10 -11 -10 -5 0 -7 5 -4 10 3
6 8 10 11 10 2 0 4 -4 4 -10z m1820 -4 c0 -11 -19 -15 -25 -6 -3 5 1 10 9 10
9 0 16 -2 16 -4z m1200 -10 c0 -17 -14 -29 -23 -20 -8 8 3 34 14 34 5 0 9 -6
9 -14z m870 -30 c0 -8 -4 -17 -9 -21 -12 -7 -24 12 -16 25 9 15 25 12 25 -4z
m-80 -5 c0 -5 -7 -14 -15 -21 -13 -10 -15 -9 -15 9 0 12 6 21 15 21 8 0 15 -4
15 -9z m-2090 -5 c0 -3 -4 -8 -10 -11 -5 -3 -10 -1 -10 4 0 6 5 11 10 11 6 0
10 -2 10 -4z m-13980 -46 c0 -6 -9 -5 -20 2 -11 7 -20 16 -20 21 0 4 9 3 20
-3 11 -6 20 -15 20 -20z m117 -14 c5 -42 -12 -49 -29 -11 -8 19 -8 28 2 40 16
20 21 15 27 -29z m10409 19 c17 -16 14 -18 -10 -9 -9 3 -16 10 -16 15 0 13 9
11 26 -6z m-12141 -715 c13 -5 14 -9 5 -9 -8 0 -24 4 -35 9 -13 5 -14 9 -5 9
8 0 24 -4 35 -9z m208 -47 c-7 -2 -19 -2 -25 0 -7 3 -2 5 12 5 14 0 19 -2 13
-5z m54 -9 c-3 -3 -12 -4 -19 -1 -8 3 -5 6 6 6 11 1 17 -2 13 -5z m1698 -224
c3 -5 -1 -10 -9 -10 -9 0 -16 5 -16 10 0 6 4 10 9 10 6 0 13 -4 16 -10z
m-10998 -342 c-3 -8 -6 -5 -6 6 -1 11 2 17 5 13 3 -3 4 -12 1 -19z m16553 -71
c0 -2 -10 -12 -22 -23 l-23 -19 19 23 c18 21 26 27 26 19z m-18143 -49 c-3 -8
-6 -5 -6 6 -1 11 2 17 5 13 3 -3 4 -12 1 -19z m12953 -14 c0 -8 -4 -12 -10 -9
-5 3 -10 10 -10 16 0 5 5 9 10 9 6 0 10 -7 10 -16z m5150 13 c0 -2 -10 -12
-22 -23 l-23 -19 19 23 c18 21 26 27 26 19z m-40 -51 c0 -2 -8 -10 -17 -17
-16 -13 -17 -12 -4 4 13 16 21 21 21 13z m-20267 -51 c-3 -9 -8 -14 -10 -11
-3 3 -2 9 2 15 9 16 15 13 8 -4z m20230 -2 c-4 -10 -22 -38 -42 -63 -67 -86
-66 -76 2 23 42 60 51 69 40 40z m-16524 -42 c-7 -23 -14 -39 -16 -37 -3 2 1
23 8 45 7 23 14 39 16 37 3 -2 -1 -23 -8 -45z m15431 8 c0 -6 -4 -7 -10 -4 -5
3 -10 11 -10 16 0 6 5 7 10 4 6 -3 10 -11 10 -16z m-1145 -49 c31 -15 35 -19
18 -19 -14 -1 -23 -7 -23 -16 0 -8 -4 -15 -10 -15 -5 0 -10 4 -10 9 0 15 -33
22 -41 9 -6 -10 -11 -10 -19 -2 -9 9 -8 17 2 33 15 25 30 25 83 1z m1175 -19
c0 -9 4 -21 9 -26 9 -10 24 -47 61 -155 128 -377 116 -855 -31 -1227 -262
-662 -857 -1144 -1564 -1269 -103 -18 -131 -17 -87 2 18 8 37 12 43 9 5 -4 9
0 9 8 0 8 6 20 14 27 8 6 12 18 9 26 -3 8 1 14 8 14 9 0 10 3 3 8 -21 14 -38
78 -23 87 4 3 5 14 2 25 -3 11 -1 26 4 33 6 6 10 37 9 67 -1 30 4 69 11 86 9
23 9 34 1 42 -9 9 -9 12 1 12 7 0 11 8 10 18 -1 9 1 25 6 35 5 12 2 22 -11 32
-19 15 -19 15 0 30 11 8 15 15 9 15 -7 0 -9 14 -6 40 4 30 2 40 -8 40 -10 1
-8 4 4 11 10 6 14 15 10 22 -6 11 -10 49 -16 185 -1 17 -5 32 -9 32 -5 0 -8
13 -8 29 0 17 -5 33 -10 36 -8 5 -8 11 -1 19 6 7 10 34 9 60 0 38 -5 50 -24
63 -13 8 -24 24 -24 34 0 12 -10 21 -25 25 -18 4 -25 13 -25 30 0 17 -6 24
-19 24 -10 0 -26 12 -36 26 -12 19 -19 23 -25 14 -6 -9 -9 -9 -15 0 -4 7 -2
16 6 21 11 6 10 9 -5 15 -22 8 -43 8 -161 -4 -81 -8 -92 -7 -110 10 -19 17
-19 18 13 9 45 -13 220 11 312 43 93 33 164 75 229 138 178 171 240 421 155
632 -88 220 -290 361 -569 395 l-80 10 75 -4 c79 -5 258 -46 269 -63 9 -14 58
-28 110 -31 9 -1 10 -5 4 -13 -8 -9 -2 -20 18 -36 34 -28 40 -19 7 9 -21 17
-21 18 -3 12 11 -3 23 -11 28 -17 5 -7 10 -6 17 4 6 9 10 10 10 3 0 -6 -5 -15
-11 -19 -8 -4 -7 -9 2 -15 8 -4 14 -14 14 -21 0 -7 10 -13 22 -12 16 0 20 -3
13 -11 -7 -8 -1 -24 19 -52 16 -22 40 -61 54 -87 14 -27 28 -43 32 -36 4 6 1
19 -6 28 -11 13 -8 12 9 -2 21 -18 32 -43 13 -32 -5 3 -11 0 -14 -8 -7 -18 3
-57 12 -51 4 2 5 -9 3 -26 -3 -17 0 -29 7 -29 6 0 11 4 11 10 0 5 9 14 19 19
16 9 18 8 14 -9 -4 -14 0 -20 11 -20 9 0 15 -3 15 -7 -3 -19 2 -27 10 -14 7
10 14 8 36 -10 14 -13 36 -24 48 -25 12 -1 31 -5 41 -9 14 -6 17 -5 12 3 -4 7
-1 12 8 12 9 0 16 9 16 20 0 16 7 20 35 20 42 0 45 -14 8 -32 -20 -9 -29 -22
-31 -43 -2 -21 0 -26 6 -16 10 15 52 7 64 -13 6 -8 8 -8 8 1 0 6 -7 19 -16 27
-8 9 -12 16 -7 16 5 0 15 -6 22 -12 10 -11 15 -9 26 6 8 10 18 15 24 11 6 -3
11 0 12 7 0 7 4 3 9 -9 10 -26 40 -31 40 -8 0 8 -7 15 -15 15 -8 0 -15 5 -15
11 0 7 7 8 18 4 9 -4 26 -8 37 -9 41 -6 66 -18 61 -31 -8 -23 43 -25 64 -2 16
17 22 18 35 7 13 -10 15 -9 15 9 0 17 6 21 30 21 22 0 30 -5 30 -18 0 -10 4
-22 9 -27 5 -6 11 -19 14 -30 4 -15 5 -13 6 8 1 31 26 37 46 11 10 -15 13 -15
27 0 9 9 25 16 35 16 17 -1 17 -2 -2 -17 -19 -15 -19 -15 10 -8 17 3 31 10 33
15 6 16 32 -1 32 -20 0 -27 20 -35 27 -11 3 12 9 21 14 21 5 0 9 5 9 11 0 7 8
18 18 25 20 16 66 19 57 4 -8 -13 18 -13 31 -1 5 6 16 5 27 -4 18 -13 17 -14
-2 -20 -12 -3 -25 -4 -31 0 -11 7 -84 -5 -76 -12 9 -10 120 -12 131 -3 6 5 29
10 52 11 44 3 50 15 21 37 -21 15 -24 52 -5 52 9 0 8 3 -2 9 -16 10 -6 31 15
31 7 0 19 -9 26 -20 8 -12 23 -20 38 -19 l25 0 -23 16 c-22 15 -22 17 -5 35
10 11 13 22 8 26 -19 14 -15 33 9 42 36 13 64 2 68 -28 2 -14 9 -27 16 -30 10
-3 12 8 8 47 -5 60 -10 69 -44 83 l-27 11 24 6 24 7 -25 16 c-17 11 -29 13
-36 6 -6 -6 -12 -6 -16 0 -3 6 7 13 24 17 16 4 30 13 30 20 0 21 -16 26 -30
10 -7 -8 -24 -15 -38 -15 -20 0 -23 3 -14 12 7 7 12 20 12 30 0 12 6 18 18 16
14 -2 17 5 18 42 3 69 3 72 14 65 14 -8 4 35 -20 90 -10 22 -20 52 -24 68 -3
15 -11 27 -16 27 -6 0 -10 11 -10 25 0 14 -5 25 -11 25 -5 0 -7 5 -4 10 9 14
25 2 25 -19z m-4113 -3 c18 -13 33 -26 33 -30 0 -5 7 -8 15 -8 8 0 52 -28 97
-63 87 -66 162 -110 172 -100 3 3 12 0 21 -7 23 -19 31 -3 11 19 -10 11 -16
26 -14 33 3 7 15 -4 30 -25 29 -42 83 -91 143 -128 22 -13 49 -30 60 -36 21
-13 249 -125 350 -172 95 -45 125 -58 200 -86 39 -14 84 -32 100 -40 62 -29
121 -53 145 -60 14 -4 49 -19 79 -33 30 -13 60 -25 65 -27 60 -13 176 -81 176
-103 0 -8 8 -16 18 -19 9 -3 72 -69 139 -146 187 -217 223 -261 223 -274 0 -7
5 -13 12 -13 9 0 9 -3 -1 -12 -10 -11 -15 -9 -27 6 -8 11 -14 16 -14 10 0 -5
-7 -1 -15 10 -7 10 -18 15 -24 11 -6 -3 -9 0 -6 7 4 9 -7 19 -30 28 -32 12
-41 27 -35 55 1 5 -5 14 -13 20 -7 5 -19 20 -26 33 -6 12 -19 22 -29 22 -15 0
-15 2 -2 10 8 5 13 10 10 11 -3 0 -15 2 -27 3 -13 2 -24 5 -26 7 -36 45 -57
79 -57 91 0 9 -9 18 -21 21 -13 4 -18 10 -14 17 5 9 1 10 -14 5 -17 -5 -20 -3
-14 11 5 13 3 16 -10 11 -13 -5 -17 -1 -17 19 0 14 -4 22 -10 19 -5 -3 -21 5
-35 19 -14 15 -32 26 -39 26 -8 0 -16 7 -20 15 -4 10 -11 12 -27 7 -15 -6 -34
-3 -60 10 -21 10 -43 18 -50 18 -6 0 -25 7 -42 15 -18 8 -77 30 -132 50 -55
20 -107 39 -115 42 -8 3 -19 7 -25 8 -26 7 -220 99 -223 107 -2 4 -10 8 -17 8
-14 0 -102 39 -330 146 -33 15 -64 28 -68 28 -4 1 -11 6 -15 11 -4 6 -32 21
-62 35 -30 13 -62 29 -70 36 -8 7 -62 38 -120 69 -58 31 -116 68 -131 81 -14
13 -33 24 -42 24 -10 0 -20 8 -24 18 -3 9 -21 31 -40 48 -35 33 -40 52 -23 85
13 24 17 24 57 -3z m-11424 -166 c-31 -94 -58 -170 -61 -168 -4 5 16 81 29
111 5 11 10 30 12 42 2 12 6 26 10 29 4 4 7 18 7 31 0 13 5 23 11 23 5 0 8 4
4 9 -3 5 -1 12 5 16 5 3 10 19 10 34 0 23 18 56 27 48 1 -2 -23 -80 -54 -175z
m4607 99 c0 -76 -1 -79 -25 -84 -24 -4 -102 8 -80 13 6 1 15 3 20 5 6 1 20 3
32 3 28 2 36 26 42 120 0 12 3 22 6 22 3 0 5 -35 5 -79z m11893 19 c-3 -11
-10 -20 -15 -20 -5 0 -7 -4 -4 -9 3 -5 -1 -14 -9 -21 -8 -7 -15 -17 -15 -23 0
-6 -6 -18 -14 -26 -21 -24 -134 -251 -142 -286 -4 -16 -11 -35 -16 -41 -8 -11
-17 -42 -22 -74 -1 -9 -5 -20 -9 -26 -9 -15 12 -86 24 -79 5 4 9 -1 9 -9 0 -9
-9 -16 -20 -16 -11 0 -17 5 -15 13 3 6 1 26 -4 42 -7 23 -10 25 -11 10 -1 -11
-1 -30 0 -42 1 -15 -4 -23 -14 -23 -9 0 -16 -2 -16 -4 0 -13 13 -36 21 -36 4
0 6 7 2 16 -4 11 -1 15 11 13 9 -2 16 -8 16 -14 -1 -5 7 -12 17 -16 15 -6 15
-8 2 -8 -10 -1 -19 -12 -21 -26 -4 -20 -1 -25 14 -25 11 0 22 9 25 20 6 24 19
26 27 5 4 -12 10 -14 25 -5 28 14 87 13 103 -3 7 -8 19 -12 26 -9 7 2 20 -4
27 -14 14 -18 14 -18 15 3 0 12 6 24 13 27 9 5 9 7 0 12 -18 8 19 45 43 43 10
-1 43 -1 72 -1 46 2 52 4 52 23 0 18 2 19 15 9 9 -7 19 -9 23 -5 4 4 1 10 -5
12 -7 3 -13 9 -13 14 0 5 11 2 25 -7 26 -17 115 -26 115 -11 0 4 -7 7 -15 7
-9 0 -12 6 -8 18 11 28 28 33 33 9 4 -16 14 -23 40 -25 30 -3 32 -2 21 12 -8
9 -10 16 -6 16 4 0 13 -8 20 -17 12 -16 16 -14 54 20 23 21 46 35 52 32 14 -9
1 -25 -22 -25 -11 0 -19 -7 -19 -17 0 -9 3 -13 7 -10 3 4 13 1 21 -5 11 -10
17 -9 27 5 16 22 35 22 36 0 0 -14 2 -13 9 5 11 25 30 30 30 6 0 -18 23 -44
39 -44 11 0 15 12 11 44 -1 11 3 16 12 14 7 -3 12 -13 12 -22 -1 -9 4 -16 12
-16 8 0 14 6 14 13 0 8 3 8 8 1 10 -14 82 -10 92 5 5 9 9 8 14 -5 7 -17 21
-11 21 9 0 7 11 14 24 15 19 3 23 0 17 -14 -4 -10 -3 -15 1 -10 4 4 13 22 20
39 l11 32 1 -30 c2 -40 16 -63 24 -40 4 9 12 15 19 14 7 -1 21 1 31 5 24 11
48 0 41 -19 -5 -11 1 -15 25 -15 31 0 43 -21 21 -35 -12 -7 -13 -25 -2 -25 5
0 17 6 27 14 18 13 18 17 6 40 -8 14 -20 26 -28 26 -7 0 -13 5 -13 10 0 19 52
11 57 -9 8 -31 74 -53 89 -29 4 7 3 8 -4 4 -7 -4 -12 -1 -12 9 0 9 5 13 10 10
6 -4 18 -4 27 -1 12 5 13 9 3 21 -7 9 -10 18 -7 21 10 10 46 -7 50 -24 3 -9 4
0 2 21 -3 34 -2 37 23 36 24 0 25 -1 7 -9 -11 -5 -14 -9 -7 -9 10 -1 10 -6 1
-23 -6 -13 9 -1 34 27 25 27 44 53 41 56 -2 4 7 10 21 13 14 4 25 11 25 17 0
5 15 23 33 40 17 16 39 36 48 44 9 8 19 15 24 15 8 0 28 17 63 53 9 9 20 17
25 17 5 0 29 14 54 30 24 17 48 30 53 30 4 0 10 6 13 13 2 6 8 9 12 5 4 -4
-19 -24 -51 -44 -266 -169 -498 -466 -598 -768 -50 -149 -86 -353 -86 -484 0
-542 265 -1024 720 -1305 445 -275 1053 -305 1540 -76 183 87 314 182 458 334
186 197 314 446 377 735 22 100 31 387 16 488 -53 346 -186 622 -414 859 -55
57 -97 106 -93 110 3 4 14 -3 22 -16 9 -13 22 -20 31 -17 8 3 12 2 9 -2 -6
-11 2 -21 47 -60 21 -17 35 -32 32 -32 -4 0 8 -15 26 -32 18 -18 37 -32 42
-30 4 1 6 -2 3 -7 -5 -7 26 -56 45 -71 3 -3 16 -23 27 -45 12 -22 30 -51 41
-65 17 -21 21 -22 36 -10 9 7 14 19 11 26 -3 8 0 11 10 7 10 -4 12 -9 6 -15
-16 -16 -2 -48 22 -48 18 0 19 -2 6 -11 -12 -9 -12 -10 4 -5 10 4 25 1 32 -5
9 -8 14 -8 14 -1 0 6 -4 14 -10 17 -16 10 -11 21 10 21 11 0 20 -5 21 -11 0
-5 5 1 10 14 9 23 10 23 30 5 19 -17 21 -18 30 -1 6 9 16 17 24 17 16 0 41
-38 37 -58 -2 -6 1 -20 6 -29 7 -11 8 1 5 39 -4 60 10 85 32 55 15 -21 49 -23
42 -3 -4 11 -1 13 11 9 13 -5 14 -3 6 6 -9 9 -9 19 0 37 12 25 44 31 81 13 17
-8 16 -8 -7 -4 -15 3 -30 1 -33 -5 -6 -10 24 -14 117 -15 26 0 47 -3 45 -6 -1
-3 4 -13 12 -22 17 -21 47 -22 54 -2 4 10 17 13 44 11 21 -2 57 1 81 6 37 9
45 8 57 -8 8 -11 15 -29 15 -41 0 -21 5 -23 46 -23 51 0 73 17 74 58 0 12 5
22 10 22 6 0 15 10 20 23 7 17 9 18 9 4 1 -10 8 -20 16 -23 14 -6 13 -8 -1
-19 -30 -21 -10 -45 38 -46 33 0 38 -2 23 -9 -11 -5 -14 -9 -7 -9 20 -1 14
-38 -8 -44 -11 -3 -20 -10 -20 -16 0 -16 33 -27 38 -13 2 7 10 12 18 12 20 0
30 30 14 40 -11 7 -10 11 2 23 19 20 70 26 75 10 3 -7 -2 -13 -11 -13 -9 0
-16 -4 -16 -10 0 -5 -7 -7 -15 -4 -11 5 -13 2 -9 -10 3 -9 10 -16 15 -16 5 0
9 -8 9 -17 1 -17 2 -17 13 -2 7 9 21 18 32 20 11 3 20 11 20 19 0 27 37 52 67
46 16 -3 28 -1 28 5 0 6 9 8 21 4 15 -5 29 1 50 21 26 24 32 27 49 16 17 -10
20 -10 20 3 0 8 5 25 12 38 6 12 14 28 18 36 7 16 -19 103 -29 97 -3 -2 -7 14
-8 37 -2 22 -7 43 -12 46 -5 3 -14 24 -20 46 -6 22 -18 49 -26 59 -8 11 -15
29 -14 40 0 29 52 -84 109 -239 74 -204 113 -368 152 -645 17 -123 17 -581 0
-710 -62 -467 -211 -875 -457 -1245 -99 -150 -186 -257 -330 -404 -486 -500
-1128 -803 -1885 -891 -140 -17 -588 -14 -751 4 -359 41 -717 143 -1034 296
-739 356 -1286 1000 -1510 1778 -82 285 -109 498 -107 832 0 140 6 293 12 340
30 224 96 500 165 686 69 187 287 604 258 494z m-20200 -5 c-3 -9 -8 -14 -10
-11 -3 3 -2 9 2 15 9 16 15 13 8 -4z m2191 -19 c-3 -15 -8 -25 -11 -23 -2 3
-1 17 3 31 3 15 8 25 11 23 2 -3 1 -17 -3 -31z m20479 27 c-13 -2 -35 -2 -50
0 -16 2 -5 4 22 4 28 0 40 -2 28 -4z m2768 -15 c11 -21 11 -22 -4 -9 -10 7
-17 17 -17 22 0 15 9 10 21 -13z m-2918 -5 c-7 -2 -19 -2 -25 0 -7 3 -2 5 12
5 14 0 19 -2 13 -5z m622 -3 c27 -7 27 -8 5 -8 -14 0 -36 4 -50 8 -20 6 -21 8
-5 8 11 0 34 -4 50 -8z m-755 -20 c0 -5 -7 -10 -16 -10 -8 0 -12 5 -9 10 3 6
10 10 16 10 5 0 9 -4 9 -10z m43 3 c-7 -2 -19 -2 -25 0 -7 3 -2 5 12 5 14 0
19 -2 13 -5z m-98 -23 c-27 -12 -43 -12 -25 0 8 5 22 9 30 9 10 0 8 -3 -5 -9z
m970 0 c13 -5 14 -9 5 -9 -8 0 -24 4 -35 9 -13 5 -14 9 -5 9 8 0 24 -4 35 -9z
m-23344 -37 c-12 -20 -14 -14 -5 12 4 9 9 14 11 11 3 -2 0 -13 -6 -23z m16794
16 c11 4 31 6 45 4 14 -2 54 -4 89 -4 39 -1 60 -4 54 -10 -15 -15 -245 -7
-251 8 -3 10 3 11 20 4 13 -5 32 -5 43 -2z m5535 7 c0 -2 -11 -6 -25 -8 -14
-3 -25 -1 -25 3 0 5 11 9 25 9 14 0 25 -2 25 -4z m-5086 -15 c-8 -9 -244 -7
-244 2 0 4 56 7 125 6 68 -2 122 -5 119 -8z m43 3 c-3 -3 -12 -4 -19 -1 -8 3
-5 6 6 6 11 1 17 -2 13 -5z m4983 -2 c0 -9 -44 -32 -60 -32 -20 0 -9 16 11 17
12 1 27 7 32 12 13 13 17 14 17 3z m1190 -12 c13 -9 13 -10 0 -10 -8 0 -22 5
-30 10 -13 9 -13 10 0 10 8 0 22 -5 30 -10z m-21259 -31 c-5 -13 -10 -19 -10
-12 -1 15 10 45 15 40 3 -2 0 -15 -5 -28z m8326 4 c-9 -9 -19 -14 -23 -11 -10
10 6 28 24 28 15 0 15 -1 -1 -17z m6180 -85 c-2 -18 -4 -4 -4 32 0 36 2 50 4
33 2 -18 2 -48 0 -65z m6888 52 c6 -4 37 -22 69 -39 32 -17 52 -31 45 -31 -8
0 -23 6 -34 14 -11 7 -53 30 -92 50 -40 21 -73 39 -73 41 0 5 72 -25 85 -35z
m-1479 -6 c-38 -19 -70 -33 -72 -31 -6 6 108 66 126 67 8 0 -16 -16 -54 -36z
m-15022 -730 c521 0 881 -4 882 -10 2 -5 4 -280 6 -611 l3 -603 -885 -2 -885
-3 -3 -195 c-2 -107 0 -286 3 -397 l7 -203 1069 0 1069 0 -2 -692 -3 -693
-1770 -2 c-973 -1 -1783 0 -1799 4 l-29 6 6 601 c4 331 8 1143 9 1806 1 726 4
1139 9 1040 8 -183 15 -260 23 -268 4 -3 6 21 6 53 0 50 2 56 15 45 8 -7 15
-20 15 -29 0 -12 10 -16 35 -17 34 0 45 9 25 21 -6 4 -8 11 -4 16 3 5 10 6 16
3 7 -4 8 -2 4 4 -3 6 3 16 16 23 16 9 23 9 26 0 2 -6 17 -11 33 -11 16 0 29
-5 29 -12 0 -7 9 -2 19 12 23 29 18 44 -10 29 -26 -14 -34 -6 -19 20 8 17 15
19 29 12 14 -8 22 -5 39 16 12 15 25 22 32 18 9 -6 9 -10 -1 -16 -12 -8 -12
-11 1 -18 10 -7 20 -5 31 5 8 7 21 14 28 14 6 0 11 6 10 13 -1 6 -1 19 0 27 1
12 3 12 12 -2 6 -10 16 -15 26 -11 13 5 15 2 11 -15 -4 -12 -2 -22 3 -22 5 0
9 4 9 9 0 5 9 7 20 4 14 -4 20 0 20 12 0 9 -9 19 -19 22 -19 5 -22 18 -8 41 5
7 4 12 -2 12 -6 0 -11 5 -11 10 0 6 9 10 21 10 15 0 19 -5 17 -22 -2 -15 2
-23 12 -24 8 0 25 -2 38 -2 15 -2 22 -8 22 -22 0 -14 7 -20 23 -20 13 0 28 -5
33 -10 8 -8 10 -1 9 20 -1 17 2 33 7 36 4 3 4 13 -1 22 -5 10 -11 38 -14 64
-5 39 -3 46 10 41 8 -3 19 0 23 8 15 23 24 1 12 -27 -11 -23 -10 -25 6 -20 15
5 18 1 17 -16 -1 -13 3 -26 9 -30 7 -5 4 -8 -6 -8 -10 0 -18 5 -18 10 0 6 -7
10 -15 10 -21 0 -19 -39 3 -46 37 -12 47 -22 44 -48 -3 -26 11 -35 24 -15 3 6
15 9 25 6 10 -3 23 1 29 8 9 11 4 15 -24 21 -39 7 -48 31 -21 54 12 10 16 9
20 -2 3 -8 17 -13 33 -12 37 2 37 2 18 23 -20 22 -9 33 27 31 35 -3 40 -1 29
13 -9 10 -1 12 35 10 42 -3 45 -1 40 18 l-6 21 23 -21 c25 -23 56 -20 56 7 0
8 3 13 6 9 10 -10 -7 -47 -22 -47 -21 0 -15 -105 8 -119 22 -14 81 -3 74 14
-2 7 1 18 7 24 6 6 7 11 2 11 -11 1 95 39 108 40 5 0 5 -4 2 -10 -3 -5 -15
-10 -26 -10 -10 0 -19 -4 -19 -10 0 -5 -7 -10 -16 -10 -18 0 -14 -24 4 -26 7
-1 17 -2 23 -3 5 0 7 -5 4 -11 -3 -5 -1 -18 5 -27 9 -16 10 -15 5 5 -5 16 -2
22 9 22 9 0 16 -6 16 -14 0 -14 46 -26 68 -18 24 8 11 18 -17 14 -35 -5 -42 5
-25 37 12 23 12 23 19 2 3 -12 11 -19 16 -15 6 4 4 13 -6 24 -12 13 -27 17
-53 15 -33 -4 -34 -4 -7 3 21 5 29 13 27 25 -2 10 3 17 13 17 8 0 15 -5 15
-10 0 -6 8 -10 18 -8 16 3 18 0 21 -54 1 -11 9 -18 22 -18 15 0 19 5 15 15 -3
9 0 15 9 15 8 0 15 5 15 10 0 15 19 12 36 -4 9 -9 10 -17 4 -21 -14 -9 -13
-28 2 -23 9 3 11 52 9 191 -1 102 1 268 6 369 8 183 8 183 13 -187 l5 -370
879 -1z m3325 689 c-29 -50 -50 -73 -63 -73 -6 0 -20 -14 -31 -30 -25 -37 -37
-38 -29 -2 8 35 52 91 94 120 47 32 55 27 29 -15z m-10467 -5 c-7 -7 -12 -8
-12 -2 0 14 12 26 19 19 2 -3 -1 -11 -7 -17z m25658 -31 c0 -16 -18 3 -23 25
-6 22 -5 22 8 4 8 -11 15 -24 15 -29z m-23455 -46 c-9 -28 -13 -57 -9 -64 5
-9 4 -9 -6 0 -9 9 -9 23 5 68 9 31 18 55 21 53 2 -3 -3 -28 -11 -57z m-4541
23 c3 -8 2 -12 -4 -9 -6 3 -10 10 -10 16 0 14 7 11 14 -7z m2307 -18 c-14 -36
-22 -33 -9 5 6 16 12 28 14 26 3 -2 0 -16 -5 -31z m23855 12 l19 -21 -27 18
c-29 18 -34 25 -20 25 5 0 17 -10 28 -22z m4987 -8 c6 0 49 -38 96 -84 47 -46
167 -161 266 -257 283 -274 370 -362 368 -371 -2 -4 1 -7 6 -5 8 2 253 -226
414 -386 38 -38 70 -67 72 -65 2 2 5 113 6 246 1 133 5 244 9 247 4 2 5 28 2
56 -3 37 -2 50 7 45 6 -4 11 -22 11 -40 0 -40 24 -66 43 -47 9 10 8 15 -5 25
-10 7 -18 25 -18 40 0 28 17 36 26 11 3 -8 22 -24 41 -35 27 -16 33 -24 24
-33 -6 -6 -11 -19 -11 -29 0 -11 -6 -18 -14 -16 -8 2 -14 -1 -13 -7 1 -5 6 -9
11 -7 5 2 12 -2 16 -8 8 -13 60 -3 60 12 0 5 -9 12 -20 15 -23 6 -24 8 -9 34
8 16 17 19 38 14 29 -6 47 12 42 42 -1 6 9 13 21 15 13 2 23 10 23 18 0 20 84
27 97 8 6 -10 10 -10 18 2 8 13 11 13 19 1 7 -11 13 -9 30 8 18 18 32 21 68
19 46 -3 54 -10 68 -53 5 -16 8 -17 15 -5 8 12 10 12 10 1 0 -9 11 -12 40 -9
22 2 40 -1 40 -5 0 -5 7 -4 15 3 9 7 13 15 11 18 -8 7 21 32 38 32 8 0 21 -9
29 -21 9 -12 24 -20 39 -19 48 4 68 0 68 -15 0 -8 -5 -15 -12 -15 -6 0 -8 -3
-5 -6 9 -9 77 25 77 38 0 6 -9 8 -20 5 -12 -3 -20 0 -20 8 0 20 27 26 41 9 7
-8 18 -13 26 -10 7 3 13 -1 13 -8 0 -8 7 -16 15 -20 11 -4 15 2 15 22 0 35 10
72 20 72 4 0 5 -12 2 -26 -3 -20 0 -26 17 -31 25 -6 27 -16 6 -33 -8 -7 -15
-21 -15 -30 0 -10 -6 -21 -12 -23 -7 -3 9 -6 35 -6 27 -1 46 3 43 8 -5 8 45
23 52 16 10 -9 -21 -45 -38 -45 -11 0 -20 -4 -20 -8 0 -4 32 -6 70 -4 47 3 70
1 70 -7 0 -6 -4 -11 -9 -11 -12 0 -8 -59 6 -64 15 -6 24 32 9 38 -6 2 -4 5 5
5 18 1 34 -42 23 -61 -8 -13 14 -28 42 -28 30 0 36 23 13 43 -10 9 -18 25 -18
34 1 17 2 17 6 1 5 -21 10 -22 27 -6 10 10 9 16 -8 30 l-21 17 23 1 c13 0 22
6 22 15 0 8 3 15 8 15 4 0 7 -24 7 -52 0 -45 3 -53 18 -50 10 2 17 -3 17 -12
0 -18 -20 -32 -20 -14 -1 7 -8 0 -16 -15 -18 -34 -9 -51 12 -23 8 11 14 16 14
11 0 -5 7 0 15 11 8 10 15 32 15 48 0 23 -3 27 -19 23 -17 -4 -18 -2 -8 13 6
10 15 16 19 14 4 -3 8 1 9 8 2 35 5 173 9 363 10 529 16 -97 18 -1857 l2
-1878 -236 0 -236 0 -111 107 c-62 59 -204 198 -317 309 -273 267 -571 556
-700 679 -120 114 -282 272 -880 855 -234 228 -472 460 -530 516 -58 55 -150
144 -205 197 -55 53 -104 92 -109 87 -4 -4 -7 -614 -5 -1354 l4 -1346 -731 0
-732 0 -6 23 c-5 21 2 3110 8 3419 1 65 5 120 9 124 10 11 8 44 -3 44 -5 0 -7
7 -4 15 8 21 21 19 27 -5 3 -11 11 -19 19 -18 8 2 12 -5 10 -21 -1 -13 4 -31
12 -40 7 -9 17 -26 20 -38 4 -13 14 -23 22 -23 16 0 19 -16 4 -25 -18 -11 -11
-36 20 -67 17 -16 30 -25 30 -19 0 6 7 11 17 11 14 0 14 2 -2 20 -17 19 -17
20 1 27 11 4 25 13 33 21 12 12 12 13 0 12 -40 -6 -49 0 -49 35 0 19 5 35 11
35 5 0 7 -5 4 -10 -3 -6 1 -13 9 -16 9 -3 16 -12 16 -20 0 -8 6 -14 13 -15 32
-2 62 -10 65 -19 2 -5 15 -2 30 8 14 9 23 12 19 5 -4 -6 -3 -14 2 -18 6 -3 8
-12 4 -20 -3 -9 1 -15 10 -15 8 0 14 8 13 17 0 12 7 19 22 21 12 2 22 8 22 13
0 12 27 12 32 -1 2 -6 17 -8 36 -4 22 5 30 10 23 17 -15 15 12 37 46 38 27 0
27 1 6 9 -35 14 -27 20 27 20 43 0 50 -3 50 -20 0 -11 -4 -20 -10 -20 -5 0
-10 -5 -10 -11 0 -6 14 1 31 15 36 31 53 25 44 -15 -7 -29 3 -37 21 -19 6 6
19 4 38 -5 37 -19 38 -19 34 8 -2 16 -13 24 -40 31 -21 5 -38 15 -38 23 0 14
9 16 54 13 24 -1 28 1 22 16 -8 21 2 54 16 54 7 0 9 -16 5 -43 -6 -40 -4 -46
24 -66 16 -12 39 -23 49 -24 11 -1 20 -7 20 -13 0 -7 8 -10 20 -7 14 4 20 0
20 -11 0 -9 -8 -16 -20 -16 -11 0 -20 -4 -20 -10 0 -14 32 -12 53 4 17 14 18
16 2 40 -18 27 -13 46 11 46 9 0 14 -10 14 -27 1 -25 2 -26 11 -10 6 10 8 25
5 33 -3 8 1 14 9 14 9 0 12 -6 9 -17 -5 -15 -4 -16 5 -3 18 25 12 40 -14 40
-14 0 -25 6 -26 13 0 10 -2 10 -6 0 -8 -20 -32 -15 -26 5 3 12 -3 22 -18 28
-18 8 -12 10 32 9 93 -3 101 -4 93 -16 -3 -6 0 -16 7 -21 11 -7 11 -11 2 -15
-19 -7 -16 -43 3 -43 14 0 14 3 4 15 -11 13 -7 15 24 17 20 0 42 1 49 2 6 1
12 -7 12 -16 0 -23 6 -27 48 -33 28 -5 43 -1 62 13 13 11 23 21 21 23 -2 2 -6
21 -9 42 -5 34 -4 37 19 37 13 0 24 -4 24 -10 0 -5 -8 -10 -17 -10 -13 0 -14
-3 -5 -12 8 -8 9 -15 1 -25 -9 -10 -8 -13 2 -13 19 1 77 28 62 29 -7 1 -13 5
-13 11 0 13 100 0 127 -17 18 -12 28 -13 60 -2 21 7 44 18 52 24 12 8 13 6 9
-12 -4 -13 -2 -23 4 -23 11 0 38 -25 38 -35 0 -3 -4 -4 -9 -1 -8 6 -51 -26
-51 -38 0 -10 39 -7 61 4 15 9 19 7 19 -5 0 -9 7 -18 15 -21 16 -7 45 18 45
38 0 9 15 14 45 15 25 1 45 -3 45 -8 0 -5 -4 -9 -9 -9 -5 0 -14 -13 -21 -29
-16 -39 2 -80 26 -60 14 11 13 15 -5 28 -11 9 -17 21 -13 27 10 16 49 26 56
15 4 -6 12 -8 19 -6 29 11 86 11 90 1 2 -6 2 -1 0 12 -2 14 2 22 10 22 21 0
28 -12 16 -27 -7 -8 -8 -13 -1 -13 5 0 17 10 25 23 l16 22 0 -31 c1 -16 7 -39
15 -49 13 -18 15 -18 50 -1 21 10 40 15 43 12 9 -9 -6 -38 -17 -31 -5 3 -10
-1 -10 -9 0 -19 35 -21 47 -3 4 6 6 22 4 35 -2 15 3 22 14 22 13 0 16 -6 12
-23 -4 -12 -2 -28 2 -35 6 -10 10 -8 14 8 3 13 10 19 17 15 6 -4 9 -13 6 -21
-3 -8 1 -14 9 -14 14 0 19 16 16 50 -1 11 3 9 14 -5 16 -19 16 -19 10 10 l-7
30 25 -30 c22 -26 23 -31 9 -36 -16 -6 -15 -7 1 -14 15 -6 63 5 121 30 16 7
18 5 13 -8 -5 -13 -1 -17 14 -17 11 0 18 4 14 9 -3 6 4 8 16 6 13 -3 25 -9 28
-14 4 -5 16 -4 31 1 25 10 25 10 3 18 -26 11 -21 46 8 55 25 8 49 -6 25 -15
-22 -7 -22 -25 0 -25 17 0 90 63 82 71 -3 2 -11 -2 -18 -11 -7 -8 -17 -15 -23
-15 -5 0 -3 8 7 19 19 21 12 53 -10 44 -8 -3 -14 -9 -14 -14 0 -4 8 -6 18 -2
15 6 15 3 -3 -18 -11 -13 -21 -26 -23 -29 -2 -3 -3 2 -2 10 5 34 0 42 -21 37
-17 -4 -19 -3 -10 6 6 6 10 22 10 37 -1 17 -3 20 -6 7 -5 -20 -25 -18 -31 4
-3 11 -2 11 6 1 7 -11 10 -9 14 6 6 22 -33 68 -46 55 -4 -4 -5 -1 -1 7 3 9 -3
20 -15 28 -22 14 -27 4 -7 -18 10 -12 9 -12 -6 0 -10 7 -16 19 -13 26 6 15
-32 46 -46 38 -4 -3 -5 2 -2 10 3 9 -4 21 -20 31 -14 10 -23 21 -20 26 3 5 -3
9 -13 9 -19 0 -73 54 -73 72 0 5 -4 7 -9 4 -5 -3 -19 8 -32 25 -37 49 -69 83
-69 74 0 -4 -9 2 -20 15 -11 13 -20 26 -20 30 0 4 -11 12 -25 18 -14 6 -25 17
-24 24 0 10 2 10 6 1 2 -7 10 -13 16 -13z m2684 -2 c-3 -8 -6 -5 -6 6 -1 11 2
17 5 13 3 -3 4 -12 1 -19z m-27778 -69 c-6 -19 -14 -41 -18 -49 -5 -9 -12 -30
-16 -48 -3 -18 -11 -30 -16 -27 -5 4 -6 0 -4 -7 3 -8 -53 -191 -125 -408 -72
-217 -166 -503 -209 -635 -44 -132 -242 -733 -441 -1335 -199 -602 -389 -1180
-424 -1285 l-63 -190 -207 -3 -207 -2 -70 147 c-39 82 -121 254 -181 383 -61
129 -131 278 -155 330 -61 127 -351 746 -396 840 -19 41 -94 201 -167 355 -73
154 -151 318 -173 365 -22 47 -63 136 -92 198 -29 62 -56 114 -60 115 -12 3
-15 -3 -308 -633 -91 -195 -185 -398 -210 -450 -24 -52 -90 -192 -145 -310
-55 -118 -127 -273 -161 -344 -34 -70 -61 -130 -61 -131 0 -1 -25 -56 -56
-121 -31 -66 -108 -229 -170 -364 -62 -135 -128 -274 -146 -310 l-33 -65 -205
0 -205 0 -87 260 c-98 295 -696 2104 -907 2745 -77 234 -152 463 -166 510 -15
47 -30 94 -35 105 -5 11 -14 38 -20 60 -6 22 -15 49 -20 60 -15 34 -70 219
-66 222 2 2 13 -25 25 -59 12 -35 28 -79 36 -98 27 -71 73 -206 86 -252 7 -27
16 -48 20 -48 4 0 10 -19 15 -42 l8 -43 4 45 c2 32 -1 47 -12 56 -20 14 -20
24 -1 24 8 0 15 -4 15 -10 0 -5 10 -11 23 -11 16 -1 18 -2 5 -6 -31 -8 -20
-25 11 -18 17 3 32 2 36 -4 4 -7 -4 -11 -19 -11 -28 0 -29 -1 -20 -25 6 -13 9
-14 16 -3 7 10 12 9 24 -7 12 -16 16 -17 23 -6 5 7 14 11 20 7 6 -4 9 -1 5 7
-3 8 2 17 10 20 10 4 13 1 10 -7 -3 -7 2 -18 10 -25 13 -11 18 -10 31 2 8 9
15 19 15 24 0 4 21 6 46 4 36 -2 45 0 39 9 -6 10 -1 11 21 6 37 -10 40 -14 26
-28 -7 -7 -12 -23 -12 -37 l0 -26 23 29 c15 19 28 26 36 21 12 -7 32 0 85 27
16 9 24 5 43 -16 l23 -27 12 25 c12 27 32 34 44 15 4 -8 9 -8 17 0 19 19 30
12 25 -14 -3 -14 -1 -25 3 -25 5 0 9 6 9 14 0 7 7 19 15 26 13 11 15 8 15 -18
0 -36 13 -48 30 -27 18 22 33 19 71 -15 19 -17 43 -30 54 -29 36 2 43 -1 48
-22 4 -16 12 -20 39 -18 72 5 88 1 88 -26 0 -18 5 -25 20 -25 11 0 20 5 20 10
0 11 30 13 54 4 8 -3 12 -12 9 -20 -4 -10 2 -14 21 -14 18 0 24 4 20 15 -4 8
-1 15 5 15 6 0 11 -4 11 -10 0 -5 14 -10 30 -10 20 0 30 5 30 15 0 8 5 15 10
15 6 0 10 -4 10 -10 0 -13 37 -13 45 0 4 6 16 10 28 8 19 -3 22 2 22 37 1 38
2 40 29 37 17 -2 25 1 21 7 -10 18 3 13 24 -8 13 -13 27 -18 42 -14 18 5 21 3
16 -10 -8 -21 28 -44 39 -25 5 7 3 8 -6 3 -10 -6 -11 -2 -6 19 3 14 2 26 -3
26 -6 0 -8 10 -6 22 3 12 -2 35 -10 51 -8 17 -15 38 -15 47 0 9 -3 20 -7 23
-3 4 -7 22 -9 39 -2 30 -2 31 6 8 9 -27 70 -225 120 -390 18 -58 36 -109 42
-115 12 -13 22 5 72 122 21 51 41 91 45 89 3 -2 7 6 7 17 1 12 19 60 41 107
22 47 45 98 52 114 6 16 14 26 17 24 4 -5 -35 -108 -57 -150 -10 -20 -12 -34
-3 -25 10 9 46 -41 39 -53 -12 -19 -37 -11 -30 9 3 11 1 22 -5 26 -5 3 -10 1
-10 -5 0 -6 -5 -8 -11 -4 -8 4 -8 0 0 -15 10 -17 9 -21 -4 -21 -8 0 -15 -4
-15 -9 0 -5 8 -7 19 -4 10 3 22 0 25 -6 10 -16 56 -14 56 3 0 12 39 30 48 21
2 -2 -1 -13 -8 -24 -6 -12 -9 -25 -6 -30 7 -10 65 -1 73 12 4 6 -2 8 -15 5
-28 -8 -28 1 2 30 30 28 36 28 36 -4 0 -21 4 -25 23 -22 12 2 21 9 19 17 -5
23 30 42 66 36 40 -7 42 8 2 25 -36 15 -38 27 -6 42 20 9 32 7 66 -11 33 -17
45 -19 56 -10 8 7 12 14 9 17 -8 8 16 32 32 32 9 0 13 -6 9 -15 -5 -15 9 -20
47 -17 10 1 32 -5 48 -14 17 -8 37 -13 46 -10 15 6 43 -15 43 -32 0 -13 29
-24 42 -16 5 3 16 -2 24 -12 14 -18 15 -18 30 4 16 21 52 33 39 13 -7 -12 34
-36 43 -25 4 4 1 9 -5 11 -7 3 -13 12 -13 22 0 12 -8 17 -27 16 -22 0 -27 4
-27 25 0 27 -2 26 94 22 40 -2 58 -22 20 -22 -11 0 -20 -4 -20 -10 0 -5 18
-10 40 -10 33 0 40 3 40 19 0 30 16 33 28 6 9 -19 19 -25 42 -25 20 0 30 5 30
16 0 8 5 12 10 9 6 -3 10 -1 10 4 0 19 17 12 23 -9 8 -30 37 -25 37 6 0 30 24
28 26 -2 2 -34 4 -37 17 -26 7 6 24 8 37 5 19 -5 22 -3 17 11 -6 14 -3 15 14
5 23 -12 69 -4 69 11 0 6 7 10 15 10 9 0 15 -6 14 -12 -3 -28 2 -48 12 -48 6
0 9 7 5 15 -3 9 0 15 8 15 8 0 16 -6 19 -12 3 -9 11 -7 28 8 13 12 32 24 42
27 28 10 20 -18 -10 -39 -16 -10 -23 -19 -15 -22 6 -2 12 -10 12 -18 0 -9 5
-12 10 -9 6 4 8 15 5 26 -7 22 14 26 34 7 11 -11 12 -9 6 9 -3 13 -3 28 2 35
5 9 9 3 13 -16 7 -38 30 -47 30 -12 0 33 26 44 48 22 15 -14 15 -18 3 -26 -10
-6 -19 -3 -28 8 -11 15 -12 13 -13 -16 0 -19 4 -31 10 -27 5 3 19 1 30 -5 17
-9 22 -7 30 16 6 15 8 36 4 48 -6 21 -6 21 9 1 13 -16 19 -17 40 -8 14 7 34 9
46 6 28 -7 27 11 -1 25 -13 6 -18 11 -11 11 7 1 10 8 7 16 -5 12 3 15 37 17
72 3 78 3 85 11 4 4 -1 16 -11 27 -18 20 -17 20 13 20 18 0 32 5 32 10 0 13
37 50 50 50 6 0 6 -9 0 -24 -10 -26 -5 -36 18 -36 11 0 12 3 3 14 -9 10 -9 20
0 40 7 14 16 26 21 26 5 0 7 -4 4 -8 -3 -5 2 -21 9 -36 8 -16 12 -32 9 -37 -3
-5 2 -6 10 -3 19 7 20 16 4 32 -11 11 -38 78 -38 97 0 23 23 -20 83 -155 36
-80 78 -174 94 -210 17 -36 43 -93 58 -128 30 -67 45 -74 56 -26 9 41 66 234
138 469 83 268 82 267 87 262 4 -3 -8 -50 -41 -162 -9 -27 -17 -59 -19 -70 -2
-11 -9 -32 -15 -47 -6 -16 -8 -28 -5 -28 4 0 1 -6 -5 -14 -7 -8 -11 -20 -10
-28 1 -7 -3 -26 -10 -42 -8 -20 -9 -32 -1 -40 7 -7 10 0 10 22 0 18 4 32 9 32
4 0 6 -12 3 -27 -5 -25 -4 -27 11 -14 15 12 17 11 17 -3 0 -21 46 -32 65 -16
13 11 14 10 9 -4 -3 -9 -1 -16 5 -16 6 0 11 5 11 10 0 16 57 12 64 -5 8 -22
33 -18 51 8 12 17 17 19 24 8 5 -7 13 -11 19 -7 6 3 13 2 17 -4 7 -12 25 -4
25 11 0 5 -9 9 -20 9 -11 0 -20 4 -20 9 0 4 18 4 39 -2 26 -7 37 -15 34 -24
-4 -9 0 -11 11 -7 9 3 16 10 16 15 0 5 7 9 15 9 11 0 14 -7 9 -25 -4 -15 -2
-25 5 -25 6 0 11 4 11 8 0 5 11 14 25 20 40 18 29 32 -25 32 -27 0 -50 5 -50
10 0 6 27 10 62 10 34 0 58 -3 55 -7 -11 -10 94 -42 141 -43 37 0 44 -4 53
-26 5 -15 7 -29 4 -32 -3 -3 -5 0 -5 7 0 7 -5 9 -11 5 -17 -10 38 -42 64 -37
12 3 35 22 51 44 33 44 46 49 46 18 0 -11 4 -17 10 -14 6 4 8 16 5 26 -6 19
-5 19 30 4 47 -19 71 -19 79 0 3 8 19 15 38 15 18 0 42 1 53 1 11 1 31 -2 44
-7 17 -5 22 -4 17 4 -9 14 4 15 36 3 23 -9 55 9 41 23 -10 10 -81 7 -88 -4 -3
-5 -13 -10 -21 -10 -12 0 -12 3 -2 21 10 15 20 19 41 15 22 -5 30 -2 34 12 3
14 13 18 41 17 20 -1 46 -5 56 -10 16 -7 18 -5 14 18 -4 23 -2 27 16 27 12 0
27 -5 33 -11 14 -14 44 15 63 61 7 19 17 40 22 46 5 6 6 18 3 26 -4 9 4 19 21
26 21 10 24 15 14 27 -15 18 -5 35 21 35 11 0 19 -7 20 -17 0 -14 2 -13 9 5
13 30 17 28 15 -8 -1 -16 2 -27 6 -24 12 7 4 55 -11 64 -16 10 -4 31 14 24 17
-6 31 12 16 21 -5 3 -10 17 -10 31 0 22 3 23 20 14 17 -9 20 -8 20 10 0 12 6
28 14 35 12 12 15 12 21 -3 5 -13 13 -4 32 38 13 30 25 63 26 72 1 9 5 14 9
12 4 -3 8 10 8 28 1 26 3 29 10 17 6 -11 6 -29 -1 -50z m20190 38 c13 4 13 3
2 -5 -11 -8 -10 -12 5 -21 11 -6 15 -10 9 -10 -5 0 -26 13 -45 30 -19 17 -24
24 -11 16 13 -9 31 -13 40 -10z m-26219 -42 c0 -5 -5 -3 -10 5 -5 8 -10 20
-10 25 0 6 5 3 10 -5 5 -8 10 -19 10 -25z m2241 -12 c-11 -21 -20 -35 -21 -31
0 12 33 78 38 74 2 -2 -6 -21 -17 -43z m31566 -20 c-3 -10 -5 -4 -5 12 0 17 2
24 5 18 2 -7 2 -21 0 -30z m-29336 -48 c-11 -33 -20 -53 -20 -44 -1 21 32 125
36 113 1 -5 -6 -36 -16 -69z m-671 30 c0 -5 -5 -3 -10 5 -5 8 -10 20 -10 25 0
6 5 3 10 -5 5 -8 10 -19 10 -25z m18 -40 c-3 -3 -9 2 -12 12 -6 14 -5 15 5 6
7 -7 10 -15 7 -18z m-1622 -22 c-18 -33 -21 -26 -6 13 6 15 13 24 16 21 3 -3
-1 -18 -10 -34z m19547 23 c4 -10 0 -12 -15 -8 -15 4 -17 7 -6 13 17 11 15 11
21 -5z m-17899 -52 c23 -50 15 -53 -13 -4 -12 22 -18 40 -13 40 4 0 16 -16 26
-36z m20135 5 c-16 -10 -23 -4 -14 10 3 6 11 8 17 5 6 -4 5 -9 -3 -15z m-3569
-24 c7 -9 8 -15 2 -15 -5 0 -12 7 -16 15 -3 8 -4 15 -2 15 2 0 9 -7 16 -15z
m-18248 -27 c-8 -8 -9 -4 -5 13 4 13 8 18 11 10 2 -7 -1 -18 -6 -23z m20228
12 c0 -5 -5 -10 -11 -10 -5 0 -7 5 -4 10 3 6 8 10 11 10 2 0 4 -4 4 -10z
m1080 -10 c0 -5 -5 -10 -11 -10 -5 0 -7 5 -4 10 3 6 8 10 11 10 2 0 4 -4 4
-10z m264 2 c3 -5 -1 -9 -9 -9 -8 0 -15 4 -15 9 0 4 4 8 9 8 6 0 12 -4 15 -8z
m-2184 -38 c0 -13 -4 -24 -9 -24 -10 0 -21 47 -13 54 10 11 22 -6 22 -30z
m-17651 -45 c18 -38 31 -72 29 -74 -3 -3 -13 2 -24 11 -10 8 -13 13 -6 9 18
-9 15 3 -17 68 -16 31 -26 57 -22 57 4 0 22 -32 40 -71z m19481 56 c0 -8 -4
-15 -10 -15 -5 0 -10 7 -10 15 0 8 5 15 10 15 6 0 10 -7 10 -15z m457 9 c-3
-3 -12 -4 -19 -1 -8 3 -5 6 6 6 11 1 17 -2 13 -5z m-21693 -26 c-4 -13 -7 -29
-7 -35 0 -7 -4 -13 -8 -13 -7 0 -23 -38 -21 -50 1 -3 -10 -24 -23 -46 -13 -23
-21 -44 -18 -48 3 -3 1 -6 -5 -6 -7 0 -12 2 -12 4 0 3 28 69 72 169 23 49 35
63 22 25z m25826 -18 c0 -5 -4 -10 -10 -10 -5 0 -10 5 -10 10 0 6 5 10 10 10
6 0 10 -4 10 -10z m-1400 -44 c0 -5 -7 -3 -15 4 -8 7 -15 20 -15 28 0 13 3 12
15 -4 8 -10 15 -23 15 -28z m1458 5 c0 -24 -3 -28 -19 -24 -18 5 -27 42 -13
56 13 13 31 -6 32 -32z m-26409 -16 c0 -5 -4 -3 -9 5 -5 8 -9 22 -9 30 0 16
17 -16 18 -35z m19165 29 c5 -14 4 -15 -9 -4 -17 14 -19 20 -6 20 5 0 12 -7
15 -16z m7281 -13 c-9 -16 -25 -3 -18 15 4 10 9 12 15 6 6 -6 7 -15 3 -21z
m-24220 9 c-3 -5 -1 -10 4 -10 6 0 11 -5 11 -11 0 -8 -5 -8 -15 1 -13 11 -12
30 1 30 3 0 2 -4 -1 -10z m17150 -1 c10 -15 -1 -23 -20 -15 -9 3 -13 10 -10
16 8 13 22 13 30 -1z m6195 1 c-8 -5 -22 -9 -30 -9 -10 0 -8 3 5 9 27 12 43
12 25 0z m3050 -10 c0 -5 -4 -10 -10 -10 -5 0 -10 5 -10 10 0 6 5 10 10 10 6
0 10 -4 10 -10z m40 0 c0 -5 -5 -10 -11 -10 -5 0 -7 5 -4 10 3 6 8 10 11 10 2
0 4 -4 4 -10z m-9130 -10 c0 -5 -5 -10 -11 -10 -5 0 -7 5 -4 10 3 6 8 10 11
10 2 0 4 -4 4 -10z m5680 0 c0 -5 -11 -10 -25 -10 -14 0 -25 5 -25 10 0 6 11
10 25 10 14 0 25 -4 25 -10z m1056 -68 c-10 -2 -25 3 -33 11 -14 13 -13 16 5
21 12 4 24 17 29 29 6 19 8 16 13 -18 4 -34 2 -41 -14 -43z m1214 68 c0 -5 -4
-10 -10 -10 -5 0 -10 5 -10 10 0 6 5 10 10 10 6 0 10 -4 10 -10z m-2510 -25
c0 -8 6 -15 13 -15 8 0 7 -3 -3 -9 -8 -6 -18 -7 -22 -5 -12 7 -10 44 2 44 6 0
10 -7 10 -15z m3994 -1 c3 -8 2 -12 -4 -9 -6 3 -10 10 -10 16 0 14 7 11 14 -7z
m-28950 -29 c5 -22 4 -26 -4 -15 -5 8 -10 24 -10 34 0 26 6 18 14 -19z m25236
25 c0 -5 -7 -10 -16 -10 -8 0 -12 5 -9 10 3 6 10 10 16 10 5 0 9 -4 9 -10z
m-83 -6 c-3 -3 -12 -4 -19 -1 -8 3 -5 6 6 6 11 1 17 -2 13 -5z m-18677 -20 c0
-8 -4 -12 -10 -9 -5 3 -10 10 -10 16 0 5 5 9 10 9 6 0 10 -7 10 -16z m418 -9
c-3 -3 -9 2 -12 12 -6 14 -5 15 5 6 7 -7 10 -15 7 -18z m21872 10 c0 -9 -6
-12 -16 -8 -13 5 -13 7 -2 14 17 11 18 11 18 -6z m-2720 -17 c0 -13 -23 -5
-28 10 -2 7 2 10 12 6 9 -3 16 -11 16 -16z m1853 -5 c-7 -3 -13 -14 -13 -24 0
-11 -4 -18 -9 -14 -5 3 -12 1 -16 -5 -12 -20 -26 -10 -15 11 20 36 44 57 55
46 7 -6 6 -11 -2 -14z m224 13 c-7 -20 -37 -31 -54 -20 -30 19 -24 29 17 29
22 0 39 -4 37 -9z m-21263 -13 c4 -9 2 -19 -3 -22 -11 -7 -9 -36 2 -47 14 -14
6 -34 -13 -34 -18 0 -20 6 -18 60 1 39 6 60 14 60 6 0 15 -8 18 -17z m18116 7
c0 -5 -5 -10 -11 -10 -5 0 -7 5 -4 10 3 6 8 10 11 10 2 0 4 -4 4 -10z m1222
-22 c-9 -9 -12 -7 -12 12 0 19 3 21 12 12 9 -9 9 -15 0 -24z m2858 22 c0 -5
-7 -10 -15 -10 -8 0 -15 5 -15 10 0 6 7 10 15 10 8 0 15 -4 15 -10z m173 3
c-7 -2 -19 -2 -25 0 -7 3 -2 5 12 5 14 0 19 -2 13 -5z m664 1 c-3 -3 -12 -4
-19 -1 -8 3 -5 6 6 6 11 1 17 -2 13 -5z m-27613 -12 c3 -5 -1 -9 -9 -9 -8 0
-12 4 -9 9 3 4 7 8 9 8 2 0 6 -4 9 -8z m4236 -2 c0 -5 -4 -10 -9 -10 -6 0 -13
5 -16 10 -3 6 1 10 9 10 9 0 16 -4 16 -10z m21638 -15 c-3 -3 -9 2 -12 12 -6
14 -5 15 5 6 7 -7 10 -15 7 -18z m132 15 c0 -5 -7 -7 -15 -4 -8 4 -15 8 -15
10 0 2 7 4 15 4 8 0 15 -4 15 -10z m-29730 -9 c0 -5 3 -17 6 -25 5 -12 2 -15
-10 -10 -9 4 -14 9 -12 12 3 3 1 11 -5 19 -9 10 -8 13 5 13 9 0 16 -4 16 -9z
m3687 3 c-3 -3 -12 -4 -19 -1 -8 3 -5 6 6 6 11 1 17 -2 13 -5z m26320 -17 c-6
-20 -27 -19 -27 2 0 14 5 19 15 14 9 -3 14 -10 12 -16z m549 -12 c-7 -29 -26
-34 -26 -7 0 18 20 45 28 37 2 -2 2 -16 -2 -30z m724 26 c0 -14 -30 -41 -43
-40 -9 0 -8 2 1 6 6 2 12 13 12 24 0 10 7 19 15 19 8 0 15 -4 15 -9z m-23836
-22 c-8 -14 -24 -10 -24 6 0 9 6 12 15 9 8 -4 12 -10 9 -15z m691 11 c3 -5 1
-10 -4 -10 -6 0 -11 5 -11 10 0 6 2 10 4 10 3 0 8 -4 11 -10z m21803 -15 c-3
-3 -9 2 -12 12 -6 14 -5 15 5 6 7 -7 10 -15 7 -18z m-22420 -15 c-2 -33 -14
-40 -20 -12 -3 14 9 40 20 42 1 0 1 -13 0 -30z m822 -12 c0 -17 -3 -28 -6 -25
-11 10 -13 67 -3 61 5 -3 9 -19 9 -36z m21170 32 c0 -5 -4 -10 -10 -10 -5 0
-10 5 -10 10 0 6 5 10 10 10 6 0 10 -4 10 -10z m1284 -2 c-7 -11 -34 -10 -34
1 0 6 9 9 19 8 11 0 17 -5 15 -9z m-27126 -10 c-3 -7 -20 -14 -39 -14 -27 -2
-28 -1 -6 3 15 2 25 9 22 14 -4 5 1 9 10 9 9 0 15 -6 13 -12z m1822 2 c0 -5
-5 -10 -11 -10 -5 0 -7 5 -4 10 3 6 8 10 11 10 2 0 4 -4 4 -10z m2283 3 c-7
-2 -19 -2 -25 0 -7 3 -2 5 12 5 14 0 19 -2 13 -5z m21424 0 c-4 -3 -2 -12 3
-18 8 -9 6 -15 -6 -19 -10 -4 -21 -1 -26 6 -4 7 -8 9 -8 5 0 -5 -5 -5 -11 -1
-7 4 -1 12 17 20 35 15 39 16 31 7z m48 -3 c3 -5 2 -10 -4 -10 -5 0 -13 5 -16
10 -3 6 -2 10 4 10 5 0 13 -4 16 -10z m1932 4 c-3 -3 -12 -4 -19 -1 -8 3 -5 6
6 6 11 1 17 -2 13 -5z m1386 -25 c4 -13 0 -19 -11 -19 -11 0 -17 8 -17 24 0
27 21 24 28 -5z m-32508 11 c-3 -5 -12 -10 -18 -10 -7 0 -6 4 3 10 19 12 23
12 15 0z m7998 -5 c-3 -9 -8 -14 -10 -11 -3 3 -2 9 2 15 9 16 15 13 8 -4z
m107 5 c0 -5 -7 -10 -16 -10 -8 0 -12 5 -9 10 3 6 10 10 16 10 5 0 9 -4 9 -10z
m22490 0 c0 -5 -4 -10 -10 -10 -5 0 -10 5 -10 10 0 6 5 10 10 10 6 0 10 -4 10
-10z m-896 -6 c26 -10 18 -24 -14 -24 -30 0 -41 14 -17 23 6 3 13 6 14 6 1 1
8 -2 17 -5z m296 -3 c0 -12 -29 -23 -41 -15 -18 10 -9 24 16 24 14 0 25 -4 25
-9z m725 -4 c-3 -7 -21 -17 -41 -23 l-35 -11 22 23 c24 25 62 33 54 11z m545
3 c0 -5 -4 -10 -9 -10 -6 0 -13 5 -16 10 -3 6 1 10 9 10 9 0 16 -4 16 -10z
m-23205 -10 c-3 -5 -13 -10 -21 -10 -8 0 -12 5 -9 10 3 6 13 10 21 10 8 0 12
-4 9 -10z m21182 4 c-3 -3 -12 -4 -19 -1 -8 3 -5 6 6 6 11 1 17 -2 13 -5z
m3303 2 c0 -3 -4 -8 -10 -11 -5 -3 -10 -1 -10 4 0 6 5 11 10 11 6 0 10 -2 10
-4z m530 0 c0 -3 -4 -8 -10 -11 -5 -3 -10 -1 -10 4 0 6 5 11 10 11 6 0 10 -2
10 -4z m-32940 -27 c0 -5 -4 -9 -10 -9 -5 0 -10 7 -10 16 0 8 5 12 10 9 6 -3
10 -10 10 -16z m5308 2 c3 -8 -1 -12 -9 -9 -7 2 -15 10 -17 17 -3 8 1 12 9 9
7 -2 15 -10 17 -17z m2532 -1 c0 -5 -7 -10 -16 -10 -14 0 -14 -2 -3 -16 11
-14 10 -19 -10 -36 -38 -30 -49 -6 -17 37 26 34 46 45 46 25z m21107 4 c-3 -3
-12 -4 -19 -1 -8 3 -5 6 6 6 11 1 17 -2 13 -5z m2206 -14 c5 -20 -3 -25 -33
-20 -25 3 -26 11 -6 26 26 19 33 18 39 -6z m874 -2 c-3 -8 -6 -5 -6 6 -1 11 2
17 5 13 3 -3 4 -12 1 -19z m67 -3 c4 -10 -1 -15 -14 -15 -13 0 -18 5 -14 15 4
8 10 15 14 15 4 0 10 -7 14 -15z m506 11 c0 -2 -7 -6 -15 -10 -8 -3 -15 -1
-15 4 0 6 7 10 15 10 8 0 15 -2 15 -4z m-27425 -16 c3 -5 1 -10 -4 -10 -6 0
-11 5 -11 10 0 6 2 10 4 10 3 0 8 -4 11 -10z m-4950 -10 c3 -5 2 -10 -4 -10
-5 0 -13 5 -16 10 -3 6 -2 10 4 10 5 0 13 -4 16 -10z m4105 -2 c0 -5 -26 -8
-57 -7 -33 0 -50 3 -40 7 24 10 97 9 97 0z m2837 -10 c-3 -8 -6 -5 -6 6 -1 11
2 17 5 13 3 -3 4 -12 1 -19z m-2973 -3 c-4 -8 -8 -15 -10 -15 -2 0 -4 7 -4 15
0 8 4 15 10 15 5 0 7 -7 4 -15z m26906 -11 c0 -8 -5 -12 -10 -9 -6 4 -8 11 -5
16 9 14 15 11 15 -7z m2070 1 c0 -8 -4 -15 -10 -15 -5 0 -7 7 -4 15 4 8 8 15
10 15 2 0 4 -7 4 -15z m-1030 -5 c0 -5 -4 -10 -10 -10 -5 0 -10 5 -10 10 0 6
5 10 10 10 6 0 10 -4 10 -10z m-27981 -44 c-3 -3 -11 5 -18 17 -13 21 -12 21
5 5 10 -10 16 -20 13 -22z m28891 24 c0 -5 -4 -10 -10 -10 -5 0 -10 5 -10 10
0 6 5 10 10 10 6 0 10 -4 10 -10z m-29796 -15 c-22 -17 -34 -19 -34 -6 0 5 8
12 18 14 32 9 36 7 16 -8z m816 5 c0 -5 -4 -10 -9 -10 -6 0 -13 5 -16 10 -3 6
1 10 9 10 9 0 16 -4 16 -10z m510 -3 c0 -9 -11 -12 -35 -9 -41 5 -37 22 6 22
17 0 29 -5 29 -13z m70 3 c0 -5 -15 -10 -32 -9 -31 1 -32 1 -8 9 35 11 40 11
40 0z m280 0 c0 -5 -7 -10 -15 -10 -8 0 -15 5 -15 10 0 6 7 10 15 10 8 0 15
-4 15 -10z m-2910 -10 c0 -5 -18 -10 -40 -10 -22 0 -40 5 -40 10 0 6 18 10 40
10 22 0 40 -4 40 -10z m295 0 c3 -5 -3 -10 -15 -10 -12 0 -18 5 -15 10 3 6 10
10 15 10 5 0 12 -4 15 -10z m850 0 c-3 -5 -12 -10 -18 -10 -7 0 -6 4 3 10 19
12 23 12 15 0z m30220 0 c3 -5 1 -10 -4 -10 -6 0 -11 5 -11 10 0 6 2 10 4 10
3 0 8 -4 11 -10z m-32130 -10 c-3 -5 -12 -10 -18 -10 -7 0 -6 4 3 10 19 12 23
12 15 0z m420 -8 c-3 -3 -11 0 -18 7 -9 10 -8 11 6 5 10 -3 15 -9 12 -12z
m1170 8 c-3 -5 -12 -10 -18 -10 -7 0 -6 4 3 10 19 12 23 12 15 0z m145 -10 c0
-14 -5 -18 -17 -13 -11 4 -13 8 -5 11 7 2 10 8 6 13 -3 5 0 9 5 9 6 0 11 -9
11 -20z m1760 10 c-13 -9 -13 -11 0 -20 13 -9 13 -12 -2 -24 -10 -7 -18 -21
-18 -30 0 -11 -6 -16 -17 -14 -10 2 -17 10 -15 17 2 8 -4 21 -13 31 -18 20 -8
35 13 18 12 -10 17 -9 30 10 8 12 20 22 26 22 6 0 4 -5 -4 -10z m28555 0 c3
-6 -1 -7 -9 -4 -18 7 -21 14 -7 14 6 0 13 -4 16 -10z m-28395 -10 c0 -5 -7 -7
-15 -4 -8 4 -15 8 -15 10 0 2 7 4 15 4 8 0 15 -4 15 -10z m2030 -20 c0 -5 -4
-10 -10 -10 -5 0 -10 5 -10 10 0 6 5 10 10 10 6 0 10 -4 10 -10z m26327 -32
c-3 -7 -5 -2 -5 12 0 14 2 19 5 13 2 -7 2 -19 0 -25z m-30957 8 c0 -3 -4 -8
-10 -11 -5 -3 -10 -1 -10 4 0 6 5 11 10 11 6 0 10 -2 10 -4z m30980 -96 c0 -5
-4 -10 -10 -10 -5 0 -10 5 -10 10 0 6 5 10 10 10 6 0 10 -4 10 -10z m-13683
-1566 c-3 -3 -12 -4 -19 -1 -8 3 -5 6 6 6 11 1 17 -2 13 -5z m-8183 -360 c-25
-60 -57 -136 -71 -169 -14 -33 -37 -83 -49 -112 -13 -28 -24 -55 -24 -58 0 -3
-11 -30 -24 -58 -61 -131 -93 -203 -94 -211 0 -5 -4 -12 -9 -15 -4 -3 -23 -35
-41 -71 -17 -36 -46 -92 -64 -125 -36 -67 -89 -199 -93 -230 -1 -11 -7 -31
-12 -45 -7 -16 -7 -27 -1 -31 6 -4 4 -12 -4 -20 -7 -8 -14 -23 -16 -34 -2 -11
-4 -27 -6 -35 -1 -8 -8 -25 -14 -37 -11 -19 -10 -22 3 -17 9 4 15 0 15 -9 0
-18 -20 -23 -71 -19 l-36 4 22 46 c12 26 33 70 45 97 12 28 53 116 91 197 38
82 69 150 69 153 0 2 27 62 61 132 33 71 67 142 74 158 255 558 287 626 292
621 2 -2 -17 -52 -43 -112z m8369 -1539 c39 -37 59 -79 44 -94 -16 -16 -27
-14 -21 4 4 9 0 15 -9 15 -9 0 -21 16 -28 35 -7 19 -17 35 -21 35 -4 0 -8 7
-8 15 0 21 11 19 43 -10z m-15269 -377 c-8 -19 -99 -91 -118 -94 -25 -4 -9 13
56 62 65 48 70 50 62 32z m15241 -153 c0 -5 -10 -11 -22 -13 -16 -2 -23 2 -23
13 0 11 7 15 23 13 12 -2 22 -7 22 -13z m-15415 -32 c-1 -9 -50 -47 -50 -39 0
5 41 46 47 46 2 0 3 -3 3 -7z m15483 -40 c8 -16 17 -41 21 -58 6 -28 5 -29 -9
-11 -8 11 -15 30 -15 42 0 13 -4 26 -10 29 -5 3 -10 10 -10 16 0 17 9 9 23
-18z m402 -118 c543 -63 1113 -278 1600 -604 134 -90 313 -226 399 -303 l49
-45 -76 -99 c-104 -137 -208 -271 -367 -474 -74 -95 -162 -207 -195 -250 -283
-366 -342 -439 -353 -440 -7 0 -34 19 -58 43 -97 90 -328 244 -491 325 -193
98 -444 183 -610 208 -45 7 -91 32 -63 34 8 1 27 3 43 4 15 1 27 -2 27 -6 0
-4 8 -8 18 -8 14 0 19 8 20 35 1 29 -2 35 -18 35 -21 0 -28 24 -10 35 13 8 0
37 -14 32 -7 -3 -20 1 -30 9 -16 12 -17 16 -5 30 12 15 12 16 -6 11 -18 -6
-20 -2 -22 41 -3 69 -4 103 -4 142 0 19 -5 37 -11 41 -8 5 -8 25 0 75 10 58 9
73 -5 102 -13 26 -14 39 -5 52 6 10 8 21 4 25 -8 8 -28 134 -41 270 -6 55 -15
122 -20 150 -9 48 -23 148 -56 395 -8 63 -18 126 -22 139 l-6 24 104 -7 c57
-4 158 -14 224 -21z m-13236 -141 c229 -33 397 -75 564 -140 376 -147 696
-395 899 -698 106 -159 170 -303 220 -494 28 -105 31 -136 35 -302 4 -170 3
-195 -21 -314 -42 -206 -110 -369 -218 -528 -103 -151 -234 -267 -352 -312
-55 -21 -52 -34 7 -34 49 -1 197 -33 278 -60 458 -159 845 -585 997 -1097 43
-146 76 -365 55 -365 -6 0 -10 24 -10 53 1 61 -23 198 -33 192 -4 -2 -12 11
-18 30 -7 24 -7 33 0 29 6 -4 9 -3 6 2 -2 5 -10 24 -17 42 -12 30 -14 31 -26
15 -11 -15 -11 -21 2 -35 15 -17 14 -18 -5 -18 -12 0 -21 6 -19 13 1 7 -7 11
-20 9 -13 -2 -23 1 -23 7 0 6 7 8 15 5 18 -7 19 9 4 37 -8 16 -17 19 -40 14
-28 -6 -30 -5 -27 17 3 21 0 23 -31 20 -19 -1 -37 1 -40 5 -21 29 -84 42 -97
21 -5 -8 2 -9 24 -5 33 7 42 -3 20 -21 -19 -14 -80 -3 -74 14 3 8 -1 14 -9 14
-7 0 -15 -8 -18 -17 -2 -11 -7 -3 -12 20 -8 40 -32 46 -27 7 2 -19 0 -21 -13
-10 -12 10 -13 16 -4 26 9 11 8 14 -2 15 -10 0 -11 2 -1 6 26 11 12 30 -20 25
-27 -4 -29 -6 -15 -17 13 -10 14 -15 4 -27 -16 -20 -45 -30 -52 -17 -4 5 4 13
17 18 13 6 17 10 11 10 -7 1 -13 10 -13 21 0 16 -7 20 -32 20 -29 -1 -31 -2
-14 -12 18 -10 17 -12 -10 -25 -16 -7 -21 -11 -11 -8 19 5 24 -10 6 -21 -15
-9 -28 6 -35 44 -6 32 -6 32 34 32 56 0 65 20 10 22 -46 1 -83 4 -110 6 -10 1
-18 10 -18 19 0 12 -3 14 -11 6 -13 -13 -4 -33 17 -33 23 0 16 -20 -8 -21 -19
-1 -20 -2 -4 -6 10 -3 23 0 29 6 6 6 14 11 19 11 15 0 28 -40 22 -65 -5 -19
-13 -25 -35 -25 -22 0 -30 -6 -35 -25 -6 -25 -24 -35 -24 -14 0 6 -10 23 -22
37 -12 15 -18 19 -15 10 5 -15 1 -18 -22 -18 -41 0 -66 -11 -50 -21 9 -5 10
-16 3 -39 l-9 -32 -25 20 c-13 11 -29 34 -35 53 -16 45 -30 47 -50 5 -15 -31
-21 -36 -49 -33 -28 2 -32 5 -28 25 3 16 0 22 -12 22 -10 0 -14 5 -11 10 4 6
1 17 -5 25 -10 12 -10 15 1 15 11 0 11 2 0 9 -12 8 -12 12 -2 25 10 12 11 16
1 16 -7 0 -10 8 -7 20 3 10 0 24 -7 29 -15 12 -41 -3 -32 -18 4 -6 0 -11 -11
-12 -13 -1 -11 -3 7 -9 24 -8 24 -8 3 -9 -16 -1 -23 -7 -23 -21 0 -22 -15 -27
-26 -9 -4 6 -20 8 -39 5 -19 -4 -36 -2 -40 4 -9 14 -55 13 -56 -2 0 -10 -2
-10 -6 0 -2 6 -13 12 -23 12 -10 0 -22 5 -25 10 -3 5 -1 10 4 10 6 0 11 7 11
16 0 9 5 12 12 8 8 -5 9 6 5 41 -4 26 -7 57 -8 69 -1 19 -2 18 -8 -4 -5 -17
-16 -26 -38 -31 -20 -4 -34 -2 -37 5 -2 6 -5 3 -5 -7 -1 -10 -5 -16 -10 -12
-5 3 -13 0 -16 -5 -5 -8 -13 -6 -26 6 -14 13 -28 15 -59 10 -47 -7 -57 13 -15
32 33 15 52 15 58 0 3 -8 6 -6 6 5 1 18 21 25 21 7 0 -5 5 -10 10 -10 6 0 10
9 10 20 0 11 4 20 9 20 6 0 8 -9 6 -20 -2 -11 0 -20 6 -20 5 0 9 7 9 15 0 21
30 31 40 14 5 -7 12 -10 16 -6 4 3 2 13 -5 20 -8 11 -44 14 -149 15 -75 0
-166 4 -201 8 -57 6 -64 5 -58 -9 5 -13 1 -17 -18 -17 -16 0 -25 6 -25 15 0
18 -13 19 -43 3 -12 -6 -29 -14 -37 -19 -8 -4 -14 -12 -13 -17 2 -6 -19 -14
-45 -17 -63 -9 -71 -12 -44 -20 12 -4 22 -14 22 -22 0 -10 -4 -11 -19 -3 -25
13 -58 13 -66 0 -4 -6 5 -8 22 -4 21 4 33 0 47 -15 23 -26 36 -27 36 -3 0 14
2 15 10 2 7 -11 12 -12 21 -3 9 9 6 13 -15 19 -32 8 -34 24 -3 24 12 0 28 -9
35 -20 10 -17 8 -21 -16 -35 -19 -11 -21 -14 -6 -10 15 4 29 -2 45 -20 25 -25
49 -33 49 -15 0 6 -7 10 -15 10 -8 0 -15 7 -15 16 0 10 -6 14 -15 11 -21 -9
-28 10 -8 21 24 14 63 -6 64 -32 0 -12 3 -16 5 -10 6 13 44 7 44 -7 0 -5 -11
-9 -24 -9 -24 0 -30 -20 -11 -37 4 -4 5 -3 1 4 -8 14 34 28 56 20 7 -3 1 -6
-13 -6 -16 -1 -26 -7 -26 -16 0 -12 21 -20 48 -17 3 1 5 -9 5 -21 -1 -15 5
-22 17 -21 9 1 16 -3 15 -10 -2 -6 7 -25 18 -41 61 -87 99 -196 107 -310 6
-82 -7 -49 -18 46 -8 68 -55 184 -101 246 -85 118 -229 197 -429 239 -81 17
-140 19 -597 19 -278 0 -504 3 -502 6 2 4 22 9 44 13 44 7 56 27 13 21 -16 -2
-41 -4 -56 -4 -16 -1 -26 -5 -23 -10 3 -5 0 -14 -7 -19 -8 -7 -12 -31 -11 -64
1 -29 2 -66 3 -82 2 -46 16 -20 18 32 1 26 2 53 2 60 1 6 4 12 9 12 4 0 6 -31
6 -70 -1 -38 -2 -143 -3 -232 -1 -166 -9 -210 -13 -75 -2 61 -6 77 -18 78 -11
0 -10 2 3 8 17 6 18 8 3 20 -13 11 -14 17 -5 28 7 7 9 16 6 20 -4 3 -2 12 4
19 12 15 5 44 -11 44 -5 0 -10 -14 -10 -32 0 -17 -3 -29 -6 -25 -3 3 -7 43 -8
88 -2 71 -5 83 -22 89 -10 4 -24 5 -30 3 -7 -2 -15 1 -19 6 -3 6 -10 9 -15 6
-5 -3 -12 0 -15 6 -4 6 2 13 14 16 29 7 26 23 -4 23 -14 0 -34 -9 -46 -21
l-21 -21 7 21 c6 18 2 21 -27 22 -63 2 -133 -2 -163 -8 -26 -5 -28 -4 -16 11
12 14 10 16 -13 16 -23 0 -26 3 -21 20 4 12 2 20 -5 20 -6 0 -8 4 -5 10 3 6
-1 10 -11 10 -13 0 -15 -6 -10 -35 5 -26 3 -40 -9 -51 -14 -14 -16 -14 -21 0
-3 9 -4 31 -2 48 3 19 0 38 -8 45 -11 11 -18 8 -39 -14 l-27 -28 7 33 c7 32 6
33 -14 22 -12 -6 -19 -15 -16 -21 4 -5 -8 -9 -24 -9 -32 0 -41 -16 -19 -38 13
-13 42 -17 34 -4 -2 4 4 8 14 8 10 0 21 -8 23 -18 4 -14 -1 -18 -19 -18 -13 0
-33 -9 -44 -20 -18 -18 -20 -18 -20 -3 0 14 -3 13 -16 -5 -12 -17 -25 -22 -59
-22 -24 0 -47 5 -50 10 -3 5 -23 10 -43 10 l-37 0 24 19 c13 10 32 16 42 14
20 -6 24 4 10 25 -5 9 -25 12 -57 10 -45 -3 -49 -5 -52 -31 -3 -21 -8 -27 -19
-23 -8 3 -20 6 -26 7 -7 0 -3 4 8 9 19 9 19 9 -2 16 -13 3 -20 10 -18 15 7 11
-39 41 -56 37 -7 -2 -14 4 -15 12 -4 42 -3 42 -19 27 -9 -9 -14 -30 -12 -53 2
-30 -2 -39 -17 -42 -11 -2 -16 0 -12 7 4 6 -6 19 -23 29 -18 9 -29 23 -26 30
3 7 0 10 -5 7 -6 -3 -10 4 -10 16 0 18 -3 20 -12 11 -8 -8 -8 -15 0 -25 7 -8
10 -16 7 -19 -10 -10 -64 5 -83 22 -22 21 -48 11 -39 -14 4 -9 2 -16 -3 -16
-5 0 -12 9 -15 20 -6 18 -24 26 -50 20 -17 -3 -38 -1 -80 7 -37 8 -40 11 -43
46 -3 30 -7 37 -20 35 -17 -3 -19 -8 -21 -60 -1 -20 -5 -26 -16 -22 -18 7 -21
-26 -4 -43 13 -13 -10 -55 -27 -49 -7 3 -14 -9 -18 -25 -6 -31 1 -59 15 -59 5
0 9 -4 9 -10 0 -5 -7 -7 -15 -4 -8 4 -15 12 -15 19 0 8 -4 16 -9 20 -6 3 -10
-11 -10 -32 0 -21 -4 -69 -9 -108 -5 -38 -7 -77 -5 -85 4 -13 3 -13 -5 0 -10
15 -22 3077 -15 3688 l4 282 1161 0 c998 0 1175 -2 1267 -16z m17773 -1179 c2
-702 7 -1196 12 -1198 5 -1 41 50 79 113 39 63 132 214 207 335 76 121 202
324 280 450 79 127 205 329 280 450 75 121 248 400 385 620 136 220 253 406
259 413 9 9 217 12 998 10 l987 -3 -51 -80 c-46 -72 -172 -272 -403 -640 -45
-71 -109 -173 -142 -225 -87 -138 -218 -346 -368 -585 -73 -115 -186 -295
-252 -400 -525 -834 -668 -1060 -728 -1157 l-42 -68 335 -502 c184 -277 337
-509 339 -515 3 -7 0 -13 -5 -13 -6 0 -14 9 -17 20 -3 11 -13 26 -20 34 -8 8
-30 39 -48 70 -19 31 -37 53 -40 49 -4 -3 -7 0 -7 8 0 9 -9 25 -20 37 -12 12
-18 22 -15 22 6 0 -29 43 -61 74 -11 12 -28 38 -38 59 -9 20 -21 37 -26 37 -5
0 -7 8 -4 18 5 14 4 15 -5 2 -8 -11 -7 -18 2 -25 15 -13 39 -66 33 -73 -3 -3
-9 4 -13 14 -3 10 -17 29 -30 41 -13 13 -20 28 -17 38 5 11 2 14 -11 9 -15 -6
-15 -4 -4 14 11 18 11 24 1 34 -11 11 -12 10 -7 -4 10 -25 -12 -23 -27 2 -7
11 -21 20 -31 20 -13 0 -17 5 -13 15 5 14 -6 20 -28 16 -4 -1 -14 3 -20 9 -7
5 -15 8 -17 5 -3 -2 -5 5 -6 16 -2 20 -1 20 23 5 20 -14 24 -14 24 -2 0 8 -14
21 -30 30 -17 8 -28 11 -25 6 3 -4 -4 -6 -15 -3 -11 3 -23 10 -27 16 -4 6 0 8
8 5 9 -4 15 0 15 11 0 13 -8 16 -35 12 -28 -3 -33 -1 -28 13 4 10 1 16 -8 16
-8 0 -15 5 -15 10 0 6 -9 10 -21 10 -15 0 -19 5 -15 15 7 19 -21 32 -36 17 -7
-7 -4 -17 11 -33 11 -12 18 -25 15 -28 -3 -3 -10 2 -15 11 -5 10 -16 15 -23
12 -10 -4 -16 3 -18 18 l-3 23 -20 -22 c-22 -26 -55 -30 -55 -7 0 10 -7 14
-22 12 -25 -4 -37 -28 -14 -28 24 0 19 -19 -7 -29 -28 -11 -118 4 -128 20 -10
17 -74 20 -95 4 -17 -13 -14 -14 31 -15 87 -1 125 -20 68 -35 -134 -33 -244
-16 -227 36 6 20 -10 27 -56 23 -19 -1 -40 2 -47 8 -7 5 -21 7 -33 3 -28 -9
-60 3 -54 20 3 7 -2 15 -13 18 -16 4 39 12 60 8 5 -1 6 3 2 9 -3 5 -24 10 -46
10 -38 0 -39 -1 -39 -37 l-1 -38 -14 25 c-13 23 -14 23 -16 5 -1 -11 -1 -23 0
-27 0 -5 -4 -8 -9 -8 -6 0 -10 12 -10 28 -1 24 -2 25 -14 10 -7 -10 -26 -18
-41 -18 -25 0 -26 -2 -14 -17 7 -10 1 -7 -14 6 -21 19 -30 22 -39 13 -9 -9 -9
-12 0 -12 7 0 12 -4 12 -10 0 -5 -9 -10 -19 -10 -11 0 -23 5 -26 10 -3 6 -25
10 -48 10 -31 0 -45 5 -55 20 -7 12 -8 20 -2 20 5 0 10 7 10 15 0 21 -76 21
-84 0 -3 -8 -1 -15 5 -15 6 0 3 -7 -6 -16 -12 -13 -19 -14 -28 -5 -6 6 -20 11
-30 11 -14 0 -18 -5 -14 -20 4 -17 2 -19 -21 -13 -15 4 -37 7 -49 6 -15 -1
-23 5 -24 16 -1 15 -2 15 -6 0 -3 -14 -22 -16 -138 -15 -112 1 -135 4 -136 16
-1 12 -2 11 -6 -1 -5 -21 -35 -29 -57 -17 -12 7 -22 5 -33 -4 -10 -8 -18 -9
-20 -3 -5 16 -74 5 -80 -12 -5 -12 -7 -12 -15 -1 -7 9 -8 6 -5 -10 10 -45 0
-52 -80 -52 l-75 0 6 45 c8 52 -3 58 -38 20 l-23 -25 -11 25 c-11 24 -52 36
-52 15 0 -5 7 -10 16 -10 8 0 12 -5 9 -10 -4 -6 -10 -8 -15 -5 -5 3 -11 1 -15
-5 -10 -16 -25 -2 -25 23 0 19 -2 19 -14 7 -9 -9 -12 -26 -9 -42 5 -24 10 -28
39 -28 18 0 36 -5 39 -10 7 -12 -34 -30 -52 -23 -8 3 -13 -4 -13 -18 0 -19 -2
-21 -10 -9 -5 8 -13 11 -17 6 -4 -4 1 -14 11 -22 11 -8 15 -14 8 -14 -6 0 -18
10 -26 22 l-16 22 0 -25 c0 -14 3 -29 8 -33 10 -10 10 -56 0 -56 -4 0 -8 8 -8
18 -1 15 -2 14 -12 -3 -6 -11 -12 -22 -14 -24 -2 -2 -16 6 -32 18 -35 24 -42
26 -42 8 0 -10 -18 -13 -65 -14 -48 0 -65 3 -65 13 0 7 -6 17 -14 21 -17 10
-26 71 -12 77 21 8 -17 24 -38 16 -16 -6 -21 -16 -21 -45 0 -52 -24 -60 -27
-8 -1 38 -1 38 -5 5 -4 -28 -8 -33 -24 -29 -10 3 -22 1 -25 -4 -12 -20 -24 -7
-24 26 0 24 5 35 15 35 9 0 15 -9 15 -21 0 -18 2 -19 15 -9 20 17 19 23 -6 38
-14 9 -25 10 -31 4 -6 -6 -16 -8 -23 -6 -7 3 -16 1 -20 -5 -3 -6 -11 -11 -16
-11 -6 0 -8 4 -4 9 10 17 -9 20 -29 5 -18 -13 -18 -14 12 -20 18 -4 32 -10 32
-14 0 -11 -30 -21 -42 -14 -6 4 -8 -1 -4 -14 4 -11 2 -23 -4 -27 -5 -3 -10 -1
-10 6 0 8 -7 6 -20 -6 -19 -17 -19 -16 -14 9 4 21 1 26 -17 26 -17 0 -19 -3
-10 -14 19 -22 4 -44 -27 -38 -22 4 -25 2 -14 -9 15 -16 16 -29 2 -29 -5 0
-10 5 -10 11 0 6 -8 21 -19 34 -13 17 -17 38 -16 72 1 26 1 36 -2 22 -2 -15
-13 -35 -24 -45 -10 -9 -19 -25 -19 -36 0 -12 -7 -18 -21 -18 -15 0 -19 5 -15
16 5 12 1 14 -17 9 -12 -4 -27 -13 -33 -21 -8 -10 -13 -11 -22 -2 -9 9 -12 8
-12 -6 0 -11 -6 -16 -17 -14 -10 2 -17 10 -16 16 2 7 -4 12 -12 12 -8 0 -15
-4 -15 -10 0 -5 -11 -10 -25 -10 -16 0 -25 6 -25 15 0 8 9 15 19 15 27 0 51
10 51 22 0 6 -9 8 -20 5 -11 -3 -23 -1 -26 4 -10 17 -33 9 -36 -13 -2 -14 -11
-24 -24 -26 -17 -2 -20 -9 -17 -47 2 -24 -1 -46 -7 -50 -6 -4 -11 7 -12 27 -1
18 -2 48 -3 66 -3 41 -15 55 -15 16 0 -38 -15 -62 -23 -40 -3 8 -6 853 -7
1876 l0 1860 850 0 850 0 2 -1195z m-12165 306 c-3 -13 1 -21 14 -24 12 -3 17
-11 13 -20 -3 -10 3 -20 16 -27 12 -6 19 -14 16 -17 -3 -4 -2 -11 2 -17 5 -6
15 -31 22 -54 11 -34 11 -50 2 -74 -10 -27 -9 -30 7 -25 25 6 40 -23 35 -69
-6 -45 4 -64 34 -67 12 -1 23 -10 26 -23 8 -30 -2 -54 -20 -47 -17 6 -19 -22
-3 -33 6 -3 8 -15 5 -27 -3 -11 -1 -29 5 -39 7 -14 6 -18 -6 -18 -21 0 -19
-37 3 -49 14 -8 15 -13 4 -31 -7 -11 -11 -24 -8 -28 2 -4 1 -36 -3 -70 -4 -35
-4 -65 0 -68 5 -3 5 -15 1 -27 -4 -12 -5 -68 -2 -125 3 -56 2 -102 -1 -102 -8
0 -3 -115 5 -129 4 -6 2 -11 -3 -11 -7 0 -7 -7 1 -21 11 -17 10 -23 -7 -37
-13 -11 -20 -29 -20 -54 0 -21 3 -38 7 -38 11 0 4 -84 -7 -92 -6 -5 -5 -11 4
-17 12 -8 12 -12 -2 -26 -20 -19 -22 -29 -5 -19 7 5 8 3 3 -5 -10 -18 -13
-181 -3 -181 5 0 6 -4 3 -10 -3 -5 -18 -10 -33 -10 -26 -1 -26 -1 -7 -13 22
-13 25 -24 12 -44 -4 -6 -5 -29 -1 -51 5 -30 2 -44 -12 -61 -10 -11 -24 -21
-31 -21 -11 0 -11 -4 -1 -21 10 -17 10 -23 1 -26 -7 -3 -13 -11 -13 -20 0 -17
-18 -36 -42 -46 -20 -7 -24 -27 -7 -27 7 0 6 -9 -4 -23 -14 -21 -13 -24 1 -35
15 -10 15 -11 -4 -11 -22 -1 -58 -33 -48 -43 11 -12 -17 -48 -36 -48 -24 0
-25 8 -5 31 15 15 14 17 -10 23 -14 4 -30 4 -34 1 -5 -2 -11 4 -14 15 -4 15
-14 20 -36 20 -21 0 -34 6 -38 18 -4 9 -9 19 -13 22 -3 3 -14 22 -23 43 -10
20 -25 37 -34 37 -13 0 -13 2 -2 16 12 15 11 19 -9 32 -12 8 -22 23 -22 33 0
10 -9 23 -21 29 -12 7 -18 18 -15 26 3 8 1 14 -4 14 -6 0 -10 9 -10 20 0 11
-7 20 -15 20 -9 0 -15 10 -16 23 -2 29 -4 38 -13 62 -4 11 -12 32 -18 48 -6
16 -18 27 -29 27 -13 0 -17 7 -17 28 1 44 -13 73 -41 83 -19 8 -22 12 -12 19
18 10 7 40 -14 40 -10 0 -15 7 -13 18 1 9 -6 29 -15 43 -10 14 -15 34 -11 43
3 9 2 16 -4 16 -5 0 -12 18 -16 40 -3 22 -10 40 -15 40 -10 0 -9 39 2 57 4 6
2 25 -4 42 -6 17 -9 37 -6 45 3 7 1 18 -5 24 -8 8 -7 13 5 18 25 9 21 40 -8
62 -17 13 -21 22 -13 25 29 10 -1 16 -35 6 -21 -5 -41 -8 -45 -5 -11 7 -7 55
9 91 7 17 12 33 11 37 -2 8 32 84 50 113 7 11 14 21 15 23 5 11 44 -22 39 -34
-3 -8 -4 -14 -3 -14 1 0 20 7 42 14 35 12 41 19 46 51 3 20 12 41 19 45 7 4
10 17 7 29 -3 12 -1 21 4 21 6 0 6 8 0 19 -8 15 -6 22 8 32 25 18 18 81 -8 72
-12 -4 -13 -3 -2 5 8 6 11 18 6 33 -6 20 -5 22 6 12 19 -18 32 -16 25 4 -4 9
-1 20 5 24 16 9 1 32 -17 25 -8 -3 -14 1 -14 10 0 8 11 19 24 24 39 14 76 101
55 127 -9 10 -8 13 5 13 8 0 18 11 22 26 4 16 12 23 20 20 11 -4 11 -2 2 13
-9 15 -8 22 5 36 9 9 17 22 18 28 0 7 4 2 10 -11 11 -28 29 -20 29 14 0 13 5
24 10 24 6 0 10 -6 10 -12 0 -7 7 0 15 16 8 15 15 35 15 42 0 16 17 19 22 3 4
-13 54 12 73 37 8 11 14 14 15 7 0 -7 7 -13 16 -13 11 0 14 -5 10 -17 -6 -15
-5 -15 13 1 15 14 79 43 100 46 2 0 1 -9 -2 -19z m1170 -208 c-16 -150 -15
-198 4 -270 23 -83 24 -263 2 -271 -9 -2 -13 10 -13 40 0 35 -6 51 -29 77 -27
30 -30 31 -41 14 -8 -13 -13 -14 -16 -5 -3 6 -12 12 -20 12 -11 0 -12 5 -6 18
5 9 7 23 5 30 -3 7 -2 34 2 58 5 38 9 43 21 33 11 -9 14 -8 14 2 1 10 5 9 14
-4 13 -16 15 -16 24 12 9 25 8 32 -6 40 -15 9 -15 11 1 28 20 23 23 65 5 58
-17 -6 -50 23 -66 58 -18 41 -15 50 13 43 19 -5 23 -3 19 9 -8 19 6 19 32 1
18 -13 20 -13 20 2 0 49 5 72 15 72 8 0 10 -18 6 -57z m-67 27 c0 -5 -4 -10
-10 -10 -5 0 -10 5 -10 10 0 6 5 10 10 10 6 0 10 -4 10 -10z m-969 -12 c0 -7
2 -23 3 -36 2 -13 -2 -21 -8 -19 -14 5 -20 67 -7 67 6 0 11 -6 12 -12z m-575
-154 c-19 -19 -21 -11 -4 16 7 11 14 16 16 10 2 -5 -4 -17 -12 -26z m621 -26
c-3 -8 -6 -5 -6 6 -1 11 2 17 5 13 3 -3 4 -12 1 -19z m-687 -108 c0 -5 -5 -10
-11 -10 -5 0 -7 5 -4 10 3 6 8 10 11 10 2 0 4 -4 4 -10z m1617 -222 c-3 -8 -6
-5 -6 6 -1 11 2 17 5 13 3 -3 4 -12 1 -19z m-1820 -1073 c42 -44 56 -86 33
-100 -5 -3 -10 -18 -10 -33 0 -21 -5 -28 -20 -29 -17 -2 -19 1 -9 19 10 18 8
24 -12 39 -13 10 -20 19 -16 19 4 0 -1 9 -12 21 -10 11 -21 37 -24 57 -8 67
10 69 70 7z m76 -132 c3 -5 8 -24 12 -43 l7 -35 -21 19 c-12 11 -19 26 -17 33
3 8 -2 13 -12 13 -15 0 -15 2 -2 10 18 12 27 12 33 3z m2314 -270 c-7 -6 -56
48 -57 62 0 6 14 -5 31 -23 17 -18 29 -36 26 -39z m10910 -435 c-3 -8 -6 -5
-6 6 -1 11 2 17 5 13 3 -3 4 -12 1 -19z m-317 -14 c-21 -25 -48 -36 -56 -22
-4 6 -3 8 2 5 5 -3 21 3 34 14 30 23 37 24 20 3z m794 -26 c-8 -28 -12 -33
-20 -25 -9 8 6 47 17 47 6 0 7 -10 3 -22z m-1069 2 c3 -5 1 -10 -4 -10 -6 0
-11 5 -11 10 0 6 2 10 4 10 3 0 8 -4 11 -10z m1647 -12 c-9 -9 -15 -9 -24 0
-9 9 -7 12 12 12 19 0 21 -3 12 -12z m-1987 -8 c3 -5 1 -10 -4 -10 -6 0 -11 5
-11 10 0 6 2 10 4 10 3 0 8 -4 11 -10z m1195 0 c0 -5 -4 -10 -10 -10 -5 0 -10
5 -10 10 0 6 5 10 10 10 6 0 10 -4 10 -10z m-1163 -22 c-3 -8 -6 -5 -6 6 -1
11 2 17 5 13 3 -3 4 -12 1 -19z m553 12 c0 -5 -2 -10 -4 -10 -3 0 -8 5 -11 10
-3 6 -1 10 4 10 6 0 11 -4 11 -10z m1483 3 c-7 -2 -19 -2 -25 0 -7 3 -2 5 12
5 14 0 19 -2 13 -5z m-556 -22 c8 -13 26 -21 50 -23 30 -2 38 -7 38 -23 0 -16
-8 -21 -43 -23 -26 -2 -45 -9 -49 -18 -3 -8 -12 -14 -21 -14 -13 0 -13 3 -4
12 10 10 8 16 -7 28 -19 14 -19 17 -4 48 18 37 24 39 40 13z m-1182 0 c3 -5 1
-12 -5 -16 -5 -3 -10 1 -10 9 0 18 6 21 15 7z m72 -43 c-3 -7 -5 -2 -5 12 0
14 2 19 5 13 2 -7 2 -19 0 -25z m-17063 7 c-4 -8 0 -23 7 -33 13 -15 12 -16
-3 -3 -12 9 -18 10 -18 2 0 -6 -7 -11 -15 -11 -20 0 -19 19 2 42 20 22 35 24
27 3z m18546 7 c0 -10 -22 -32 -32 -32 -4 0 -8 9 -8 20 0 13 7 20 20 20 11 0
20 -4 20 -8z m-21266 -27 c-22 -16 -44 -19 -44 -6 0 10 52 31 59 25 3 -3 -4
-11 -15 -19z m2856 0 c0 4 7 2 15 -5 25 -21 18 -40 -15 -40 -21 0 -30 5 -31
18 -1 16 -2 16 -6 0 -3 -13 -14 -18 -36 -18 -31 1 -31 1 -12 16 17 13 18 16 5
24 -12 8 -9 10 13 10 15 0 27 5 27 12 0 6 9 3 20 -7 11 -10 20 -15 20 -10z
m93 7 c10 -10 14 -21 11 -25 -10 -10 -44 12 -44 28 0 20 13 19 33 -3z m16497
6 c0 -7 3 -23 6 -35 5 -17 2 -23 -10 -23 -12 0 -16 9 -16 35 0 19 5 35 10 35
6 0 10 -6 10 -12z m270 -13 c10 -12 10 -15 -4 -15 -9 0 -16 7 -16 15 0 8 2 15
4 15 2 0 9 -7 16 -15z m-18932 -13 c2 -7 -6 -12 -17 -12 -21 0 -27 11 -14 24
9 9 26 2 31 -12z m-693 -12 c3 -5 1 -10 -4 -10 -6 0 -11 5 -11 10 0 6 2 10 4
10 3 0 8 -4 11 -10z m215 -11 c0 -5 -4 -9 -10 -9 -5 0 -10 7 -10 16 0 8 5 12
10 9 6 -3 10 -10 10 -16z m-263 -5 c2 -6 -9 -14 -24 -17 -33 -6 -38 -3 -29 18
7 18 47 17 53 -1z m118 7 c3 -6 -4 -15 -15 -21 -20 -11 -21 -10 -10 9 12 23
16 25 25 12z m175 -18 c0 -24 -4 -28 -30 -28 -16 0 -30 5 -29 10 0 6 9 9 21 7
13 -1 22 5 25 18 7 28 13 25 13 -7z m18445 17 c3 -5 1 -10 -4 -10 -6 0 -11 5
-11 10 0 6 2 10 4 10 3 0 8 -4 11 -10z m45 -44 c0 -39 -6 -31 -14 19 -5 29 -4
36 3 25 6 -8 11 -28 11 -44z m-60 4 c0 -13 7 -20 19 -20 12 0 20 -9 23 -24 6
-28 -1 -40 -22 -42 -8 -1 -27 -5 -42 -9 -18 -5 -28 -3 -28 4 0 6 -15 11 -32
11 -22 0 -29 -3 -20 -9 11 -7 11 -9 -1 -14 -22 -8 -57 3 -57 18 0 8 -3 20 -6
28 -4 12 3 14 40 10 58 -7 106 13 106 44 0 13 5 23 10 23 6 0 10 -9 10 -20z
m-17790 6 c0 -2 -7 -9 -15 -16 -12 -10 -15 -10 -15 4 0 9 7 16 15 16 8 0 15
-2 15 -4z m18425 -19 c36 -3 35 -4 -12 -5 -44 -2 -51 1 -46 14 3 9 8 11 12 6
3 -6 24 -12 46 -15z m-18682 -4 c9 -8 -25 -33 -36 -26 -4 3 -3 11 4 19 13 15
22 18 32 7z m-333 -18 c0 -17 -2 -18 -24 -9 -23 9 -20 24 4 24 11 0 20 -7 20
-15z m471 2 c-6 -8 -8 -17 -4 -20 3 -4 -1 -7 -10 -7 -22 0 -22 16 1 29 23 14
26 13 13 -2z m18219 9 c0 -3 -4 -8 -10 -11 -5 -3 -10 -1 -10 4 0 6 5 11 10 11
6 0 10 -2 10 -4z m-16110 -15 c0 -6 -4 -13 -10 -16 -5 -3 -10 1 -10 9 0 9 5
16 10 16 6 0 10 -4 10 -9z m16048 -9 c2 -7 -2 -10 -12 -6 -9 3 -16 1 -16 -5 0
-6 5 -11 10 -11 18 0 11 -28 -8 -32 -15 -4 -18 -1 -15 21 3 14 7 32 9 39 5 16
26 11 32 -6z m-18078 -2 c0 -5 -7 -10 -16 -10 -8 0 -12 5 -9 10 3 6 10 10 16
10 5 0 9 -4 9 -10z m150 0 c0 -5 -4 -10 -10 -10 -5 0 -10 5 -10 10 0 6 5 10
10 10 6 0 10 -4 10 -10z m17120 -12 c0 -16 -3 -19 -11 -11 -6 6 -8 16 -5 22
11 17 16 13 16 -11z m-16977 -9 c-6 -6 -9 -19 -6 -28 4 -13 2 -13 -7 2 -12 19
-6 37 13 37 8 0 8 -3 0 -11z m-893 -14 c0 -17 -2 -18 -25 -9 -13 5 -14 8 -3
15 19 13 28 11 28 -6z m80 5 c0 -5 -7 -10 -16 -10 -8 0 -12 5 -9 10 3 6 10 10
16 10 5 0 9 -4 9 -10z m18655 -10 c3 -5 1 -10 -4 -10 -6 0 -11 5 -11 10 0 6 2
10 4 10 3 0 8 -4 11 -10z m165 0 c0 -5 -5 -10 -11 -10 -5 0 -7 5 -4 10 3 6 8
10 11 10 2 0 4 -4 4 -10z m-16423 -6 c-3 -3 -12 -4 -19 -1 -8 3 -5 6 6 6 11 1
17 -2 13 -5z m183 2 c0 -3 -4 -8 -10 -11 -5 -3 -10 -1 -10 4 0 6 5 11 10 11 6
0 10 -2 10 -4z m439 -55 c31 -24 20 -42 -22 -34 -40 7 -42 9 -29 26 7 8 9 17
5 20 -15 15 24 5 46 -12z m14768 -28 c-3 -10 -5 -4 -5 12 0 17 2 24 5 18 2 -7
2 -21 0 -30z m-2935 -39 c4 -37 -6 -55 -16 -28 -9 24 -7 64 3 64 5 0 11 -16
13 -36z m-15575 -76 c-3 -8 -6 -5 -6 6 -1 11 2 17 5 13 3 -3 4 -12 1 -19z
m6204 -11 c-10 -9 -11 -8 -5 6 3 10 9 15 12 12 3 -3 0 -11 -7 -18z m-2191 -7
c0 -5 -4 -10 -9 -10 -6 0 -13 5 -16 10 -3 6 1 10 9 10 9 0 16 -4 16 -10z
m-4000 -31 c0 -11 -4 -17 -10 -14 -5 3 -10 13 -10 21 0 8 5 14 10 14 6 0 10
-9 10 -21z m20254 -21 c11 -19 32 -54 45 -77 14 -22 28 -41 33 -41 4 0 8 -6 8
-14 0 -8 4 -16 8 -18 10 -4 72 -96 72 -108 0 -4 3 -10 8 -12 7 -3 85 -119 118
-175 10 -18 22 -33 26 -33 4 0 8 -5 8 -12 0 -6 8 -20 18 -31 9 -11 11 -17 5
-13 -13 7 -164 228 -317 461 -14 22 -38 57 -52 79 -14 21 -20 36 -14 34 7 -2
22 -20 34 -40z m-15463 -11 c-10 -9 -11 -8 -5 6 3 10 9 15 12 12 3 -3 0 -11
-7 -18z m-4804 -69 c-2 -13 -4 -3 -4 22 0 25 2 35 4 23 2 -13 2 -33 0 -45z
m6126 -43 c-9 -19 -18 -33 -21 -31 -4 5 26 66 33 66 3 0 -3 -16 -12 -35z
m-6126 -17 c-3 -8 -6 -5 -6 6 -1 11 2 17 5 13 3 -3 4 -12 1 -19z m1620 -75
c-2 -21 -4 -6 -4 32 0 39 2 55 4 38 2 -18 2 -50 0 -70z m20787 72 c17 -25 16
-25 -3 -13 -22 13 -36 38 -22 38 5 0 16 -11 25 -25z m-16332 -92 c-28 -59 -56
-107 -50 -87 8 29 64 143 70 144 4 0 -5 -26 -20 -57z m-6075 15 c-3 -8 -6 -5
-6 6 -1 11 2 17 5 13 3 -3 4 -12 1 -19z m3274 -41 c-10 -9 -11 -8 -5 6 3 10 9
15 12 12 3 -3 0 -11 -7 -18z m19209 1 c0 -6 -6 -5 -15 2 -8 7 -15 14 -15 16 0
2 7 1 15 -2 8 -4 15 -11 15 -16z m-22483 -40 c-3 -8 -6 -5 -6 6 -1 11 2 17 5
13 3 -3 4 -12 1 -19z m3270 -10 c-3 -8 -6 -5 -6 6 -1 11 2 17 5 13 3 -3 4 -12
1 -19z m1630 -15 c-3 -10 -5 -4 -5 12 0 17 2 24 5 18 2 -7 2 -21 0 -30z
m11914 -79 c77 -108 122 -176 85 -130 -9 11 -27 32 -40 47 -14 15 -36 45 -49
66 -14 21 -34 44 -45 52 -12 8 -19 18 -16 23 3 4 2 8 -3 9 -4 0 -16 2 -26 4
-9 2 -24 -6 -32 -18 -9 -12 -15 -16 -15 -8 0 11 -3 11 -15 1 -8 -7 -15 -10
-15 -6 0 7 73 75 81 76 3 0 44 -52 90 -116z m-10815 9 c-8 -15 -15 -25 -16
-21 0 12 23 58 27 54 3 -2 -2 -17 -11 -33z m-1099 -20 c-3 -10 -5 -2 -5 17 0
19 2 27 5 18 2 -10 2 -26 0 -35z m11707 12 c-4 -8 -11 -15 -16 -15 -6 0 -5 6
2 15 7 8 14 15 16 15 2 0 1 -7 -2 -15z m-54 -49 c0 -2 -7 -6 -15 -10 -8 -3
-15 -1 -15 4 0 6 7 10 15 10 8 0 15 -2 15 -4z m-40 -25 c0 -5 -10 -11 -22 -14
-22 -6 -22 -6 -4 8 23 17 26 18 26 6z m-50 -36 c0 -2 -15 -12 -32 -20 l-33
-16 25 20 c24 20 40 26 40 16z m-10527 -20 c-3 -9 -8 -14 -10 -11 -3 3 -2 9 2
15 9 16 15 13 8 -4z m-2781 -47 c-7 -7 -12 -8 -12 -2 0 14 12 26 19 19 2 -3
-1 -11 -7 -17z m2760 0 c-7 -7 -12 -8 -12 -2 0 14 12 26 19 19 2 -3 -1 -11 -7
-17z m10433 -8 c-10 -11 -23 -20 -29 -20 -6 0 0 9 14 20 32 25 38 25 15 0z
m4320 -22 c16 -24 22 -38 14 -31 -15 12 -53 73 -46 73 2 0 17 -19 32 -42z
m-15778 -15 c-3 -10 -5 -2 -5 17 0 19 2 27 5 18 2 -10 2 -26 0 -35z m12073 17
c0 -5 -2 -10 -4 -10 -3 0 -8 5 -11 10 -3 6 -1 10 4 10 6 0 11 -4 11 -10z
m-660 -10 c0 -5 -5 -10 -11 -10 -5 0 -7 5 -4 10 3 6 8 10 11 10 2 0 4 -4 4
-10z m-10419 -34 c-14 -36 -22 -33 -9 5 6 16 12 28 14 26 3 -2 0 -16 -5 -31z
m-2781 20 c0 -2 -8 -10 -17 -17 -16 -13 -17 -12 -4 4 13 16 21 21 21 13z
m13931 -68 c31 -43 17 -34 -21 15 -19 23 -26 36 -17 28 10 -8 27 -27 38 -43z
m3703 -15 c20 -32 27 -46 14 -31 -26 30 -62 88 -55 88 2 0 21 -26 41 -57z
m-14893 -20 c-11 -21 -20 -35 -21 -31 0 12 33 78 38 74 2 -2 -6 -21 -17 -43z
m-2866 7 c-3 -5 -12 -10 -18 -10 -7 0 -6 4 3 10 19 12 23 12 15 0z m1892 -22
c-3 -8 -6 -5 -6 6 -1 11 2 17 5 13 3 -3 4 -12 1 -19z m941 -53 c-6 -14 -13
-23 -15 -21 -5 5 15 46 22 46 3 0 -1 -11 -7 -25z m15011 -37 c18 -27 30 -48
27 -48 -7 0 -66 86 -66 96 0 9 0 9 39 -48z m-15058 -61 c-10 -9 -11 -8 -5 6 3
10 9 15 12 12 3 -3 0 -11 -7 -18z m15133 -54 c20 -32 27 -46 14 -31 -26 30
-62 88 -55 88 2 0 21 -26 41 -57z m-3649 -33 c10 -11 16 -20 13 -20 -3 0 -13
9 -23 20 -10 11 -16 20 -13 20 3 0 13 -9 23 -20z m3734 -92 c18 -27 30 -48 27
-48 -7 0 -66 86 -66 96 0 9 0 9 39 -48z m-15308 -21 c-10 -9 -11 -8 -5 6 3 10
9 15 12 12 3 -3 0 -11 -7 -18z m15392 -106 c27 -46 14 -38 -18 12 -16 23 -22
37 -14 30 8 -6 22 -25 32 -42z m-3403 -342 c0 -6 -4 -7 -10 -4 -5 3 -10 11
-10 16 0 6 5 7 10 4 6 -3 10 -11 10 -16z m11 -60 c-12 -12 -25 -18 -29 -14 -4
4 1 12 11 19 9 7 17 19 17 27 0 10 3 10 12 1 9 -9 7 -17 -11 -33z m6229 -764
c10 -13 9 -15 -11 -14 -13 0 -18 3 -11 6 6 2 10 9 6 14 -9 15 2 10 16 -6z
m-9662 -217 c16 -14 16 -45 -1 -51 -7 -3 -34 -3 -60 0 -51 6 -62 26 -31 58 17
17 66 13 92 -7z"/>
<path d="M20830 15711 c0 -5 5 -13 10 -16 6 -3 10 -2 10 4 0 5 -4 13 -10 16
-5 3 -10 2 -10 -4z"/>
<path d="M20790 15651 c0 -5 5 -13 10 -16 6 -3 10 -2 10 4 0 5 -4 13 -10 16
-5 3 -10 2 -10 -4z"/>
<path d="M20700 14889 c-13 -24 -4 -41 10 -19 6 8 10 12 11 8 1 -5 3 -12 4
-18 1 -5 3 -14 4 -20 0 -5 8 -7 16 -3 14 5 14 7 0 23 -8 9 -13 25 -9 34 9 24
-23 20 -36 -5z"/>
<path d="M20775 14810 c-3 -6 1 -7 9 -4 18 7 21 14 7 14 -6 0 -13 -4 -16 -10z"/>
<path d="M28840 14670 c0 -5 10 -10 23 -10 18 0 19 2 7 10 -19 13 -30 13 -30
0z"/>
<path d="M29760 14620 c0 -5 5 -10 10 -10 6 0 10 5 10 10 0 6 -4 10 -10 10 -5
0 -10 -4 -10 -10z"/>
<path d="M29486 14611 c-4 -5 -2 -12 3 -15 5 -4 12 -2 15 3 4 5 2 12 -3 15 -5
4 -12 2 -15 -3z"/>
<path d="M29680 14590 c0 -11 5 -20 10 -20 6 0 10 9 10 20 0 11 -4 20 -10 20
-5 0 -10 -9 -10 -20z"/>
<path d="M29473 14575 c0 -8 4 -12 9 -9 5 3 6 10 3 15 -9 13 -12 11 -12 -6z"/>
<path d="M33306 14578 c3 -5 10 -6 15 -3 13 9 11 12 -6 12 -8 0 -12 -4 -9 -9z"/>
<path d="M33408 14538 c5 -5 16 -8 23 -6 8 3 3 7 -10 11 -17 4 -21 3 -13 -5z"/>
<path d="M33466 14514 c-3 -9 -4 -19 -1 -22 3 -3 5 1 5 9 0 11 2 11 10 -1 9
-13 10 -13 10 0 0 13 1 13 11 0 7 -10 9 -11 7 -2 -2 8 -7 13 -12 12 -5 -1 -12
4 -16 10 -5 8 -9 6 -14 -6z"/>
<path d="M34086 14519 c2 -4 -2 -9 -8 -12 -7 -2 -10 -7 -7 -11 3 -3 13 2 22
12 14 15 15 19 2 19 -8 0 -12 -4 -9 -8z"/>
<path d="M33530 14506 c0 -8 51 -13 56 -5 3 5 -9 9 -25 9 -17 0 -31 -2 -31 -4z"/>
<path d="M33240 14488 c0 -16 19 -38 33 -38 4 0 7 10 5 22 -3 25 -38 39 -38
16z"/>
<path d="M33195 14480 c3 -5 13 -10 21 -10 8 0 14 5 14 10 0 6 -9 10 -21 10
-11 0 -17 -4 -14 -10z"/>
<path d="M33297 14473 c-11 -10 -8 -43 3 -43 6 0 10 11 10 25 0 26 -2 29 -13
18z"/>
<path d="M33516 14462 c-3 -6 -1 -14 5 -17 15 -10 25 3 12 16 -7 7 -13 7 -17
1z"/>
<path d="M33425 14440 c-3 -5 -1 -10 4 -10 6 0 11 5 11 10 0 6 -2 10 -4 10 -3
0 -8 -4 -11 -10z"/>
<path d="M33366 14400 c7 -7 19 -7 35 -1 23 9 22 10 -10 10 -24 1 -32 -2 -25
-9z"/>
<path d="M30952 14554 c-10 -12 -10 -14 2 -14 17 0 30 16 19 23 -5 3 -14 -1
-21 -9z"/>
<path d="M30640 14539 c0 -6 -9 -8 -22 -3 -21 6 -21 6 -5 -10 15 -16 19 -16
32 -2 17 17 19 26 5 26 -5 0 -10 -5 -10 -11z"/>
<path d="M30880 14524 c0 -8 5 -12 10 -9 6 3 10 10 10 16 0 5 -4 9 -10 9 -5 0
-10 -7 -10 -16z"/>
<path d="M30330 14500 c0 -5 9 -10 21 -10 11 0 17 5 14 10 -3 6 -13 10 -21 10
-8 0 -14 -4 -14 -10z"/>
<path d="M30705 14500 c-3 -5 1 -10 10 -10 9 0 13 5 10 10 -3 6 -8 10 -10 10
-2 0 -7 -4 -10 -10z"/>
<path d="M30770 14480 c0 -5 7 -7 15 -4 8 4 15 8 15 10 0 2 -7 4 -15 4 -8 0
-15 -4 -15 -10z"/>
<path d="M30320 14464 c0 -8 5 -12 10 -9 6 3 10 10 10 16 0 5 -4 9 -10 9 -5 0
-10 -7 -10 -16z"/>
<path d="M30735 14440 c-3 -5 -1 -10 4 -10 6 0 11 5 11 10 0 6 -2 10 -4 10 -3
0 -8 -4 -11 -10z"/>
<path d="M35200 14686 c0 -2 8 -10 18 -17 15 -13 16 -12 3 4 -13 16 -21 21
-21 13z"/>
<path d="M35242 14574 c-7 -8 -8 -14 -3 -14 10 0 25 19 20 25 -2 1 -10 -3 -17
-11z"/>
<path d="M35270 14525 c-7 -9 -8 -15 -2 -15 5 0 12 7 16 15 3 8 4 15 2 15 -2
0 -9 -7 -16 -15z"/>
<path d="M35255 14460 c-19 -8 -19 -9 2 -9 12 -1 25 4 28 9 7 12 -2 12 -30 0z"/>
<path d="M32626 14632 c-3 -5 1 -9 9 -9 8 0 12 4 9 9 -3 4 -7 8 -9 8 -2 0 -6
-4 -9 -8z"/>
<path d="M32086 14592 c-3 -5 1 -9 9 -9 8 0 15 4 15 9 0 4 -4 8 -9 8 -6 0 -12
-4 -15 -8z"/>
<path d="M32025 14580 c-18 -8 -17 -9 8 -9 15 -1 27 4 27 9 0 12 -8 12 -35 0z"/>
<path d="M32025 14520 c3 -5 8 -10 11 -10 2 0 4 5 4 10 0 6 -5 10 -11 10 -5 0
-7 -4 -4 -10z"/>
<path d="M32415 14519 c-4 -6 -5 -12 -2 -15 2 -3 7 2 10 11 7 17 1 20 -8 4z"/>
<path d="M34655 14460 c-3 -5 -2 -10 4 -10 5 0 13 5 16 10 3 6 2 10 -4 10 -5
0 -13 -4 -16 -10z"/>
<path d="M36078 14539 c9 -11 20 -19 24 -19 5 0 8 8 8 19 0 13 -7 19 -24 19
-22 0 -23 -2 -8 -19z"/>
<path d="M36130 14546 c0 -7 7 -27 16 -42 l16 -29 -6 34 c-3 18 -6 37 -6 42 0
5 -4 9 -10 9 -5 0 -10 -6 -10 -14z"/>
<path d="M36160 14547 c0 -18 56 -37 116 -39 l49 -1 -45 -6 -45 -7 42 -13 c25
-8 43 -21 46 -32 3 -11 10 -19 16 -19 14 0 14 43 0 57 -7 7 -3 9 15 6 36 -7
32 4 -6 20 l-33 14 49 0 c27 1 51 5 55 11 3 5 13 11 21 14 29 9 -146 6 -184
-3 -27 -7 -42 -7 -49 0 -15 15 -47 14 -47 -2z m135 -17 c-27 -12 -35 -12 -35
0 0 6 12 10 28 9 24 0 25 -1 7 -9z"/>
<path d="M36425 14530 c-4 -6 -16 -10 -28 -10 -16 0 -18 -3 -9 -12 8 -8 15 -8
27 2 13 11 15 9 15 -10 0 -23 7 -26 10 -5 1 6 6 15 11 21 6 8 4 14 -5 17 -9 4
-18 2 -21 -3z"/>
<path d="M35947 14510 c3 -11 9 -17 15 -14 5 3 4 12 -3 20 -16 19 -18 18 -12
-6z"/>
<path d="M36200 14459 c0 -24 23 -21 28 4 2 10 -3 17 -12 17 -10 0 -16 -9 -16
-21z"/>
<path d="M35852 14450 c-17 -28 -15 -32 8 -18 11 7 20 18 20 25 0 19 -14 16
-28 -7z"/>
<path d="M36290 14430 c0 -5 7 -10 15 -10 8 0 15 5 15 10 0 6 -7 10 -15 10 -8
0 -15 -4 -15 -10z"/>
<path d="M24494 12528 c-4 -6 -2 -14 4 -16 9 -3 9 -9 1 -24 -8 -15 -8 -19 0
-14 6 4 11 2 11 -3 0 -6 5 -11 10 -11 6 0 10 11 10 24 0 47 -19 71 -36 44z"/>
<path d="M24466 12455 c4 -8 8 -15 10 -15 2 0 4 7 4 15 0 8 -4 15 -10 15 -5 0
-7 -7 -4 -15z"/>
<path d="M24510 12255 c0 -8 5 -15 10 -15 6 0 10 7 10 15 0 8 -4 15 -10 15 -5
0 -10 -7 -10 -15z"/>
<path d="M23678 12078 c5 -5 16 -8 23 -6 8 3 3 7 -10 11 -17 4 -21 3 -13 -5z"/>
<path d="M23600 12050 c0 -5 5 -10 10 -10 6 0 10 5 10 10 0 6 -4 10 -10 10 -5
0 -10 -4 -10 -10z"/>
<path d="M24203 12033 c20 -2 37 -8 37 -14 0 -5 8 -9 18 -9 15 1 15 2 -2 15
-11 8 -36 14 -55 13 l-36 -1 38 -4z"/>
<path d="M23837 11999 c7 -7 15 -10 18 -7 3 3 -2 9 -12 12 -14 6 -15 5 -6 -5z"/>
<path d="M23906 11979 c-16 -16 -17 -19 -4 -19 9 0 19 7 22 16 9 24 4 24 -18
3z"/>
<path d="M24120 11985 c-10 -12 -7 -14 18 -12 19 1 28 6 25 15 -7 16 -28 15
-43 -3z"/>
<path d="M23950 11955 c0 -5 5 -17 10 -25 5 -8 10 -10 10 -5 0 6 -5 17 -10 25
-5 8 -10 11 -10 5z"/>
<path d="M26330 12145 c0 -23 32 -35 53 -20 18 13 23 35 8 35 -5 0 -12 -8 -16
-17 -6 -17 -7 -17 -19 0 -16 21 -26 22 -26 2z"/>
<path d="M25775 12140 c-3 -5 1 -10 10 -10 9 0 13 5 10 10 -3 6 -8 10 -10 10
-2 0 -7 -4 -10 -10z"/>
<path d="M30891 12135 c1 -19 18 -51 18 -35 0 8 -4 22 -9 30 -5 8 -9 11 -9 5z"/>
<path d="M26415 12090 c-4 -6 -11 -7 -17 -4 -6 4 -8 3 -5 -3 3 -5 20 -8 36 -5
17 2 28 8 25 13 -7 12 -31 11 -39 -1z"/>
<path d="M30910 12064 c-12 -31 -12 -37 -1 -30 5 4 11 0 13 -6 3 -7 4 4 4 24
-1 45 -3 46 -16 12z"/>
<path d="M30885 12070 c-3 -5 -1 -10 4 -10 6 0 11 5 11 10 0 6 -2 10 -4 10 -3
0 -8 -4 -11 -10z"/>
<path d="M29910 12051 c0 -18 18 -21 30 -6 10 13 9 15 -9 15 -11 0 -21 -4 -21
-9z"/>
<path d="M25510 12030 c0 -5 4 -10 9 -10 6 0 13 5 16 10 3 6 -1 10 -9 10 -9 0
-16 -4 -16 -10z"/>
<path d="M29790 12030 c0 -5 9 -10 21 -10 11 0 17 5 14 10 -3 6 -13 10 -21 10
-8 0 -14 -4 -14 -10z"/>
<path d="M30805 12019 c-10 -15 3 -25 16 -12 7 7 7 13 1 17 -6 3 -14 1 -17 -5z"/>
<path d="M25160 12011 c0 -12 25 -21 57 -21 21 0 24 2 13 15 -13 16 -70 21
-70 6z"/>
<path d="M29413 12013 c-10 -3 -9 -12 3 -35 8 -16 18 -28 21 -25 2 3 0 15 -7
26 -6 12 -8 26 -5 31 7 11 6 11 -12 3z"/>
<path d="M30070 12000 c-13 -9 -13 -10 0 -10 8 0 22 5 30 10 13 9 13 10 0 10
-8 0 -22 -5 -30 -10z"/>
<path d="M30380 11993 c0 -4 5 -15 10 -23 8 -13 10 -13 10 2 0 9 -4 20 -10 23
-5 3 -10 3 -10 -2z"/>
<path d="M30644 11965 c1 -36 12 -41 29 -13 12 19 3 48 -16 48 -9 0 -13 -12
-13 -35z"/>
<path d="M25160 11976 c0 -9 5 -16 10 -16 6 0 10 4 10 9 0 6 -4 13 -10 16 -5
3 -10 -1 -10 -9z"/>
<path d="M29628 11955 c-3 -24 0 -35 9 -35 8 0 13 13 13 35 0 19 -4 35 -9 35
-5 0 -11 -16 -13 -35z"/>
<path d="M29995 11979 c-4 -6 -5 -12 -2 -15 2 -3 7 2 10 11 7 17 1 20 -8 4z"/>
<path d="M30333 11979 c23 -13 22 -29 -2 -29 -23 0 -35 -26 -16 -34 7 -2 16 2
19 10 3 8 12 14 19 14 10 0 13 8 9 25 -3 17 -11 25 -26 25 -19 -1 -19 -2 -3
-11z"/>
<path d="M25310 11965 c0 -8 4 -15 8 -15 5 0 9 7 9 15 0 8 -4 15 -9 15 -4 0
-8 -7 -8 -15z"/>
<path d="M29545 11970 c3 -5 11 -10 16 -10 6 0 7 5 4 10 -3 6 -11 10 -16 10
-6 0 -7 -4 -4 -10z"/>
<path d="M30756 11965 c21 -16 44 -19 44 -6 0 5 -10 11 -22 15 -37 9 -43 7
-22 -9z"/>
<path d="M25258 11963 c7 -3 16 -2 19 1 4 3 -2 6 -13 5 -11 0 -14 -3 -6 -6z"/>
<path d="M29515 11950 c-3 -5 -1 -10 4 -10 6 0 11 5 11 10 0 6 -2 10 -4 10 -3
0 -8 -4 -11 -10z"/>
<path d="M29441 11924 c0 -11 3 -14 6 -6 3 7 2 16 -1 19 -3 4 -6 -2 -5 -13z"/>
<path d="M29460 11891 c0 -11 4 -22 9 -25 5 -3 9 6 9 19 0 14 -4 25 -9 25 -5
0 -9 -9 -9 -19z"/>
<path d="M29480 11843 c0 -7 5 -15 10 -18 6 -3 11 -16 11 -28 1 -17 2 -18 6
-5 2 10 -3 28 -11 40 -9 12 -16 17 -16 11z"/>
<path d="M10847 11985 c-4 -9 -1 -18 9 -22 22 -8 30 5 12 23 -14 14 -16 14
-21 -1z"/>
<path d="M10883 11955 c-13 -14 -7 -25 14 -25 14 0 18 26 6 33 -5 3 -13 -1
-20 -8z"/>
<path d="M10888 11913 c7 -3 16 -2 19 1 4 3 -2 6 -13 5 -11 0 -14 -3 -6 -6z"/>
<path d="M10780 11903 c0 -14 19 -38 25 -32 8 8 -5 39 -16 39 -5 0 -9 -3 -9
-7z"/>
<path d="M10837 11883 c-12 -12 -7 -33 8 -33 17 0 19 9 7 28 -5 7 -11 9 -15 5z"/>
<path d="M11430 11851 c0 -6 4 -12 8 -15 5 -3 9 1 9 9 0 8 -4 15 -9 15 -4 0
-8 -4 -8 -9z"/>
<path d="M10761 11846 c2 -2 14 -9 27 -15 18 -10 22 -9 22 4 0 10 -9 15 -27
15 -14 0 -24 -2 -22 -4z"/>
<path d="M10923 11843 c-18 -7 -16 -23 2 -23 8 0 15 7 15 15 0 8 -1 15 -2 14
-2 0 -9 -3 -15 -6z"/>
<path d="M11015 11840 c3 -5 10 -10 16 -10 5 0 9 5 9 10 0 6 -7 10 -16 10 -8
0 -12 -4 -9 -10z"/>
<path d="M11490 11839 c0 -5 5 -7 10 -4 6 3 10 8 10 11 0 2 -4 4 -10 4 -5 0
-10 -5 -10 -11z"/>
<path d="M11848 11843 c7 -3 16 -2 19 1 4 3 -2 6 -13 5 -11 0 -14 -3 -6 -6z"/>
<path d="M11350 11825 c7 -8 17 -12 22 -9 6 4 5 10 -3 15 -22 14 -33 10 -19
-6z"/>
<path d="M11910 11832 c0 -14 11 -21 26 -15 21 8 17 23 -6 23 -11 0 -20 -4
-20 -8z"/>
<path d="M12150 11830 c20 -13 40 -13 40 0 0 6 -12 10 -27 10 -22 0 -25 -2
-13 -10z"/>
<path d="M10861 11814 c0 -11 3 -14 6 -6 3 7 2 16 -1 19 -3 4 -6 -2 -5 -13z"/>
<path d="M11648 11823 c7 -3 16 -2 19 1 4 3 -2 6 -13 5 -11 0 -14 -3 -6 -6z"/>
<path d="M13046 11822 c-2 -4 -1 -14 5 -22 7 -12 9 -10 9 8 0 23 -5 28 -14 14z"/>
<path d="M10235 11750 c3 -5 8 -10 11 -10 2 0 4 5 4 10 0 6 -5 10 -11 10 -5 0
-7 -4 -4 -10z"/>
<path d="M10090 11701 c0 -14 -6 -17 -27 -15 -18 2 -21 1 -8 -3 l20 -6 -20 -8
c-19 -7 -19 -8 3 -8 14 -1 22 -7 22 -18 1 -16 2 -16 15 1 17 22 20 76 5 76 -5
0 -10 -8 -10 -19z"/>
<path d="M33202 11980 c0 -22 3 -40 7 -40 11 1 42 50 31 50 -5 0 -10 7 -10 15
0 8 -6 15 -14 15 -11 0 -15 -12 -14 -40z"/>
<path d="M33360 11990 c0 -5 9 -10 20 -10 11 0 20 5 20 10 0 6 -9 10 -20 10
-11 0 -20 -4 -20 -10z"/>
<path d="M32915 11960 c-8 -13 3 -30 20 -30 11 0 25 20 25 36 0 9 -39 4 -45
-6z"/>
<path d="M33142 11948 c-6 -6 -12 -19 -12 -27 0 -13 2 -13 16 1 9 9 15 21 13
27 -3 9 -8 8 -17 -1z"/>
<path d="M32487 11936 c-4 -10 -5 -21 -2 -24 9 -9 17 6 13 25 -3 17 -4 17 -11
-1z"/>
<path d="M35625 11930 c3 -5 15 -10 25 -10 10 0 22 5 25 10 4 6 -7 10 -25 10
-18 0 -29 -4 -25 -10z"/>
<path d="M32980 11921 c0 -5 9 -11 20 -14 24 -6 27 8 4 17 -21 8 -24 8 -24 -3z"/>
<path d="M33565 11920 c-3 -5 -1 -10 4 -10 6 0 11 5 11 10 0 6 -2 10 -4 10 -3
0 -8 -4 -11 -10z"/>
<path d="M35517 11902 c1 -8 3 -16 3 -18 0 -2 9 -4 20 -4 11 0 20 5 20 10 0 6
-9 10 -19 10 -11 0 -21 3 -24 8 -2 4 -2 1 0 -6z"/>
<path d="M35675 11909 c-10 -15 3 -25 16 -12 7 7 7 13 1 17 -6 3 -14 1 -17 -5z"/>
<path d="M32535 11901 c-12 -20 5 -30 38 -24 42 8 59 23 25 23 -15 0 -33 3
-41 6 -8 3 -18 1 -22 -5z"/>
<path d="M35877 11903 c-12 -11 -8 -23 8 -23 8 0 15 7 15 15 0 16 -12 20 -23
8z"/>
<path d="M32237 11883 c-4 -3 -7 -16 -6 -27 0 -20 1 -20 10 2 7 18 14 22 30
17 15 -5 19 -4 15 4 -8 12 -39 15 -49 4z"/>
<path d="M32110 11865 c0 -8 2 -15 4 -15 2 0 6 7 10 15 3 8 1 15 -4 15 -6 0
-10 -7 -10 -15z"/>
<path d="M33754 11863 c4 -12 2 -24 -4 -28 -16 -10 -12 -25 8 -25 22 0 24 38
4 60 -13 12 -14 11 -8 -7z"/>
<path d="M34436 11864 c-4 -9 -4 -19 -1 -22 7 -8 35 19 29 29 -8 14 -21 11
-28 -7z"/>
<path d="M35728 11862 c-6 -7 -9 -15 -6 -17 9 -9 81 10 85 22 6 16 -65 12 -79
-5z"/>
<path d="M35936 11871 c-3 -5 4 -11 17 -15 35 -9 47 -7 47 9 0 16 -55 22 -64
6z"/>
<path d="M36110 11865 c0 -8 2 -15 4 -15 2 0 6 7 10 15 3 8 1 15 -4 15 -6 0
-10 -7 -10 -15z"/>
<path d="M32151 11854 c0 -11 3 -14 6 -6 3 7 2 16 -1 19 -3 4 -6 -2 -5 -13z"/>
<path d="M34536 11852 c-3 -5 1 -9 9 -9 8 0 12 4 9 9 -3 4 -7 8 -9 8 -2 0 -6
-4 -9 -8z"/>
<path d="M32735 11840 c3 -5 10 -10 16 -10 5 0 9 5 9 10 0 6 -7 10 -16 10 -8
0 -12 -4 -9 -10z"/>
<path d="M33568 11833 c7 -3 16 -2 19 1 4 3 -2 6 -13 5 -11 0 -14 -3 -6 -6z"/>
<path d="M33848 11833 c7 -3 16 -2 19 1 4 3 -2 6 -13 5 -11 0 -14 -3 -6 -6z"/>
<path d="M35240 11831 c0 -6 5 -13 10 -16 6 -3 10 1 10 9 0 9 -4 16 -10 16 -5
0 -10 -4 -10 -9z"/>
<path d="M35346 11821 c-4 -7 -5 -15 -2 -18 9 -9 19 4 14 18 -4 11 -6 11 -12
0z"/>
<path d="M35175 11811 c-3 -5 -2 -12 3 -15 5 -3 9 1 9 9 0 17 -3 19 -12 6z"/>
<path d="M35698 11813 c7 -3 16 -2 19 1 4 3 -2 6 -13 5 -11 0 -14 -3 -6 -6z"/>
<path d="M36100 11810 c0 -5 5 -10 10 -10 6 0 10 5 10 10 0 6 -4 10 -10 10 -5
0 -10 -4 -10 -10z"/>
<path d="M36165 11810 c-17 -7 -14 -9 13 -9 20 -1 31 3 27 9 -7 12 -13 12 -40
0z"/>
<path d="M35665 11780 c3 -5 11 -10 16 -10 6 0 7 5 4 10 -3 6 -11 10 -16 10
-6 0 -7 -4 -4 -10z"/>
<path d="M36301 11766 c-9 -11 -7 -15 8 -19 17 -4 31 9 31 29 0 10 -29 3 -39
-10z"/>
<path d="M36357 11740 c3 -11 7 -20 9 -20 2 0 4 9 4 20 0 11 -4 20 -9 20 -5 0
-7 -9 -4 -20z"/>
<path d="M36582 11640 c0 -14 2 -19 5 -12 2 6 2 18 0 25 -3 6 -5 1 -5 -13z"/>
<path d="M36486 11622 c-3 -6 -1 -14 5 -17 15 -10 25 3 12 16 -7 7 -13 7 -17
1z"/>
<path d="M8729 12285 c-1 -6 -1 -18 0 -27 2 -12 -5 -18 -18 -18 -12 0 -21 -4
-21 -10 0 -5 5 -10 10 -10 6 0 10 -9 10 -20 0 -11 4 -20 9 -20 5 0 8 11 7 25
-2 13 0 22 4 20 13 -8 22 47 11 58 -7 7 -11 7 -12 2z"/>
<path d="M8666 12092 c-2 -4 -1 -14 3 -21 6 -9 10 -7 14 8 5 20 -7 29 -17 13z"/>
<path d="M6790 11860 c-13 -8 -12 -10 3 -10 9 0 17 5 17 10 0 12 -1 12 -20 0z"/>
<path d="M3220 11856 c0 -2 16 -6 35 -8 19 -2 35 0 35 4 0 4 -16 8 -35 8 -19
0 -35 -2 -35 -4z"/>
<path d="M3712 11845 c-11 -13 -8 -15 17 -15 23 0 29 4 25 15 -8 19 -25 19
-42 0z"/>
<path d="M3005 11841 c-3 -5 -1 -12 5 -16 5 -3 10 -18 11 -33 0 -24 1 -25 8
-7 5 11 6 24 4 28 -3 4 1 16 8 25 11 14 11 15 -1 5 -17 -15 -34 -17 -25 -3 3
6 4 10 1 10 -3 0 -7 -4 -11 -9z"/>
<path d="M6545 11841 c-3 -5 -1 -12 5 -16 5 -3 10 1 10 9 0 18 -6 21 -15 7z"/>
<path d="M3140 11819 c0 -11 5 -17 10 -14 6 3 10 13 10 21 0 8 -4 14 -10 14
-5 0 -10 -9 -10 -21z"/>
<path d="M3180 11826 c0 -8 5 -18 10 -21 6 -3 10 3 10 14 0 12 -4 21 -10 21
-5 0 -10 -6 -10 -14z"/>
<path d="M3060 11819 c0 -5 5 -7 10 -4 6 3 10 8 10 11 0 2 -4 4 -10 4 -5 0
-10 -5 -10 -11z"/>
<path d="M6585 11820 c-3 -5 1 -10 10 -10 9 0 13 5 10 10 -3 6 -8 10 -10 10
-2 0 -7 -4 -10 -10z"/>
<path d="M6725 11820 c-3 -5 -1 -10 4 -10 6 0 11 5 11 10 0 6 -2 10 -4 10 -3
0 -8 -4 -11 -10z"/>
<path d="M7160 11810 c0 -5 7 -10 15 -10 8 0 15 5 15 10 0 6 -7 10 -15 10 -8
0 -15 -4 -15 -10z"/>
<path d="M8188 11803 c7 -3 16 -2 19 1 4 3 -2 6 -13 5 -11 0 -14 -3 -6 -6z"/>
<path d="M3800 11780 c0 -11 5 -20 10 -20 6 0 10 9 10 20 0 11 -4 20 -10 20
-5 0 -10 -9 -10 -20z"/>
<path d="M7210 11790 c8 -5 11 -10 5 -10 -20 -1 21 -20 43 -20 47 0 15 30 -38
36 -19 2 -21 1 -10 -6z"/>
<path d="M8145 11790 c-7 -11 22 -33 35 -25 5 3 10 10 10 14 0 12 -39 21 -45
11z"/>
<path d="M8265 11790 c-3 -5 -2 -10 4 -10 5 0 13 5 16 10 3 6 2 10 -4 10 -5 0
-13 -4 -16 -10z"/>
<path d="M7300 11782 c0 -5 14 -12 30 -14 17 -3 30 -1 30 4 0 4 -6 8 -14 8 -8
0 -21 3 -30 6 -9 3 -16 2 -16 -4z"/>
<path d="M3135 11770 c-3 -5 1 -10 10 -10 9 0 13 5 10 10 -3 6 -8 10 -10 10
-2 0 -7 -4 -10 -10z"/>
<path d="M6080 11771 c0 -7 -9 -9 -24 -5 -13 3 -27 1 -30 -5 -4 -6 -16 -11
-27 -11 -11 0 -17 5 -14 10 4 6 -11 10 -40 8 -33 -1 -42 -4 -31 -10 9 -5 15
-12 12 -16 -2 -4 18 -8 45 -9 26 -2 51 2 54 7 3 6 17 10 30 10 24 0 42 16 31
27 -3 4 -6 1 -6 -6z"/>
<path d="M6425 11770 c-3 -5 -3 -11 2 -11 40 -7 53 -5 53 7 0 16 -46 19 -55 4z"/>
<path d="M3941 11763 c11 -3 15 -11 12 -24 -6 -23 12 -26 21 -3 9 22 -1 34
-27 33 -15 -1 -17 -3 -6 -6z"/>
<path d="M6110 11745 c-19 -23 -1 -39 21 -19 10 9 16 21 13 25 -8 13 -20 11
-34 -6z"/>
<path d="M7568 11753 c7 -3 16 -2 19 1 4 3 -2 6 -13 5 -11 0 -14 -3 -6 -6z"/>
<path d="M5660 11735 c-10 -12 -10 -15 4 -15 9 0 16 7 16 15 0 8 -2 15 -4 15
-2 0 -9 -7 -16 -15z"/>
<path d="M6240 11739 c0 -5 5 -7 10 -4 6 3 10 8 10 11 0 2 -4 4 -10 4 -5 0
-10 -5 -10 -11z"/>
<path d="M6425 11730 c-3 -5 -1 -10 4 -10 6 0 11 5 11 10 0 6 -2 10 -4 10 -3
0 -8 -4 -11 -10z"/>
<path d="M7955 11730 c-3 -5 1 -10 10 -10 9 0 13 5 10 10 -3 6 -8 10 -10 10
-2 0 -7 -4 -10 -10z"/>
<path d="M6316 11715 c4 -8 8 -15 10 -15 2 0 4 7 4 15 0 8 -4 15 -10 15 -5 0
-7 -7 -4 -15z"/>
<path d="M4766 11703 c5 -5 12 -12 16 -18 4 -6 8 -2 8 8 0 9 -7 17 -17 17 -9
0 -12 -3 -7 -7z"/>
<path d="M6020 11690 c30 -24 44 -25 36 -4 -3 9 -6 18 -6 20 0 2 -12 4 -27 4
l-28 0 25 -20z"/>
<path d="M3995 11691 c-3 -5 -1 -12 4 -15 5 -3 11 1 15 9 6 16 -9 21 -19 6z"/>
<path d="M5240 11684 c0 -8 5 -12 10 -9 6 4 8 11 5 16 -9 14 -15 11 -15 -7z"/>
<path d="M6165 11690 c-3 -5 1 -10 9 -10 9 0 16 5 16 10 0 6 -4 10 -9 10 -6 0
-13 -4 -16 -10z"/>
<path d="M3062 11670 c0 -14 2 -19 5 -12 2 6 2 18 0 25 -3 6 -5 1 -5 -13z"/>
<path d="M5920 11675 c0 -8 2 -15 4 -15 2 0 6 7 10 15 3 8 1 15 -4 15 -6 0
-10 -7 -10 -15z"/>
<path d="M4808 11643 c7 -3 16 -2 19 1 4 3 -2 6 -13 5 -11 0 -14 -3 -6 -6z"/>
<path d="M30801 12144 c0 -11 3 -14 6 -6 3 7 2 16 -1 19 -3 4 -6 -2 -5 -13z"/>
<path d="M23250 6355 c0 -19 2 -35 4 -35 2 0 6 16 8 35 2 19 0 35 -4 35 -4 0
-8 -16 -8 -35z"/>
<path d="M23250 6190 c0 -5 5 -10 10 -10 6 0 10 5 10 10 0 6 -4 10 -10 10 -5
0 -10 -4 -10 -10z"/>
<path d="M9397 5883 c-4 -3 -7 -233 -7 -510 l0 -505 288 4 c318 5 377 14 510
79 201 98 314 322 267 531 -17 79 -63 169 -113 221 -76 79 -224 147 -375 172
-94 15 -557 22 -570 8z"/>
<path d="M7978 3843 c6 -2 18 -2 25 0 6 3 1 5 -13 5 -14 0 -19 -2 -12 -5z"/>
<path d="M7970 3820 c0 -13 18 -22 24 -11 3 5 -1 11 -9 15 -8 3 -15 1 -15 -4z"/>
<path d="M9160 3799 c0 -5 5 -7 10 -4 6 3 10 8 10 11 0 2 -4 4 -10 4 -5 0 -10
-5 -10 -11z"/>
<path d="M8270 3775 c0 -8 5 -15 10 -15 6 0 10 7 10 15 0 8 -4 15 -10 15 -5 0
-10 -7 -10 -15z"/>
<path d="M11314 3765 c3 -8 1 -15 -4 -15 -6 0 -10 -5 -10 -10 0 -6 7 -6 19 2
19 11 18 38 -1 38 -6 0 -8 -7 -4 -15z"/>
<path d="M9098 3763 c6 -2 12 -12 12 -20 0 -13 3 -13 15 -3 13 11 13 15 3 21
-7 5 -20 8 -28 8 -10 0 -11 -2 -2 -6z"/>
<path d="M9192 3762 c-9 -6 -7 -14 8 -30 24 -26 40 -28 40 -7 0 9 -9 15 -21
15 -15 0 -19 5 -15 15 6 17 6 18 -12 7z"/>
<path d="M10366 3755 c4 -8 8 -15 10 -15 2 0 4 7 4 15 0 8 -4 15 -10 15 -5 0
-7 -7 -4 -15z"/>
<path d="M8594 3736 c39 -32 84 -39 97 -14 11 20 9 21 -37 18 -18 -1 -35 3
-39 9 -3 6 -16 11 -28 11 -21 -1 -20 -2 7 -24z"/>
<path d="M10411 3756 c12 -10 59 -15 59 -6 0 5 -14 10 -32 10 -17 0 -29 -2
-27 -4z"/>
<path d="M10497 3753 c-18 -5 -18 -5 0 -19 17 -12 16 -13 -12 -12 -16 1 -33 7
-37 12 -10 15 -20 2 -12 -18 3 -9 17 -16 29 -16 13 0 27 -4 30 -10 10 -16 41
-11 59 9 17 19 17 20 -6 23 -15 2 -22 9 -20 21 3 17 1 18 -31 10z"/>
<path d="M10550 3743 c0 -10 4 -14 8 -8 4 6 11 13 16 18 5 4 2 7 -7 7 -10 0
-17 -8 -17 -17z"/>
<path d="M9064 3736 c-4 -10 -2 -22 4 -28 8 -8 13 -7 18 6 4 10 2 22 -4 28 -8
8 -13 7 -18 -6z"/>
<path d="M9270 3734 c0 -8 5 -12 10 -9 6 4 8 11 5 16 -9 14 -15 11 -15 -7z"/>
<path d="M9368 3743 c7 -3 16 -2 19 1 4 3 -2 6 -13 5 -11 0 -14 -3 -6 -6z"/>
<path d="M7805 3730 c-3 -5 -1 -10 4 -10 6 0 11 5 11 10 0 6 -2 10 -4 10 -3 0
-8 -4 -11 -10z"/>
<path d="M8311 3724 c0 -11 3 -14 6 -6 3 7 2 16 -1 19 -3 4 -6 -2 -5 -13z"/>
<path d="M11390 3700 c0 -11 2 -20 5 -20 2 0 9 9 15 20 9 16 8 20 -5 20 -8 0
-15 -9 -15 -20z"/>
<path d="M8700 3700 c0 -5 7 -10 16 -10 8 0 12 5 9 10 -3 6 -10 10 -16 10 -5
0 -9 -4 -9 -10z"/>
<path d="M9270 3700 c0 -5 7 -10 15 -10 8 0 15 5 15 10 0 6 -7 10 -15 10 -8 0
-15 -4 -15 -10z"/>
<path d="M8640 3685 c0 -10 -10 -15 -27 -15 -22 0 -25 -2 -13 -10 8 -5 20 -10
26 -10 16 0 55 36 47 44 -12 12 -33 6 -33 -9z"/>
<path d="M9271 3653 c0 -16 3 -22 6 -15 2 6 9 10 14 6 5 -3 9 0 9 5 0 6 -5 11
-11 11 -5 0 -7 5 -4 10 3 6 1 10 -4 10 -6 0 -11 -12 -10 -27z"/>
<path d="M11760 3650 c0 -5 5 -10 11 -10 5 0 7 5 4 10 -3 6 -8 10 -11 10 -2 0
-4 -4 -4 -10z"/>
<path d="M11639 3626 c12 -13 18 -25 12 -27 -7 -3 -7 -9 -1 -19 8 -13 10 -13
10 1 0 9 9 19 20 22 11 3 20 13 20 22 0 12 -5 15 -20 10 -11 -4 -20 -2 -20 4
0 6 -10 11 -22 11 l-21 0 22 -24z"/>
<path d="M11980 3640 c-22 -7 -21 -8 13 -9 20 -1 37 4 37 9 0 11 -14 11 -50 0z"/>
<path d="M11560 3620 c0 -5 7 -10 15 -10 8 0 15 5 15 10 0 6 -7 10 -15 10 -8
0 -15 -4 -15 -10z"/>
<path d="M11747 3606 c-5 -15 -6 -31 -3 -34 8 -8 18 25 14 45 -3 13 -6 10 -11
-11z"/>
<path d="M11314 3609 c-7 -12 15 -31 31 -26 6 2 11 11 13 20 4 19 -32 24 -44
6z"/>
<path d="M12100 3611 c0 -9 30 -24 36 -18 2 1 -6 8 -16 15 -11 7 -20 8 -20 3z"/>
<path d="M11780 3596 c0 -2 7 -6 15 -10 8 -3 15 -1 15 4 0 6 -7 10 -15 10 -8
0 -15 -2 -15 -4z"/>
<path d="M12080 3575 c0 -8 5 -15 10 -15 6 0 10 7 10 15 0 8 -4 15 -10 15 -5
0 -10 -7 -10 -15z"/>
<path d="M12180 3575 c-10 -12 -9 -16 3 -21 20 -7 37 3 37 22 0 18 -24 18 -40
-1z"/>
<path d="M11786 3555 c7 -16 61 -30 91 -22 11 3 6 5 -13 6 -17 0 -37 8 -44 16
-16 19 -41 20 -34 0z"/>
<path d="M12205 3541 c-9 -16 23 -44 42 -37 9 4 14 8 12 9 -2 1 -14 10 -26 20
-14 12 -23 15 -28 8z"/>
<path d="M12235 3540 c3 -5 13 -10 21 -10 8 0 12 5 9 10 -3 6 -13 10 -21 10
-8 0 -12 -4 -9 -10z"/>
<path d="M12365 3511 c3 -6 11 -8 17 -5 6 4 15 0 20 -7 8 -12 9 -11 5 1 -2 8
-14 17 -26 18 -15 2 -21 0 -16 -7z"/>
<path d="M29200 3940 c0 -5 5 -10 11 -10 5 0 7 5 4 10 -3 6 -8 10 -11 10 -2 0
-4 -4 -4 -10z"/>
<path d="M28253 3923 c15 -2 37 -2 50 0 12 2 0 4 -28 4 -27 0 -38 -2 -22 -4z"/>
<path d="M29020 3890 c0 -5 12 -10 26 -10 14 0 23 4 19 10 -3 6 -15 10 -26 10
-10 0 -19 -4 -19 -10z"/>
<path d="M29525 3890 c3 -5 11 -10 16 -10 6 0 7 5 4 10 -3 6 -11 10 -16 10 -6
0 -7 -4 -4 -10z"/>
<path d="M26360 3835 c0 -16 16 -20 24 -6 3 5 -1 11 -9 15 -9 3 -15 0 -15 -9z"/>
<path d="M26400 3840 c0 -5 5 -10 10 -10 6 0 10 5 10 10 0 6 -4 10 -10 10 -5
0 -10 -4 -10 -10z"/>
<path d="M27176 3792 c-48 -6 -61 -26 -46 -73 11 -32 18 -39 39 -39 14 0 31 4
36 8 15 11 17 55 3 64 -10 6 -10 8 -1 8 16 0 36 -38 29 -56 -3 -8 1 -14 9 -14
8 0 15 -7 15 -15 0 -26 19 -16 26 13 3 15 7 33 10 40 2 6 -1 12 -6 12 -6 0
-10 13 -10 28 0 23 -4 28 -22 27 -12 -1 -24 -7 -26 -13 -2 -7 -8 -12 -13 -12
-6 0 -8 4 -4 9 8 13 -5 17 -39 13z"/>
<path d="M26555 3760 c-3 -5 -1 -18 4 -27 9 -15 10 -14 9 10 -3 30 -4 32 -13
17z"/>
<path d="M26404 3745 c-3 -8 -4 -20 -1 -27 3 -7 6 -3 6 9 1 12 7 24 14 26 9 4
9 6 -1 6 -7 1 -15 -6 -18 -14z"/>
<path d="M27070 3736 c0 -14 5 -28 10 -31 6 -4 10 7 10 24 0 17 -4 31 -10 31
-5 0 -10 -11 -10 -24z"/>
<path d="M15130 5690 c-8 -5 -12 -11 -10 -14 3 -2 14 2 24 10 22 15 10 19 -14
4z"/>
<path d="M16902 6199 c2 -7 10 -15 17 -17 8 -3 12 1 9 9 -2 7 -10 15 -17 17
-8 3 -12 -1 -9 -9z"/>
</g>
</svg>
